  0
SECTION
  2
HEADER
  9
$ACADVER
  1
AC1014
  9
$HANDSEED
  5
FFFF
  9
$MEASUREMENT
 70
     1
  0
ENDSEC
  0
SECTION
  2
TABLES
  0
TABLE
  2
VPORT
  5
8
330
0
100
AcDbSymbolTable
 70
     4
  0
VPORT
  5
2E
330
8
100
AcDbSymbolTableRecord
100
AcDbViewportTableRecord
  2
*ACTIVE
 70
     0
 10
0.0
 20
0.0
 11
1.0
 21
1.0
 12
210.0
 22
148.5
 13
0.0
 23
0.0
 14
10.0
 24
10.0
 15
10.0
 25
10.0
 16
0.0
 26
0.0
 36
1.0
 17
0.0
 27
0.0
 37
0.0
 40
341.0
 41
1.24
 42
50.0
 43
0.0
 44
0.0
 50
0.0
 51
0.0
 71
     0
 72
   100
 73
     1
 74
     3
 75
     0
 76
     0
 77
     0
 78
     0
  0
ENDTAB
  0
TABLE
  2
LTYPE
  5
5
330
0
100
AcDbSymbolTable
 70
     1
  0
LTYPE
  5
14
330
5
100
AcDbSymbolTableRecord
100
AcDbLinetypeTableRecord
  2
BYBLOCK
 70
     0
  3

 72
    65
 73
     0
 40
0.0
  0
LTYPE
  5
15
330
5
100
AcDbSymbolTableRecord
100
AcDbLinetypeTableRecord
  2
BYLAYER
 70
     0
  3

 72
    65
 73
     0
 40
0.0
  0
LTYPE
  5
16
330
5
100
AcDbSymbolTableRecord
100
AcDbLinetypeTableRecord
  2
CONTINUOUS
 70
     0
  3
Solid line
 72
    65
 73
     0
 40
0.0
  0
ENDTAB
  0
TABLE
  2
LAYER
  5
2
100
AcDbSymbolTable
 70
2
  0
LAYER
  5
50
100
AcDbSymbolTableRecord
100
AcDbLayerTableRecord
  2
0
 70
0
  6
CONTINUOUS
  0
LAYER
  5
51
100
AcDbSymbolTableRecord
100
AcDbLayerTableRecord
  2
Layer_1
 70
0
  6
CONTINUOUS
  0
ENDTAB
  0
TABLE
  2
STYLE
  5
3
330
0
100
AcDbSymbolTable
 70
     1
  0
STYLE
  5
11
330
3
100
AcDbSymbolTableRecord
100
AcDbTextStyleTableRecord
  2
STANDARD
 70
     0
 40
0.0
 41
1.0
 50
0.0
 71
     0
 42
2.5
  3
txt
  4

  0
ENDTAB
  0
TABLE
  2
VIEW
  5
6
330
0
100
AcDbSymbolTable
 70
     0
  0
ENDTAB
  0
TABLE
  2
UCS
  5
7
330
0
100
AcDbSymbolTable
 70
     0
  0
ENDTAB
  0
TABLE
  2
APPID
  5
9
330
0
100
AcDbSymbolTable
 70
     2
  0
APPID
  5
12
330
9
100
AcDbSymbolTableRecord
100
AcDbRegAppTableRecord
  2
ACAD
 70
     0
  0
ENDTAB
  0
TABLE
  2
DIMSTYLE
  5
A
330
0
100
AcDbSymbolTable
 70
     1
  0
DIMSTYLE
105
27
330
A
100
AcDbSymbolTableRecord
100
AcDbDimStyleTableRecord
  2
ISO-25
 70
     0
  3

  4

  5

  6

  7

 40
1.0
 41
2.5
 42
0.625
 43
3.75
 44
1.25
 45
0.0
 46
0.0
 47
0.0
 48
0.0
140
2.5
141
2.5
142
0.0
143
0.03937007874016
144
1.0
145
0.0
146
1.0
147
0.625
 71
     0
 72
     0
 73
     0
 74
     0
 75
     0
 76
     0
 77
     1
 78
     8
170
     0
171
     3
172
     1
173
     0
174
     0
175
     0
176
     0
177
     0
178
     0
270
     2
271
     2
272
     2
273
     2
274
     3
340
11
275
     0
280
     0
281
     0
282
     0
283
     0
284
     8
285
     0
286
     0
287
     3
288
     0
  0
ENDTAB
  0
TABLE
  2
BLOCK_RECORD
  5
1
330
0
100
AcDbSymbolTable
 70
     1
  0
BLOCK_RECORD
  5
1F
330
1
100
AcDbSymbolTableRecord
100
AcDbBlockTableRecord
  2
*MODEL_SPACE
  0
BLOCK_RECORD
  5
1B
330
1
100
AcDbSymbolTableRecord
100
AcDbBlockTableRecord
  2
*PAPER_SPACE
  0
ENDTAB
  0
ENDSEC
  0
SECTION
  2
BLOCKS
  0
BLOCK
  5
20
330
1F
100
AcDbEntity
  8
0
100
AcDbBlockBegin
  2
*MODEL_SPACE
 70
     0
 10
0.0
 20
0.0
 30
0.0
  3
*MODEL_SPACE
  1

  0
ENDBLK
  5
21
330
1F
100
AcDbEntity
  8
0
100
AcDbBlockEnd
  0
BLOCK
  5
1C
330
1B
100
AcDbEntity
 67
     1
  8
0
100
AcDbBlockBegin
  2
*PAPER_SPACE
  1

  0
ENDBLK
  5
1D
330
1B
100
AcDbEntity
 67
     1
  8
0
100
AcDbBlockEnd
  0
ENDSEC
  0
SECTION
  2
ENTITIES
  0
SPLINE
  5
100
100
AcDbEntity
  8
Layer_1
 62
7
100
AcDbSpline
 70
8
 71
3
 72
8
 73
4
 74
0
 40
0
 40
0
 40
0
 40
0
 40
1
 40
1
 40
1
 40
1
 10
211.063073
 20
280.357539
 30
0.0
 10
213.336465
 20
280.357539
 30
0.0
 10
215.179597
 20
278.514121
 30
0.0
 10
215.179597
 20
276.241019
 30
0.0
  0
SPLINE
  5
101
100
AcDbEntity
  8
Layer_1
 62
7
100
AcDbSpline
 70
8
 71
3
 72
8
 73
4
 74
0
 40
0
 40
0
 40
0
 40
0
 40
1
 40
1
 40
1
 40
1
 10
215.179597
 20
251.436257
 30
0.0
 10
215.179597
 20
251.326963
 30
0.0
 10
215.172159
 20
251.219706
 30
0.0
 10
215.163828
 20
251.112563
 30
0.0
  0
SPLINE
  5
102
100
AcDbEntity
  8
Layer_1
 62
7
100
AcDbSpline
 70
8
 71
3
 72
8
 73
4
 74
0
 40
0
 40
0
 40
0
 40
0
 40
1
 40
1
 40
1
 40
1
 10
215.163828
 20
251.112563
 30
0.0
 10
215.172754
 20
250.882022
 30
0.0
 10
215.181382
 20
250.651477
 30
0.0
 10
215.181382
 20
250.418848
 30
0.0
  0
SPLINE
  5
103
100
AcDbEntity
  8
Layer_1
 62
7
100
AcDbSpline
 70
8
 71
3
 72
8
 73
4
 74
0
 40
0
 40
0
 40
0
 40
0
 40
1
 40
1
 40
1
 40
1
 10
215.181382
 20
250.418848
 30
0.0
 10
215.181382
 20
240.246440
 30
0.0
 10
206.941849
 20
232.007207
 30
0.0
 10
196.769734
 20
232.007207
 30
0.0
  0
SPLINE
  5
104
100
AcDbEntity
  8
Layer_1
 62
7
100
AcDbSpline
 70
8
 71
3
 72
8
 73
4
 74
0
 40
0
 40
0
 40
0
 40
0
 40
1
 40
1
 40
1
 40
1
 10
196.769734
 20
232.007207
 30
0.0
 10
186.597321
 20
232.007207
 30
0.0
 10
178.349056
 20
240.246440
 30
0.0
 10
178.349056
 20
250.418848
 30
0.0
  0
SPLINE
  5
105
100
AcDbEntity
  8
Layer_1
 62
7
100
AcDbSpline
 70
8
 71
3
 72
8
 73
4
 74
0
 40
0
 40
0
 40
0
 40
0
 40
1
 40
1
 40
1
 40
1
 10
178.349056
 20
250.418848
 30
0.0
 10
178.349056
 20
260.590972
 30
0.0
 10
186.597321
 20
268.839529
 30
0.0
 10
196.769734
 20
268.839529
 30
0.0
  0
SPLINE
  5
106
100
AcDbEntity
  8
Layer_1
 62
7
100
AcDbSpline
 70
8
 71
3
 72
8
 73
4
 74
0
 40
0
 40
0
 40
0
 40
0
 40
1
 40
1
 40
1
 40
1
 10
196.769734
 20
268.839529
 30
0.0
 10
200.534037
 20
268.839529
 30
0.0
 10
204.031864
 20
267.707294
 30
0.0
 10
206.947204
 20
265.768664
 30
0.0
  0
LWPOLYLINE
  5
107
100
AcDbEntity
  8
Layer_1
 62
7
100
AcDbPolyline
 90
2
 70
0
 10
215.179597
 20
276.241019
 30
0.0
 10
215.179597
 20
251.436257
 30
0.0
  0
SPLINE
  5
108
100
AcDbEntity
  8
Layer_1
 62
7
100
AcDbSpline
 70
8
 71
3
 72
8
 73
4
 74
0
 40
0
 40
0
 40
0
 40
0
 40
1
 40
1
 40
1
 40
1
 10
206.947204
 20
276.241019
 30
0.0
 10
206.947219
 20
278.514409
 30
0.0
 10
208.789785
 20
280.357539
 30
0.0
 10
211.063177
 20
280.357539
 30
0.0
  0
LWPOLYLINE
  5
109
100
AcDbEntity
  8
Layer_1
 62
7
100
AcDbPolyline
 90
2
 70
0
 10
206.947204
 20
265.768664
 30
0.0
 10
206.947204
 20
276.241019
 30
0.0
  0
SPLINE
  5
10a
100
AcDbEntity
  8
Layer_1
 62
7
100
AcDbSpline
 70
8
 71
3
 72
8
 73
4
 74
0
 40
0
 40
0
 40
0
 40
0
 40
1
 40
1
 40
1
 40
1
 10
108.681085
 20
280.357539
 30
0.0
 10
110.954760
 20
280.357539
 30
0.0
 10
112.797609
 20
278.514121
 30
0.0
 10
112.797609
 20
276.241019
 30
0.0
  0
LWPOLYLINE
  5
10b
100
AcDbEntity
  8
Layer_1
 62
7
100
AcDbPolyline
 90
2
 70
0
 10
211.063177
 20
280.357539
 30
0.0
 10
211.063073
 20
280.357539
 30
0.0
  0
SPLINE
  5
10c
100
AcDbEntity
  8
Layer_1
 62
7
100
AcDbSpline
 70
8
 71
3
 72
8
 73
4
 74
0
 40
0
 40
0
 40
0
 40
0
 40
1
 40
1
 40
1
 40
1
 10
112.797609
 20
251.436257
 30
0.0
 10
112.797609
 20
251.328108
 30
0.0
 10
112.788683
 20
251.222003
 30
0.0
 10
112.781245
 20
251.115953
 30
0.0
  0
SPLINE
  5
10d
100
AcDbEntity
  8
Layer_1
 62
7
100
AcDbSpline
 70
8
 71
3
 72
8
 73
4
 74
0
 40
0
 40
0
 40
0
 40
0
 40
1
 40
1
 40
1
 40
1
 10
112.781245
 20
251.115953
 30
0.0
 10
112.790171
 20
250.884292
 30
0.0
 10
112.798799
 20
250.652618
 30
0.0
 10
112.798799
 20
250.418848
 30
0.0
  0
SPLINE
  5
10e
100
AcDbEntity
  8
Layer_1
 62
7
100
AcDbSpline
 70
8
 71
3
 72
8
 73
4
 74
0
 40
0
 40
0
 40
0
 40
0
 40
1
 40
1
 40
1
 40
1
 10
112.798799
 20
250.418848
 30
0.0
 10
112.798799
 20
240.246440
 30
0.0
 10
104.559578
 20
232.007207
 30
0.0
 10
94.387166
 20
232.007207
 30
0.0
  0
SPLINE
  5
10f
100
AcDbEntity
  8
Layer_1
 62
7
100
AcDbSpline
 70
8
 71
3
 72
8
 73
4
 74
0
 40
0
 40
0
 40
0
 40
0
 40
1
 40
1
 40
1
 40
1
 10
94.387166
 20
232.007207
 30
0.0
 10
84.215036
 20
232.007207
 30
0.0
 10
75.966488
 20
240.246440
 30
0.0
 10
75.966488
 20
250.418848
 30
0.0
  0
SPLINE
  5
110
100
AcDbEntity
  8
Layer_1
 62
7
100
AcDbSpline
 70
8
 71
3
 72
8
 73
4
 74
0
 40
0
 40
0
 40
0
 40
0
 40
1
 40
1
 40
1
 40
1
 10
75.966488
 20
250.418848
 30
0.0
 10
75.966488
 20
260.590972
 30
0.0
 10
84.215036
 20
268.839529
 30
0.0
 10
94.387166
 20
268.839529
 30
0.0
  0
SPLINE
  5
111
100
AcDbEntity
  8
Layer_1
 62
7
100
AcDbSpline
 70
8
 71
3
 72
8
 73
4
 74
0
 40
0
 40
0
 40
0
 40
0
 40
1
 40
1
 40
1
 40
1
 10
94.387166
 20
268.839529
 30
0.0
 10
98.151573
 20
268.839529
 30
0.0
 10
101.649861
 20
267.707294
 30
0.0
 10
104.565201
 20
265.768664
 30
0.0
  0
LWPOLYLINE
  5
112
100
AcDbEntity
  8
Layer_1
 62
7
100
AcDbPolyline
 90
2
 70
0
 10
112.797609
 20
276.241019
 30
0.0
 10
112.797609
 20
251.436257
 30
0.0
  0
SPLINE
  5
113
100
AcDbEntity
  8
Layer_1
 62
7
100
AcDbSpline
 70
8
 71
3
 72
8
 73
4
 74
0
 40
0
 40
0
 40
0
 40
0
 40
1
 40
1
 40
1
 40
1
 10
104.565201
 20
276.241019
 30
0.0
 10
104.565172
 20
278.514409
 30
0.0
 10
106.408020
 20
280.357539
 30
0.0
 10
108.681130
 20
280.357539
 30
0.0
  0
LWPOLYLINE
  5
114
100
AcDbEntity
  8
Layer_1
 62
7
100
AcDbPolyline
 90
2
 70
0
 10
104.565201
 20
265.768664
 30
0.0
 10
104.565201
 20
276.241019
 30
0.0
  0
SPLINE
  5
115
100
AcDbEntity
  8
Layer_1
 62
7
100
AcDbSpline
 70
8
 71
3
 72
8
 73
4
 74
0
 40
0
 40
0
 40
0
 40
0
 40
1
 40
1
 40
1
 40
1
 10
33.479881
 20
280.357539
 30
0.0
 10
35.753556
 20
280.357539
 30
0.0
 10
37.596390
 20
278.514121
 30
0.0
 10
37.596390
 20
276.241019
 30
0.0
  0
LWPOLYLINE
  5
116
100
AcDbEntity
  8
Layer_1
 62
7
100
AcDbPolyline
 90
1
 70
1
 10
108.681130
 20
280.357539
 30
0.0
  0
SPLINE
  5
117
100
AcDbEntity
  8
Layer_1
 62
7
100
AcDbSpline
 70
8
 71
3
 72
8
 73
4
 74
0
 40
0
 40
0
 40
0
 40
0
 40
1
 40
1
 40
1
 40
1
 10
37.596390
 20
251.436257
 30
0.0
 10
37.596390
 20
251.328108
 30
0.0
 10
37.587464
 20
251.222003
 30
0.0
 10
37.580026
 20
251.115953
 30
0.0
  0
SPLINE
  5
118
100
AcDbEntity
  8
Layer_1
 62
7
100
AcDbSpline
 70
8
 71
3
 72
8
 73
4
 74
0
 40
0
 40
0
 40
0
 40
0
 40
1
 40
1
 40
1
 40
1
 10
37.580026
 20
251.115953
 30
0.0
 10
37.588952
 20
250.884292
 30
0.0
 10
37.597580
 20
250.652618
 30
0.0
 10
37.597580
 20
250.418848
 30
0.0
  0
SPLINE
  5
119
100
AcDbEntity
  8
Layer_1
 62
7
100
AcDbSpline
 70
8
 71
3
 72
8
 73
4
 74
0
 40
0
 40
0
 40
0
 40
0
 40
1
 40
1
 40
1
 40
1
 10
37.597580
 20
250.418848
 30
0.0
 10
37.597580
 20
240.246440
 30
0.0
 10
29.358344
 20
232.007207
 30
0.0
 10
19.185947
 20
232.007207
 30
0.0
  0
SPLINE
  5
11a
100
AcDbEntity
  8
Layer_1
 62
7
100
AcDbSpline
 70
8
 71
3
 72
8
 73
4
 74
0
 40
0
 40
0
 40
0
 40
0
 40
1
 40
1
 40
1
 40
1
 10
19.185947
 20
232.007207
 30
0.0
 10
9.013817
 20
232.007207
 30
0.0
 10
0.765254
 20
240.246440
 30
0.0
 10
0.765254
 20
250.418848
 30
0.0
  0
SPLINE
  5
11b
100
AcDbEntity
  8
Layer_1
 62
7
100
AcDbSpline
 70
8
 71
3
 72
8
 73
4
 74
0
 40
0
 40
0
 40
0
 40
0
 40
1
 40
1
 40
1
 40
1
 10
0.765254
 20
250.418848
 30
0.0
 10
0.765254
 20
260.590972
 30
0.0
 10
9.013817
 20
268.839529
 30
0.0
 10
19.185947
 20
268.839529
 30
0.0
  0
SPLINE
  5
11c
100
AcDbEntity
  8
Layer_1
 62
7
100
AcDbSpline
 70
8
 71
3
 72
8
 73
4
 74
0
 40
0
 40
0
 40
0
 40
0
 40
1
 40
1
 40
1
 40
1
 10
19.185947
 20
268.839529
 30
0.0
 10
22.950339
 20
268.839529
 30
0.0
 10
26.448642
 20
267.707294
 30
0.0
 10
29.363982
 20
265.768664
 30
0.0
  0
LWPOLYLINE
  5
11d
100
AcDbEntity
  8
Layer_1
 62
7
100
AcDbPolyline
 90
2
 70
0
 10
37.596390
 20
276.241019
 30
0.0
 10
37.596390
 20
251.436257
 30
0.0
  0
SPLINE
  5
11e
100
AcDbEntity
  8
Layer_1
 62
7
100
AcDbSpline
 70
8
 71
3
 72
8
 73
4
 74
0
 40
0
 40
0
 40
0
 40
0
 40
1
 40
1
 40
1
 40
1
 10
29.363982
 20
276.241019
 30
0.0
 10
29.363952
 20
278.514409
 30
0.0
 10
31.206801
 20
280.357539
 30
0.0
 10
33.479911
 20
280.357539
 30
0.0
  0
LWPOLYLINE
  5
11f
100
AcDbEntity
  8
Layer_1
 62
7
100
AcDbPolyline
 90
2
 70
0
 10
29.363982
 20
265.768664
 30
0.0
 10
29.363982
 20
276.241019
 30
0.0
  0
SPLINE
  5
120
100
AcDbEntity
  8
Layer_1
 62
7
100
AcDbSpline
 70
8
 71
3
 72
8
 73
4
 74
0
 40
0
 40
0
 40
0
 40
0
 40
1
 40
1
 40
1
 40
1
 10
261.923305
 20
280.338900
 30
0.0
 10
272.088487
 20
280.338900
 30
0.0
 10
280.357550
 20
272.072443
 30
0.0
 10
280.357550
 20
261.904664
 30
0.0
  0
LWPOLYLINE
  5
121
100
AcDbEntity
  8
Layer_1
 62
7
100
AcDbPolyline
 90
1
 70
1
 10
33.479911
 20
280.357539
 30
0.0
  0
SPLINE
  5
122
100
AcDbEntity
  8
Layer_1
 62
7
100
AcDbSpline
 70
8
 71
3
 72
8
 73
4
 74
0
 40
0
 40
0
 40
0
 40
0
 40
1
 40
1
 40
1
 40
1
 10
280.357550
 20
236.216376
 30
0.0
 10
280.357550
 20
233.830763
 30
0.0
 10
278.417114
 20
231.888016
 30
0.0
 10
276.029191
 20
231.888016
 30
0.0
  0
SPLINE
  5
123
100
AcDbEntity
  8
Layer_1
 62
7
100
AcDbSpline
 70
8
 71
3
 72
8
 73
4
 74
0
 40
0
 40
0
 40
0
 40
0
 40
1
 40
1
 40
1
 40
1
 10
276.029191
 20
231.888016
 30
0.0
 10
273.643573
 20
231.888016
 30
0.0
 10
271.705339
 20
233.830763
 30
0.0
 10
271.705339
 20
236.216376
 30
0.0
  0
LWPOLYLINE
  5
124
100
AcDbEntity
  8
Layer_1
 62
7
100
AcDbPolyline
 90
2
 70
0
 10
280.357550
 20
261.904664
 30
0.0
 10
280.357550
 20
236.216376
 30
0.0
  0
SPLINE
  5
125
100
AcDbEntity
  8
Layer_1
 62
7
100
AcDbSpline
 70
8
 71
3
 72
8
 73
4
 74
0
 40
0
 40
0
 40
0
 40
0
 40
1
 40
1
 40
1
 40
1
 10
261.923305
 20
252.149744
 30
0.0
 10
259.535382
 20
252.149744
 30
0.0
 10
257.597207
 20
254.089903
 30
0.0
 10
257.597207
 20
256.477541
 30
0.0
  0
SPLINE
  5
126
100
AcDbEntity
  8
Layer_1
 62
7
100
AcDbSpline
 70
8
 71
3
 72
8
 73
4
 74
0
 40
0
 40
0
 40
0
 40
0
 40
1
 40
1
 40
1
 40
1
 10
257.597207
 20
256.477541
 30
0.0
 10
257.597207
 20
258.860841
 30
0.0
 10
259.535382
 20
260.799125
 30
0.0
 10
261.923305
 20
260.799125
 30
0.0
  0
LWPOLYLINE
  5
127
100
AcDbEntity
  8
Layer_1
 62
7
100
AcDbPolyline
 90
3
 70
0
 10
271.705339
 20
236.216376
 30
0.0
 10
271.705339
 20
252.149744
 30
0.0
 10
261.923305
 20
252.149744
 30
0.0
  0
SPLINE
  5
128
100
AcDbEntity
  8
Layer_1
 62
7
100
AcDbSpline
 70
8
 71
3
 72
8
 73
4
 74
0
 40
0
 40
0
 40
0
 40
0
 40
1
 40
1
 40
1
 40
1
 10
271.705339
 20
261.904604
 30
0.0
 10
271.705339
 20
267.298845
 30
0.0
 10
267.317267
 20
271.689460
 30
0.0
 10
261.923305
 20
271.689460
 30
0.0
  0
SPLINE
  5
129
100
AcDbEntity
  8
Layer_1
 62
7
100
AcDbSpline
 70
8
 71
3
 72
8
 73
4
 74
0
 40
0
 40
0
 40
0
 40
0
 40
1
 40
1
 40
1
 40
1
 10
261.923305
 20
271.689460
 30
0.0
 10
259.535382
 20
271.689460
 30
0.0
 10
257.597207
 20
273.627125
 30
0.0
 10
257.597207
 20
276.012739
 30
0.0
  0
SPLINE
  5
12a
100
AcDbEntity
  8
Layer_1
 62
7
100
AcDbSpline
 70
8
 71
3
 72
8
 73
4
 74
0
 40
0
 40
0
 40
0
 40
0
 40
1
 40
1
 40
1
 40
1
 10
257.597207
 20
276.012739
 30
0.0
 10
257.597207
 20
278.400667
 30
0.0
 10
259.535382
 20
280.338842
 30
0.0
 10
261.923305
 20
280.338842
 30
0.0
  0
LWPOLYLINE
  5
12b
100
AcDbEntity
  8
Layer_1
 62
7
100
AcDbPolyline
 90
3
 70
0
 10
261.923305
 20
260.799125
 30
0.0
 10
271.705339
 20
260.803588
 30
0.0
 10
271.705339
 20
261.904604
 30
0.0
  0
SPLINE
  5
12c
100
AcDbEntity
  8
Layer_1
 62
7
100
AcDbSpline
 70
8
 71
3
 72
8
 73
4
 74
0
 40
0
 40
0
 40
0
 40
0
 40
1
 40
1
 40
1
 40
1
 10
170.238513
 20
280.338900
 30
0.0
 10
172.626436
 20
280.338900
 30
0.0
 10
174.567437
 20
278.396151
 30
0.0
 10
174.567437
 20
276.010538
 30
0.0
  0
LWPOLYLINE
  5
12d
100
AcDbEntity
  8
Layer_1
 62
7
100
AcDbPolyline
 90
1
 70
1
 10
261.923305
 20
280.338842
 30
0.0
  0
SPLINE
  5
12e
100
AcDbEntity
  8
Layer_1
 62
7
100
AcDbSpline
 70
8
 71
3
 72
8
 73
4
 74
0
 40
0
 40
0
 40
0
 40
0
 40
1
 40
1
 40
1
 40
1
 10
174.567437
 20
250.322816
 30
0.0
 10
174.567437
 20
240.155034
 30
0.0
 10
166.298107
 20
231.888580
 30
0.0
 10
156.132642
 20
231.888580
 30
0.0
  0
SPLINE
  5
12f
100
AcDbEntity
  8
Layer_1
 62
7
100
AcDbSpline
 70
8
 71
3
 72
8
 73
4
 74
0
 40
0
 40
0
 40
0
 40
0
 40
1
 40
1
 40
1
 40
1
 10
156.132642
 20
231.888580
 30
0.0
 10
153.744719
 20
231.888580
 30
0.0
 10
151.807094
 20
233.826466
 30
0.0
 10
151.807094
 20
236.214682
 30
0.0
  0
SPLINE
  5
130
100
AcDbEntity
  8
Layer_1
 62
7
100
AcDbSpline
 70
8
 71
3
 72
8
 73
4
 74
0
 40
0
 40
0
 40
0
 40
0
 40
1
 40
1
 40
1
 40
1
 10
151.807094
 20
236.214682
 30
0.0
 10
151.807094
 20
238.599716
 30
0.0
 10
153.744719
 20
240.537958
 30
0.0
 10
156.132642
 20
240.537958
 30
0.0
  0
SPLINE
  5
131
100
AcDbEntity
  8
Layer_1
 62
7
100
AcDbSpline
 70
8
 71
3
 72
8
 73
4
 74
0
 40
0
 40
0
 40
0
 40
0
 40
1
 40
1
 40
1
 40
1
 10
156.132642
 20
240.537958
 30
0.0
 10
161.526887
 20
240.537958
 30
0.0
 10
165.915241
 20
244.928575
 30
0.0
 10
165.915241
 20
250.322816
 30
0.0
  0
LWPOLYLINE
  5
132
100
AcDbEntity
  8
Layer_1
 62
7
100
AcDbPolyline
 90
2
 70
0
 10
174.567437
 20
276.010538
 30
0.0
 10
174.567437
 20
250.322816
 30
0.0
  0
SPLINE
  5
133
100
AcDbEntity
  8
Layer_1
 62
7
100
AcDbSpline
 70
8
 71
3
 72
8
 73
4
 74
0
 40
0
 40
0
 40
0
 40
0
 40
1
 40
1
 40
1
 40
1
 10
165.915241
 20
276.010536
 30
0.0
 10
165.915241
 20
278.396149
 30
0.0
 10
167.852895
 20
280.338898
 30
0.0
 10
170.238513
 20
280.338900
 30
0.0
  0
LWPOLYLINE
  5
134
100
AcDbEntity
  8
Layer_1
 62
7
100
AcDbPolyline
 90
2
 70
0
 10
165.915241
 20
250.322816
 30
0.0
 10
165.915241
 20
276.010536
 30
0.0
  0
SPLINE
  5
135
100
AcDbEntity
  8
Layer_1
 62
7
100
AcDbSpline
 70
8
 71
3
 72
8
 73
4
 74
0
 40
0
 40
0
 40
0
 40
0
 40
1
 40
1
 40
1
 40
1
 10
54.498594
 20
269.010699
 30
0.0
 10
64.671006
 20
269.010699
 30
0.0
 10
72.909662
 20
260.762143
 30
0.0
 10
72.909662
 20
250.590020
 30
0.0
  0
SPLINE
  5
136
100
AcDbEntity
  8
Layer_1
 62
7
100
AcDbSpline
 70
8
 71
3
 72
8
 73
4
 74
0
 40
0
 40
0
 40
0
 40
0
 40
1
 40
1
 40
1
 40
1
 10
72.909662
 20
250.590020
 30
0.0
 10
72.909662
 20
248.251610
 30
0.0
 10
72.470073
 20
246.017691
 30
0.0
 10
71.675899
 20
243.960203
 30
0.0
  0
SPLINE
  5
137
100
AcDbEntity
  8
Layer_1
 62
7
100
AcDbSpline
 70
8
 71
3
 72
8
 73
4
 74
0
 40
0
 40
0
 40
0
 40
0
 40
1
 40
1
 40
1
 40
1
 10
71.675899
 20
243.960203
 30
0.0
 10
71.674739
 20
243.957377
 30
0.0
 10
71.672924
 20
243.954550
 30
0.0
 10
71.672924
 20
243.951724
 30
0.0
  0
SPLINE
  5
138
100
AcDbEntity
  8
Layer_1
 62
7
100
AcDbSpline
 70
8
 71
3
 72
8
 73
4
 74
0
 40
0
 40
0
 40
0
 40
0
 40
1
 40
1
 40
1
 40
1
 10
71.672924
 20
243.951724
 30
0.0
 10
71.586791
 20
243.728773
 30
0.0
 10
71.497966
 20
243.507167
 30
0.0
 10
71.403459
 20
243.288517
 30
0.0
  0
SPLINE
  5
139
100
AcDbEntity
  8
Layer_1
 62
7
100
AcDbSpline
 70
8
 71
3
 72
8
 73
4
 74
0
 40
0
 40
0
 40
0
 40
0
 40
1
 40
1
 40
1
 40
1
 10
71.403459
 20
243.288517
 30
0.0
 10
70.788705
 20
241.834426
 30
0.0
 10
69.979104
 20
240.434627
 30
0.0
 10
68.962457
 20
239.129626
 30
0.0
  0
SPLINE
  5
13a
100
AcDbEntity
  8
Layer_1
 62
7
100
AcDbSpline
 70
8
 71
3
 72
8
 73
4
 74
0
 40
0
 40
0
 40
0
 40
0
 40
1
 40
1
 40
1
 40
1
 10
68.962457
 20
239.129626
 30
0.0
 10
62.711082
 20
231.105140
 30
0.0
 10
51.142416
 20
229.662023
 30
0.0
 10
43.117707
 20
235.913577
 30
0.0
  0
SPLINE
  5
13b
100
AcDbEntity
  8
Layer_1
 62
7
100
AcDbSpline
 70
8
 71
3
 72
8
 73
4
 74
0
 40
0
 40
0
 40
0
 40
0
 40
1
 40
1
 40
1
 40
1
 10
43.117707
 20
235.913577
 30
0.0
 10
38.508085
 20
239.675856
 30
0.0
 10
43.510852
 20
246.008833
 30
0.0
 10
48.300206
 20
242.565992
 30
0.0
  0
SPLINE
  5
13c
100
AcDbEntity
  8
Layer_1
 62
7
100
AcDbSpline
 70
8
 71
3
 72
8
 73
4
 74
0
 40
0
 40
0
 40
0
 40
0
 40
1
 40
1
 40
1
 40
1
 10
48.300206
 20
242.565992
 30
0.0
 10
52.727611
 20
239.116886
 30
0.0
 10
59.114775
 20
239.916606
 30
0.0
 10
62.563705
 20
244.343774
 30
0.0
  0
SPLINE
  5
13d
100
AcDbEntity
  8
Layer_1
 62
7
100
AcDbSpline
 70
8
 71
3
 72
8
 73
4
 74
0
 40
0
 40
0
 40
0
 40
0
 40
1
 40
1
 40
1
 40
1
 10
62.563705
 20
244.343774
 30
0.0
 10
63.383466
 20
245.396059
 30
0.0
 10
63.960584
 20
246.559694
 30
0.0
 10
64.309279
 20
247.767147
 30
0.0
  0
SPLINE
  5
13e
100
AcDbEntity
  8
Layer_1
 62
7
100
AcDbSpline
 70
8
 71
3
 72
8
 73
4
 74
0
 40
0
 40
0
 40
0
 40
0
 40
1
 40
1
 40
1
 40
1
 10
64.309279
 20
247.767147
 30
0.0
 10
64.535589
 20
248.609860
 30
0.0
 10
64.658391
 20
249.494929
 30
0.0
 10
64.658391
 20
250.409243
 30
0.0
  0
SPLINE
  5
13f
100
AcDbEntity
  8
Layer_1
 62
7
100
AcDbSpline
 70
8
 71
3
 72
8
 73
4
 74
0
 40
0
 40
0
 40
0
 40
0
 40
1
 40
1
 40
1
 40
1
 10
64.658391
 20
250.409243
 30
0.0
 10
64.658391
 20
256.021278
 30
0.0
 10
60.111324
 20
260.577679
 30
0.0
 10
54.498995
 20
260.577679
 30
0.0
  0
SPLINE
  5
140
100
AcDbEntity
  8
Layer_1
 62
7
100
AcDbSpline
 70
8
 71
3
 72
8
 73
4
 74
0
 40
0
 40
0
 40
0
 40
0
 40
1
 40
1
 40
1
 40
1
 10
54.498995
 20
260.577679
 30
0.0
 10
54.477425
 20
260.578546
 30
0.0
 10
54.457640
 20
260.581695
 30
0.0
 10
54.436367
 20
260.582736
 30
0.0
  0
SPLINE
  5
141
100
AcDbEntity
  8
Layer_1
 62
7
100
AcDbSpline
 70
8
 71
3
 72
8
 73
4
 74
0
 40
0
 40
0
 40
0
 40
0
 40
1
 40
1
 40
1
 40
1
 10
54.436367
 20
260.582736
 30
0.0
 10
52.286729
 20
260.562460
 30
0.0
 10
50.126752
 20
259.864597
 30
0.0
 10
48.300280
 20
258.441714
 30
0.0
  0
SPLINE
  5
142
100
AcDbEntity
  8
Layer_1
 62
7
100
AcDbSpline
 70
8
 71
3
 72
8
 73
4
 74
0
 40
0
 40
0
 40
0
 40
0
 40
1
 40
1
 40
1
 40
1
 10
48.300280
 20
258.441714
 30
0.0
 10
43.510926
 20
254.998876
 30
0.0
 10
38.508160
 20
261.331850
 30
0.0
 10
43.117781
 20
265.094129
 30
0.0
  0
SPLINE
  5
143
100
AcDbEntity
  8
Layer_1
 62
7
100
AcDbSpline
 70
8
 71
3
 72
8
 73
4
 74
0
 40
0
 40
0
 40
0
 40
0
 40
1
 40
1
 40
1
 40
1
 10
43.117781
 20
265.094129
 30
0.0
 10
46.345637
 20
267.608761
 30
0.0
 10
50.146909
 20
268.875766
 30
0.0
 10
53.944891
 20
268.972822
 30
0.0
  0
SPLINE
  5
144
100
AcDbEntity
  8
Layer_1
 62
7
100
AcDbSpline
 70
8
 71
3
 72
8
 73
4
 74
0
 40
0
 40
0
 40
0
 40
0
 40
1
 40
1
 40
1
 40
1
 10
53.944891
 20
268.972822
 30
0.0
 10
54.123434
 20
268.992979
 30
0.0
 10
54.308180
 20
269.006338
 30
0.0
 10
54.499070
 20
269.010667
 30
0.0
  0
LWPOLYLINE
  5
145
100
AcDbEntity
  8
Layer_1
 62
7
100
AcDbPolyline
 90
1
 70
1
 10
170.238513
 20
280.338900
 30
0.0
  0
SPLINE
  5
146
100
AcDbEntity
  8
Layer_1
 62
7
100
AcDbSpline
 70
8
 71
3
 72
8
 73
4
 74
0
 40
0
 40
0
 40
0
 40
0
 40
1
 40
1
 40
1
 40
1
 10
236.745138
 20
268.846311
 30
0.0
 10
246.917550
 20
268.846311
 30
0.0
 10
255.165831
 20
260.606787
 30
0.0
 10
255.165831
 20
250.434667
 30
0.0
  0
SPLINE
  5
147
100
AcDbEntity
  8
Layer_1
 62
7
100
AcDbSpline
 70
8
 71
3
 72
8
 73
4
 74
0
 40
0
 40
0
 40
0
 40
0
 40
1
 40
1
 40
1
 40
1
 10
255.165831
 20
250.434667
 30
0.0
 10
255.165831
 20
240.262547
 30
0.0
 10
246.917550
 20
232.013988
 30
0.0
 10
236.745138
 20
232.013988
 30
0.0
  0
SPLINE
  5
148
100
AcDbEntity
  8
Layer_1
 62
7
100
AcDbSpline
 70
8
 71
3
 72
8
 73
4
 74
0
 40
0
 40
0
 40
0
 40
0
 40
1
 40
1
 40
1
 40
1
 10
236.745138
 20
232.013988
 30
0.0
 10
232.943511
 20
232.013988
 30
0.0
 10
229.412643
 20
233.167265
 30
0.0
 10
226.480107
 20
235.141345
 30
0.0
  0
SPLINE
  5
149
100
AcDbEntity
  8
Layer_1
 62
7
100
AcDbSpline
 70
8
 71
3
 72
8
 73
4
 74
0
 40
0
 40
0
 40
0
 40
0
 40
1
 40
1
 40
1
 40
1
 10
226.480107
 20
235.141345
 30
0.0
 10
226.026625
 20
233.345372
 30
0.0
 10
224.404581
 20
232.013988
 30
0.0
 10
222.467537
 20
232.013988
 30
0.0
  0
SPLINE
  5
14a
100
AcDbEntity
  8
Layer_1
 62
7
100
AcDbSpline
 70
8
 71
3
 72
8
 73
4
 74
0
 40
0
 40
0
 40
0
 40
0
 40
1
 40
1
 40
1
 40
1
 10
222.467537
 20
232.013988
 30
0.0
 10
220.179388
 20
232.013988
 30
0.0
 10
218.325025
 20
233.869206
 30
0.0
 10
218.325025
 20
236.157059
 30
0.0
  0
LWPOLYLINE
  5
14b
100
AcDbEntity
  8
Layer_1
 62
7
100
AcDbPolyline
 90
2
 70
0
 10
54.499070
 20
269.010667
 30
0.0
 10
54.498594
 20
269.010699
 30
0.0
  0
SPLINE
  5
14c
100
AcDbEntity
  8
Layer_1
 62
7
100
AcDbSpline
 70
8
 71
3
 72
8
 73
4
 74
0
 40
0
 40
0
 40
0
 40
0
 40
1
 40
1
 40
1
 40
1
 10
218.325025
 20
249.610460
 30
0.0
 10
218.325025
 20
249.741458
 30
0.0
 10
218.332463
 20
249.870665
 30
0.0
 10
218.344810
 20
249.998556
 30
0.0
  0
SPLINE
  5
14d
100
AcDbEntity
  8
Layer_1
 62
7
100
AcDbSpline
 70
8
 71
3
 72
8
 73
4
 74
0
 40
0
 40
0
 40
0
 40
0
 40
1
 40
1
 40
1
 40
1
 10
218.344810
 20
249.998556
 30
0.0
 10
218.341835
 20
250.144074
 30
0.0
 10
218.332909
 20
250.288331
 30
0.0
 10
218.332909
 20
250.434667
 30
0.0
  0
SPLINE
  5
14e
100
AcDbEntity
  8
Layer_1
 62
7
100
AcDbSpline
 70
8
 71
3
 72
8
 73
4
 74
0
 40
0
 40
0
 40
0
 40
0
 40
1
 40
1
 40
1
 40
1
 10
218.332909
 20
250.434667
 30
0.0
 10
218.332909
 20
260.606787
 30
0.0
 10
226.572428
 20
268.846311
 30
0.0
 10
236.744543
 20
268.846311
 30
0.0
  0
LWPOLYLINE
  5
14f
100
AcDbEntity
  8
Layer_1
 62
7
100
AcDbPolyline
 90
2
 70
0
 10
218.325025
 20
236.157059
 30
0.0
 10
218.325025
 20
249.610460
 30
0.0
  0
SPLINE
  5
150
100
AcDbEntity
  8
Layer_1
 62
7
100
AcDbSpline
 70
8
 71
3
 72
8
 73
4
 74
0
 40
0
 40
0
 40
0
 40
0
 40
1
 40
1
 40
1
 40
1
 10
134.363150
 20
268.846311
 30
0.0
 10
144.535280
 20
268.846311
 30
0.0
 10
152.783828
 20
260.606787
 30
0.0
 10
152.783828
 20
250.434667
 30
0.0
  0
SPLINE
  5
151
100
AcDbEntity
  8
Layer_1
 62
7
100
AcDbSpline
 70
8
 71
3
 72
8
 73
4
 74
0
 40
0
 40
0
 40
0
 40
0
 40
1
 40
1
 40
1
 40
1
 10
152.783828
 20
250.434667
 30
0.0
 10
152.783828
 20
240.262547
 30
0.0
 10
144.535280
 20
232.013988
 30
0.0
 10
134.363150
 20
232.013988
 30
0.0
  0
SPLINE
  5
152
100
AcDbEntity
  8
Layer_1
 62
7
100
AcDbSpline
 70
8
 71
3
 72
8
 73
4
 74
0
 40
0
 40
0
 40
0
 40
0
 40
1
 40
1
 40
1
 40
1
 10
134.363150
 20
232.013988
 30
0.0
 10
130.561419
 20
232.013988
 30
0.0
 10
127.030641
 20
233.167265
 30
0.0
 10
124.098119
 20
235.141345
 30
0.0
  0
SPLINE
  5
153
100
AcDbEntity
  8
Layer_1
 62
7
100
AcDbSpline
 70
8
 71
3
 72
8
 73
4
 74
0
 40
0
 40
0
 40
0
 40
0
 40
1
 40
1
 40
1
 40
1
 10
124.098119
 20
235.141345
 30
0.0
 10
123.644577
 20
233.345372
 30
0.0
 10
122.022341
 20
232.013988
 30
0.0
 10
120.085549
 20
232.013988
 30
0.0
  0
SPLINE
  5
154
100
AcDbEntity
  8
Layer_1
 62
7
100
AcDbSpline
 70
8
 71
3
 72
8
 73
4
 74
0
 40
0
 40
0
 40
0
 40
0
 40
1
 40
1
 40
1
 40
1
 10
120.085549
 20
232.013988
 30
0.0
 10
117.797400
 20
232.013988
 30
0.0
 10
115.943037
 20
233.869206
 30
0.0
 10
115.943037
 20
236.157059
 30
0.0
  0
LWPOLYLINE
  5
155
100
AcDbEntity
  8
Layer_1
 62
7
100
AcDbPolyline
 90
2
 70
0
 10
236.744543
 20
268.846311
 30
0.0
 10
236.745138
 20
268.846311
 30
0.0
  0
SPLINE
  5
156
100
AcDbEntity
  8
Layer_1
 62
7
100
AcDbSpline
 70
8
 71
3
 72
8
 73
4
 74
0
 40
0
 40
0
 40
0
 40
0
 40
1
 40
1
 40
1
 40
1
 10
115.943037
 20
249.610460
 30
0.0
 10
115.943037
 20
249.741458
 30
0.0
 10
115.950475
 20
249.870665
 30
0.0
 10
115.962822
 20
249.998556
 30
0.0
  0
SPLINE
  5
157
100
AcDbEntity
  8
Layer_1
 62
7
100
AcDbSpline
 70
8
 71
3
 72
8
 73
4
 74
0
 40
0
 40
0
 40
0
 40
0
 40
1
 40
1
 40
1
 40
1
 10
115.962822
 20
249.998556
 30
0.0
 10
115.959847
 20
250.144074
 30
0.0
 10
115.950922
 20
250.288331
 30
0.0
 10
115.950922
 20
250.434667
 30
0.0
  0
SPLINE
  5
158
100
AcDbEntity
  8
Layer_1
 62
7
100
AcDbSpline
 70
8
 71
3
 72
8
 73
4
 74
0
 40
0
 40
0
 40
0
 40
0
 40
1
 40
1
 40
1
 40
1
 10
115.950922
 20
250.434667
 30
0.0
 10
115.950922
 20
260.606787
 30
0.0
 10
124.190157
 20
268.846311
 30
0.0
 10
134.362555
 20
268.846311
 30
0.0
  0
LWPOLYLINE
  5
159
100
AcDbEntity
  8
Layer_1
 62
7
100
AcDbPolyline
 90
2
 70
0
 10
115.943037
 20
236.157059
 30
0.0
 10
115.943037
 20
249.610460
 30
0.0
  0
SPLINE
  5
15a
100
AcDbEntity
  8
Layer_1
 62
7
100
AcDbSpline
 70
8
 71
3
 72
8
 73
4
 74
0
 40
0
 40
0
 40
0
 40
0
 40
1
 40
1
 40
1
 40
1
 10
236.745138
 20
260.774836
 30
0.0
 10
231.133107
 20
260.774836
 30
0.0
 10
226.585757
 20
256.227763
 30
0.0
 10
226.585757
 20
250.615440
 30
0.0
  0
SPLINE
  5
15b
100
AcDbEntity
  8
Layer_1
 62
7
100
AcDbSpline
 70
8
 71
3
 72
8
 73
4
 74
0
 40
0
 40
0
 40
0
 40
0
 40
1
 40
1
 40
1
 40
1
 10
226.585757
 20
250.615440
 30
0.0
 10
226.585757
 20
245.003405
 30
0.0
 10
231.133107
 20
240.447007
 30
0.0
 10
236.745138
 20
240.447007
 30
0.0
  0
SPLINE
  5
15c
100
AcDbEntity
  8
Layer_1
 62
7
100
AcDbSpline
 70
8
 71
3
 72
8
 73
4
 74
0
 40
0
 40
0
 40
0
 40
0
 40
1
 40
1
 40
1
 40
1
 10
236.745138
 20
240.447007
 30
0.0
 10
242.357466
 20
240.447007
 30
0.0
 10
246.913578
 20
245.003405
 30
0.0
 10
246.913578
 20
250.615440
 30
0.0
  0
SPLINE
  5
15d
100
AcDbEntity
  8
Layer_1
 62
7
100
AcDbSpline
 70
8
 71
3
 72
8
 73
4
 74
0
 40
0
 40
0
 40
0
 40
0
 40
1
 40
1
 40
1
 40
1
 10
246.913578
 20
250.615440
 30
0.0
 10
246.913578
 20
256.227763
 30
0.0
 10
242.357466
 20
260.774836
 30
0.0
 10
236.745138
 20
260.774836
 30
0.0
  0
LWPOLYLINE
  5
15e
100
AcDbEntity
  8
Layer_1
 62
7
100
AcDbPolyline
 90
2
 70
0
 10
134.362555
 20
268.846311
 30
0.0
 10
134.363150
 20
268.846311
 30
0.0
  0
SPLINE
  5
15f
100
AcDbEntity
  8
Layer_1
 62
7
100
AcDbSpline
 70
8
 71
3
 72
8
 73
4
 74
0
 40
0
 40
0
 40
0
 40
0
 40
1
 40
1
 40
1
 40
1
 10
134.363150
 20
260.774836
 30
0.0
 10
128.750836
 20
260.774836
 30
0.0
 10
124.203754
 20
256.227763
 30
0.0
 10
124.203754
 20
250.615440
 30
0.0
  0
SPLINE
  5
160
100
AcDbEntity
  8
Layer_1
 62
7
100
AcDbSpline
 70
8
 71
3
 72
8
 73
4
 74
0
 40
0
 40
0
 40
0
 40
0
 40
1
 40
1
 40
1
 40
1
 10
124.203754
 20
250.615440
 30
0.0
 10
124.203754
 20
245.003405
 30
0.0
 10
128.750836
 20
240.447007
 30
0.0
 10
134.363150
 20
240.447007
 30
0.0
  0
SPLINE
  5
161
100
AcDbEntity
  8
Layer_1
 62
7
100
AcDbSpline
 70
8
 71
3
 72
8
 73
4
 74
0
 40
0
 40
0
 40
0
 40
0
 40
1
 40
1
 40
1
 40
1
 10
134.363150
 20
240.447007
 30
0.0
 10
139.975196
 20
240.447007
 30
0.0
 10
144.531590
 20
245.003405
 30
0.0
 10
144.531590
 20
250.615440
 30
0.0
  0
SPLINE
  5
162
100
AcDbEntity
  8
Layer_1
 62
7
100
AcDbSpline
 70
8
 71
3
 72
8
 73
4
 74
0
 40
0
 40
0
 40
0
 40
0
 40
1
 40
1
 40
1
 40
1
 10
144.531590
 20
250.615440
 30
0.0
 10
144.531590
 20
256.227763
 30
0.0
 10
139.975196
 20
260.774836
 30
0.0
 10
134.363150
 20
260.774836
 30
0.0
  0
LWPOLYLINE
  5
163
100
AcDbEntity
  8
Layer_1
 62
7
100
AcDbPolyline
 90
1
 70
1
 10
236.745138
 20
260.774836
 30
0.0
  0
SPLINE
  5
164
100
AcDbEntity
  8
Layer_1
 62
7
100
AcDbSpline
 70
8
 71
3
 72
8
 73
4
 74
0
 40
0
 40
0
 40
0
 40
0
 40
1
 40
1
 40
1
 40
1
 10
196.769645
 20
260.406511
 30
0.0
 10
191.157316
 20
260.406511
 30
0.0
 10
186.601219
 20
255.850401
 30
0.0
 10
186.601219
 20
250.238077
 30
0.0
  0
SPLINE
  5
165
100
AcDbEntity
  8
Layer_1
 62
7
100
AcDbSpline
 70
8
 71
3
 72
8
 73
4
 74
0
 40
0
 40
0
 40
0
 40
0
 40
1
 40
1
 40
1
 40
1
 10
186.601219
 20
250.238077
 30
0.0
 10
186.601219
 20
244.625753
 30
0.0
 10
191.157316
 20
240.078683
 30
0.0
 10
196.769645
 20
240.078683
 30
0.0
  0
SPLINE
  5
166
100
AcDbEntity
  8
Layer_1
 62
7
100
AcDbSpline
 70
8
 71
3
 72
8
 73
4
 74
0
 40
0
 40
0
 40
0
 40
0
 40
1
 40
1
 40
1
 40
1
 10
196.769645
 20
240.078683
 30
0.0
 10
202.381675
 20
240.078683
 30
0.0
 10
206.929040
 20
244.625753
 30
0.0
 10
206.929040
 20
250.238077
 30
0.0
  0
SPLINE
  5
167
100
AcDbEntity
  8
Layer_1
 62
7
100
AcDbSpline
 70
8
 71
3
 72
8
 73
4
 74
0
 40
0
 40
0
 40
0
 40
0
 40
1
 40
1
 40
1
 40
1
 10
206.929040
 20
250.238077
 30
0.0
 10
206.929040
 20
255.850111
 30
0.0
 10
202.381675
 20
260.406511
 30
0.0
 10
196.769645
 20
260.406511
 30
0.0
  0
LWPOLYLINE
  5
168
100
AcDbEntity
  8
Layer_1
 62
7
100
AcDbPolyline
 90
1
 70
1
 10
134.363150
 20
260.774836
 30
0.0
  0
SPLINE
  5
169
100
AcDbEntity
  8
Layer_1
 62
7
100
AcDbSpline
 70
8
 71
3
 72
8
 73
4
 74
0
 40
0
 40
0
 40
0
 40
0
 40
1
 40
1
 40
1
 40
1
 10
94.387091
 20
260.406511
 30
0.0
 10
88.775061
 20
260.406511
 30
0.0
 10
84.218666
 20
255.850401
 30
0.0
 10
84.218666
 20
250.238077
 30
0.0
  0
SPLINE
  5
16a
100
AcDbEntity
  8
Layer_1
 62
7
100
AcDbSpline
 70
8
 71
3
 72
8
 73
4
 74
0
 40
0
 40
0
 40
0
 40
0
 40
1
 40
1
 40
1
 40
1
 10
84.218666
 20
250.238077
 30
0.0
 10
84.218666
 20
244.625753
 30
0.0
 10
88.775061
 20
240.078683
 30
0.0
 10
94.387091
 20
240.078683
 30
0.0
  0
SPLINE
  5
16b
100
AcDbEntity
  8
Layer_1
 62
7
100
AcDbSpline
 70
8
 71
3
 72
8
 73
4
 74
0
 40
0
 40
0
 40
0
 40
0
 40
1
 40
1
 40
1
 40
1
 10
94.387091
 20
240.078683
 30
0.0
 10
99.999420
 20
240.078683
 30
0.0
 10
104.546487
 20
244.625753
 30
0.0
 10
104.546487
 20
250.238077
 30
0.0
  0
SPLINE
  5
16c
100
AcDbEntity
  8
Layer_1
 62
7
100
AcDbSpline
 70
8
 71
3
 72
8
 73
4
 74
0
 40
0
 40
0
 40
0
 40
0
 40
1
 40
1
 40
1
 40
1
 10
104.546487
 20
250.238077
 30
0.0
 10
104.546487
 20
255.850111
 30
0.0
 10
99.999420
 20
260.406511
 30
0.0
 10
94.387091
 20
260.406511
 30
0.0
  0
LWPOLYLINE
  5
16d
100
AcDbEntity
  8
Layer_1
 62
7
100
AcDbPolyline
 90
1
 70
1
 10
196.769645
 20
260.406511
 30
0.0
  0
SPLINE
  5
16e
100
AcDbEntity
  8
Layer_1
 62
7
100
AcDbSpline
 70
8
 71
3
 72
8
 73
4
 74
0
 40
0
 40
0
 40
0
 40
0
 40
1
 40
1
 40
1
 40
1
 10
19.185887
 20
260.406511
 30
0.0
 10
13.573856
 20
260.406511
 30
0.0
 10
9.017447
 20
255.850401
 30
0.0
 10
9.017447
 20
250.238077
 30
0.0
  0
SPLINE
  5
16f
100
AcDbEntity
  8
Layer_1
 62
7
100
AcDbSpline
 70
8
 71
3
 72
8
 73
4
 74
0
 40
0
 40
0
 40
0
 40
0
 40
1
 40
1
 40
1
 40
1
 10
9.017447
 20
250.238077
 30
0.0
 10
9.017447
 20
244.625753
 30
0.0
 10
13.573856
 20
240.078683
 30
0.0
 10
19.185887
 20
240.078683
 30
0.0
  0
SPLINE
  5
170
100
AcDbEntity
  8
Layer_1
 62
7
100
AcDbSpline
 70
8
 71
3
 72
8
 73
4
 74
0
 40
0
 40
0
 40
0
 40
0
 40
1
 40
1
 40
1
 40
1
 10
19.185887
 20
240.078683
 30
0.0
 10
24.798216
 20
240.078683
 30
0.0
 10
29.345283
 20
244.625753
 30
0.0
 10
29.345283
 20
250.238077
 30
0.0
  0
SPLINE
  5
171
100
AcDbEntity
  8
Layer_1
 62
7
100
AcDbSpline
 70
8
 71
3
 72
8
 73
4
 74
0
 40
0
 40
0
 40
0
 40
0
 40
1
 40
1
 40
1
 40
1
 10
29.345283
 20
250.238077
 30
0.0
 10
29.345283
 20
255.850111
 30
0.0
 10
24.798216
 20
260.406511
 30
0.0
 10
19.185887
 20
260.406511
 30
0.0
  0
LWPOLYLINE
  5
172
100
AcDbEntity
  8
Layer_1
 62
7
100
AcDbPolyline
 90
1
 70
1
 10
94.387091
 20
260.406511
 30
0.0
  0
LWPOLYLINE
  5
173
100
AcDbEntity
  8
Layer_1
 62
7
100
AcDbPolyline
 90
1
 70
1
 10
19.185887
 20
260.406511
 30
0.0
  0
ENDSEC
  0
SECTION
  2
OBJECTS
  0
DICTIONARY
  5
C
330
0
100
AcDbDictionary
  3
ACAD_GROUP
350
D
  3
ACAD_MLINESTYLE
350
17
  0
DICTIONARY
  5
D
330
C
100
AcDbDictionary
  0
DICTIONARY
  5
1A
330
C
100
AcDbDictionary
  0
DICTIONARY
  5
17
330
C
100
AcDbDictionary
  3
STANDARD
350
18
  0
DICTIONARY
  5
19
330
C
100
AcDbDictionary
  0
ENDSEC
  0
EOF
