G04 #@! TF.GenerationSoftware,KiCad,Pcbnew,5.1.9*
G04 #@! TF.CreationDate,2021-02-09T20:15:33+01:00*
G04 #@! TF.ProjectId,raspberrypi_hat,72617370-6265-4727-9279-70695f686174,rev?*
G04 #@! TF.SameCoordinates,Original*
G04 #@! TF.FileFunction,Copper,L2,Inr*
G04 #@! TF.FilePolarity,Positive*
%FSLAX46Y46*%
G04 Gerber Fmt 4.6, Leading zero omitted, Abs format (unit mm)*
G04 Created by KiCad (PCBNEW 5.1.9) date 2021-02-09 20:15:33*
%MOMM*%
%LPD*%
G01*
G04 APERTURE LIST*
G04 #@! TA.AperFunction,Profile*
%ADD10C,0.100000*%
G04 #@! TD*
G04 #@! TA.AperFunction,ComponentPad*
%ADD11R,1.600000X1.600000*%
G04 #@! TD*
G04 #@! TA.AperFunction,ComponentPad*
%ADD12O,1.600000X1.600000*%
G04 #@! TD*
G04 #@! TA.AperFunction,ComponentPad*
%ADD13C,1.800000*%
G04 #@! TD*
G04 #@! TA.AperFunction,ComponentPad*
%ADD14R,1.800000X1.800000*%
G04 #@! TD*
G04 #@! TA.AperFunction,ComponentPad*
%ADD15O,1.700000X2.000000*%
G04 #@! TD*
G04 #@! TA.AperFunction,ComponentPad*
%ADD16C,1.948180*%
G04 #@! TD*
G04 #@! TA.AperFunction,ComponentPad*
%ADD17R,1.700000X1.700000*%
G04 #@! TD*
G04 #@! TA.AperFunction,ComponentPad*
%ADD18O,1.700000X1.700000*%
G04 #@! TD*
G04 #@! TA.AperFunction,WasherPad*
%ADD19C,3.000000*%
G04 #@! TD*
G04 #@! TA.AperFunction,ComponentPad*
%ADD20R,1.500000X2.300000*%
G04 #@! TD*
G04 #@! TA.AperFunction,ComponentPad*
%ADD21O,1.500000X2.300000*%
G04 #@! TD*
G04 #@! TA.AperFunction,ComponentPad*
%ADD22R,1.651000X1.651000*%
G04 #@! TD*
G04 #@! TA.AperFunction,ComponentPad*
%ADD23C,1.651000*%
G04 #@! TD*
G04 #@! TA.AperFunction,ComponentPad*
%ADD24O,1.700000X1.950000*%
G04 #@! TD*
G04 #@! TA.AperFunction,ComponentPad*
%ADD25O,1.950000X1.700000*%
G04 #@! TD*
G04 #@! TA.AperFunction,ViaPad*
%ADD26C,0.400000*%
G04 #@! TD*
G04 APERTURE END LIST*
D10*
X78546356Y-63817611D02*
X78546361Y-113812375D01*
X78546356Y-63817611D02*
G75*
G02*
X81546356Y-60817611I3000000J0D01*
G01*
X140546356Y-60817611D02*
X81546356Y-60817611D01*
X140546356Y-60817611D02*
G75*
G02*
X143546356Y-63817611I0J-3000000D01*
G01*
X143546356Y-113817611D02*
X143546356Y-63817611D01*
X81546361Y-116812375D02*
G75*
G02*
X78546361Y-113812375I0J3000000D01*
G01*
X81546361Y-116812375D02*
X140546361Y-116812375D01*
X143546356Y-113817611D02*
G75*
G02*
X140546361Y-116812375I-2999995J5236D01*
G01*
D11*
X110490000Y-99060000D03*
D12*
X128270000Y-86360000D03*
X113030000Y-99060000D03*
X125730000Y-86360000D03*
X115570000Y-99060000D03*
X123190000Y-86360000D03*
X118110000Y-99060000D03*
X120650000Y-86360000D03*
X120650000Y-99060000D03*
X118110000Y-86360000D03*
X123190000Y-99060000D03*
X115570000Y-86360000D03*
X125730000Y-99060000D03*
X113030000Y-86360000D03*
X128270000Y-99060000D03*
X110490000Y-86360000D03*
D13*
X83820000Y-102870000D03*
D14*
X81280000Y-102870000D03*
D15*
X88940000Y-110490000D03*
G04 #@! TA.AperFunction,ComponentPad*
G36*
G01*
X92290000Y-109740000D02*
X92290000Y-111240000D01*
G75*
G02*
X92040000Y-111490000I-250000J0D01*
G01*
X90840000Y-111490000D01*
G75*
G02*
X90590000Y-111240000I0J250000D01*
G01*
X90590000Y-109740000D01*
G75*
G02*
X90840000Y-109490000I250000J0D01*
G01*
X92040000Y-109490000D01*
G75*
G02*
X92290000Y-109740000I0J-250000D01*
G01*
G37*
G04 #@! TD.AperFunction*
D16*
X133621780Y-101600000D03*
X136621520Y-96801940D03*
X139420600Y-101600000D03*
D17*
X86920000Y-65590000D03*
D18*
X86920000Y-63050000D03*
X89460000Y-65590000D03*
X89460000Y-63050000D03*
X92000000Y-65590000D03*
X92000000Y-63050000D03*
X94540000Y-65590000D03*
X94540000Y-63050000D03*
X97080000Y-65590000D03*
X97080000Y-63050000D03*
X99620000Y-65590000D03*
X99620000Y-63050000D03*
X102160000Y-65590000D03*
X102160000Y-63050000D03*
X104700000Y-65590000D03*
X104700000Y-63050000D03*
X107240000Y-65590000D03*
X107240000Y-63050000D03*
X109780000Y-65590000D03*
X109780000Y-63050000D03*
X112320000Y-65590000D03*
X112320000Y-63050000D03*
X114860000Y-65590000D03*
X114860000Y-63050000D03*
X117400000Y-65590000D03*
X117400000Y-63050000D03*
X119940000Y-65590000D03*
X119940000Y-63050000D03*
X122480000Y-65590000D03*
X122480000Y-63050000D03*
X125020000Y-65590000D03*
X125020000Y-63050000D03*
X127560000Y-65590000D03*
X127560000Y-63050000D03*
X130100000Y-65590000D03*
X130100000Y-63050000D03*
X132640000Y-65590000D03*
X132640000Y-63050000D03*
X135180000Y-65590000D03*
X135180000Y-63050000D03*
D17*
X113700000Y-74800000D03*
D18*
X116240000Y-74800000D03*
D19*
X82040000Y-64310000D03*
X140040000Y-64330000D03*
X82040000Y-113320000D03*
X140030000Y-113310000D03*
D20*
X101600000Y-74930000D03*
D21*
X104140000Y-74930000D03*
X106680000Y-74930000D03*
D22*
X128270000Y-104140000D03*
D23*
X125730000Y-104140000D03*
D14*
X81280000Y-87630000D03*
D13*
X83820000Y-87630000D03*
D14*
X81280000Y-95250000D03*
D13*
X83820000Y-95250000D03*
D24*
X115690000Y-110490000D03*
X118190000Y-110490000D03*
X120690000Y-110490000D03*
G04 #@! TA.AperFunction,ComponentPad*
G36*
G01*
X124040000Y-109765000D02*
X124040000Y-111215000D01*
G75*
G02*
X123790000Y-111465000I-250000J0D01*
G01*
X122590000Y-111465000D01*
G75*
G02*
X122340000Y-111215000I0J250000D01*
G01*
X122340000Y-109765000D01*
G75*
G02*
X122590000Y-109515000I250000J0D01*
G01*
X123790000Y-109515000D01*
G75*
G02*
X124040000Y-109765000I0J-250000D01*
G01*
G37*
G04 #@! TD.AperFunction*
G04 #@! TA.AperFunction,ComponentPad*
G36*
G01*
X136435000Y-70270000D02*
X137885000Y-70270000D01*
G75*
G02*
X138135000Y-70520000I0J-250000D01*
G01*
X138135000Y-71720000D01*
G75*
G02*
X137885000Y-71970000I-250000J0D01*
G01*
X136435000Y-71970000D01*
G75*
G02*
X136185000Y-71720000I0J250000D01*
G01*
X136185000Y-70520000D01*
G75*
G02*
X136435000Y-70270000I250000J0D01*
G01*
G37*
G04 #@! TD.AperFunction*
D25*
X137160000Y-73620000D03*
X137160000Y-76120000D03*
X137160000Y-78620000D03*
G04 #@! TA.AperFunction,ComponentPad*
G36*
G01*
X101180000Y-109740000D02*
X101180000Y-111240000D01*
G75*
G02*
X100930000Y-111490000I-250000J0D01*
G01*
X99730000Y-111490000D01*
G75*
G02*
X99480000Y-111240000I0J250000D01*
G01*
X99480000Y-109740000D01*
G75*
G02*
X99730000Y-109490000I250000J0D01*
G01*
X100930000Y-109490000D01*
G75*
G02*
X101180000Y-109740000I0J-250000D01*
G01*
G37*
G04 #@! TD.AperFunction*
D15*
X97830000Y-110490000D03*
X129700000Y-110500000D03*
G04 #@! TA.AperFunction,ComponentPad*
G36*
G01*
X133050000Y-109750000D02*
X133050000Y-111250000D01*
G75*
G02*
X132800000Y-111500000I-250000J0D01*
G01*
X131600000Y-111500000D01*
G75*
G02*
X131350000Y-111250000I0J250000D01*
G01*
X131350000Y-109750000D01*
G75*
G02*
X131600000Y-109500000I250000J0D01*
G01*
X132800000Y-109500000D01*
G75*
G02*
X133050000Y-109750000I0J-250000D01*
G01*
G37*
G04 #@! TD.AperFunction*
G04 #@! TA.AperFunction,ComponentPad*
G36*
G01*
X110050000Y-109740000D02*
X110050000Y-111240000D01*
G75*
G02*
X109800000Y-111490000I-250000J0D01*
G01*
X108600000Y-111490000D01*
G75*
G02*
X108350000Y-111240000I0J250000D01*
G01*
X108350000Y-109740000D01*
G75*
G02*
X108600000Y-109490000I250000J0D01*
G01*
X109800000Y-109490000D01*
G75*
G02*
X110050000Y-109740000I0J-250000D01*
G01*
G37*
G04 #@! TD.AperFunction*
X106700000Y-110490000D03*
D26*
X82550000Y-79375000D03*
X85090000Y-79375000D03*
X80010000Y-79375000D03*
M02*
