G04 #@! TF.GenerationSoftware,KiCad,Pcbnew,5.1.9*
G04 #@! TF.CreationDate,2021-02-16T22:26:49+01:00*
G04 #@! TF.ProjectId,raspberrypi_hat,72617370-6265-4727-9279-70695f686174,rev?*
G04 #@! TF.SameCoordinates,Original*
G04 #@! TF.FileFunction,Legend,Top*
G04 #@! TF.FilePolarity,Positive*
%FSLAX46Y46*%
G04 Gerber Fmt 4.6, Leading zero omitted, Abs format (unit mm)*
G04 Created by KiCad (PCBNEW 5.1.9) date 2021-02-16 22:26:49*
%MOMM*%
%LPD*%
G01*
G04 APERTURE LIST*
%ADD10C,0.300000*%
G04 #@! TA.AperFunction,Profile*
%ADD11C,0.100000*%
G04 #@! TD*
%ADD12C,0.120000*%
%ADD13C,0.150000*%
%ADD14C,0.130000*%
G04 APERTURE END LIST*
D10*
X136476190Y-91920238D02*
X136352380Y-91858333D01*
X136290476Y-91796428D01*
X136228571Y-91672619D01*
X136228571Y-91610714D01*
X136290476Y-91486904D01*
X136352380Y-91425000D01*
X136476190Y-91363095D01*
X136723809Y-91363095D01*
X136847619Y-91425000D01*
X136909523Y-91486904D01*
X136971428Y-91610714D01*
X136971428Y-91672619D01*
X136909523Y-91796428D01*
X136847619Y-91858333D01*
X136723809Y-91920238D01*
X136476190Y-91920238D01*
X136352380Y-91982142D01*
X136290476Y-92044047D01*
X136228571Y-92167857D01*
X136228571Y-92415476D01*
X136290476Y-92539285D01*
X136352380Y-92601190D01*
X136476190Y-92663095D01*
X136723809Y-92663095D01*
X136847619Y-92601190D01*
X136909523Y-92539285D01*
X136971428Y-92415476D01*
X136971428Y-92167857D01*
X136909523Y-92044047D01*
X136847619Y-91982142D01*
X136723809Y-91920238D01*
X137528571Y-92167857D02*
X138519047Y-92167857D01*
X139076190Y-91486904D02*
X139138095Y-91425000D01*
X139261904Y-91363095D01*
X139571428Y-91363095D01*
X139695238Y-91425000D01*
X139757142Y-91486904D01*
X139819047Y-91610714D01*
X139819047Y-91734523D01*
X139757142Y-91920238D01*
X139014285Y-92663095D01*
X139819047Y-92663095D01*
X140561904Y-91920238D02*
X140438095Y-91858333D01*
X140376190Y-91796428D01*
X140314285Y-91672619D01*
X140314285Y-91610714D01*
X140376190Y-91486904D01*
X140438095Y-91425000D01*
X140561904Y-91363095D01*
X140809523Y-91363095D01*
X140933333Y-91425000D01*
X140995238Y-91486904D01*
X141057142Y-91610714D01*
X141057142Y-91672619D01*
X140995238Y-91796428D01*
X140933333Y-91858333D01*
X140809523Y-91920238D01*
X140561904Y-91920238D01*
X140438095Y-91982142D01*
X140376190Y-92044047D01*
X140314285Y-92167857D01*
X140314285Y-92415476D01*
X140376190Y-92539285D01*
X140438095Y-92601190D01*
X140561904Y-92663095D01*
X140809523Y-92663095D01*
X140933333Y-92601190D01*
X140995238Y-92539285D01*
X141057142Y-92415476D01*
X141057142Y-92167857D01*
X140995238Y-92044047D01*
X140933333Y-91982142D01*
X140809523Y-91920238D01*
X141428571Y-91363095D02*
X141861904Y-92663095D01*
X142295238Y-91363095D01*
X136878571Y-94417857D02*
X137869047Y-94417857D01*
X138859523Y-95408333D02*
X138797619Y-95346428D01*
X138673809Y-95160714D01*
X138611904Y-95036904D01*
X138550000Y-94851190D01*
X138488095Y-94541666D01*
X138488095Y-94294047D01*
X138550000Y-93984523D01*
X138611904Y-93798809D01*
X138673809Y-93675000D01*
X138797619Y-93489285D01*
X138859523Y-93427380D01*
X139540476Y-94913095D02*
X139416666Y-94851190D01*
X139354761Y-94789285D01*
X139292857Y-94665476D01*
X139292857Y-94294047D01*
X139354761Y-94170238D01*
X139416666Y-94108333D01*
X139540476Y-94046428D01*
X139726190Y-94046428D01*
X139850000Y-94108333D01*
X139911904Y-94170238D01*
X139973809Y-94294047D01*
X139973809Y-94665476D01*
X139911904Y-94789285D01*
X139850000Y-94851190D01*
X139726190Y-94913095D01*
X139540476Y-94913095D01*
X140530952Y-94417857D02*
X141521428Y-94417857D01*
X141026190Y-94913095D02*
X141026190Y-93922619D01*
X127295238Y-108126190D02*
X127480952Y-108188095D01*
X127790476Y-108188095D01*
X127914285Y-108126190D01*
X127976190Y-108064285D01*
X128038095Y-107940476D01*
X128038095Y-107816666D01*
X127976190Y-107692857D01*
X127914285Y-107630952D01*
X127790476Y-107569047D01*
X127542857Y-107507142D01*
X127419047Y-107445238D01*
X127357142Y-107383333D01*
X127295238Y-107259523D01*
X127295238Y-107135714D01*
X127357142Y-107011904D01*
X127419047Y-106950000D01*
X127542857Y-106888095D01*
X127852380Y-106888095D01*
X128038095Y-106950000D01*
X128471428Y-106888095D02*
X128780952Y-108188095D01*
X129028571Y-107259523D01*
X129276190Y-108188095D01*
X129585714Y-106888095D01*
X129771428Y-108311904D02*
X130761904Y-108311904D01*
X131071428Y-108188095D02*
X131071428Y-106888095D01*
X131814285Y-108188095D02*
X131257142Y-107445238D01*
X131814285Y-106888095D02*
X131071428Y-107630952D01*
X132371428Y-107507142D02*
X132804761Y-107507142D01*
X132990476Y-108188095D02*
X132371428Y-108188095D01*
X132371428Y-106888095D01*
X132990476Y-106888095D01*
X133795238Y-107569047D02*
X133795238Y-108188095D01*
X133361904Y-106888095D02*
X133795238Y-107569047D01*
X134228571Y-106888095D01*
X115859523Y-108188095D02*
X115859523Y-106888095D01*
X116292857Y-107816666D01*
X116726190Y-106888095D01*
X116726190Y-108188095D01*
X117592857Y-106888095D02*
X117840476Y-106888095D01*
X117964285Y-106950000D01*
X118088095Y-107073809D01*
X118150000Y-107321428D01*
X118150000Y-107754761D01*
X118088095Y-108002380D01*
X117964285Y-108126190D01*
X117840476Y-108188095D01*
X117592857Y-108188095D01*
X117469047Y-108126190D01*
X117345238Y-108002380D01*
X117283333Y-107754761D01*
X117283333Y-107321428D01*
X117345238Y-107073809D01*
X117469047Y-106950000D01*
X117592857Y-106888095D01*
X118521428Y-106888095D02*
X119264285Y-106888095D01*
X118892857Y-108188095D02*
X118892857Y-106888095D01*
X119945238Y-106888095D02*
X120192857Y-106888095D01*
X120316666Y-106950000D01*
X120440476Y-107073809D01*
X120502380Y-107321428D01*
X120502380Y-107754761D01*
X120440476Y-108002380D01*
X120316666Y-108126190D01*
X120192857Y-108188095D01*
X119945238Y-108188095D01*
X119821428Y-108126190D01*
X119697619Y-108002380D01*
X119635714Y-107754761D01*
X119635714Y-107321428D01*
X119697619Y-107073809D01*
X119821428Y-106950000D01*
X119945238Y-106888095D01*
X121802380Y-108188095D02*
X121369047Y-107569047D01*
X121059523Y-108188095D02*
X121059523Y-106888095D01*
X121554761Y-106888095D01*
X121678571Y-106950000D01*
X121740476Y-107011904D01*
X121802380Y-107135714D01*
X121802380Y-107321428D01*
X121740476Y-107445238D01*
X121678571Y-107507142D01*
X121554761Y-107569047D01*
X121059523Y-107569047D01*
X104054761Y-108126190D02*
X104240476Y-108188095D01*
X104550000Y-108188095D01*
X104673809Y-108126190D01*
X104735714Y-108064285D01*
X104797619Y-107940476D01*
X104797619Y-107816666D01*
X104735714Y-107692857D01*
X104673809Y-107630952D01*
X104550000Y-107569047D01*
X104302380Y-107507142D01*
X104178571Y-107445238D01*
X104116666Y-107383333D01*
X104054761Y-107259523D01*
X104054761Y-107135714D01*
X104116666Y-107011904D01*
X104178571Y-106950000D01*
X104302380Y-106888095D01*
X104611904Y-106888095D01*
X104797619Y-106950000D01*
X105230952Y-106888095D02*
X105540476Y-108188095D01*
X105788095Y-107259523D01*
X106035714Y-108188095D01*
X106345238Y-106888095D01*
X106530952Y-108311904D02*
X107521428Y-108311904D01*
X107830952Y-108188095D02*
X107830952Y-106888095D01*
X108264285Y-107816666D01*
X108697619Y-106888095D01*
X108697619Y-108188095D01*
X109192857Y-106888095D02*
X109502380Y-108188095D01*
X109750000Y-107259523D01*
X109997619Y-108188095D01*
X110307142Y-106888095D01*
X111545238Y-108064285D02*
X111483333Y-108126190D01*
X111297619Y-108188095D01*
X111173809Y-108188095D01*
X110988095Y-108126190D01*
X110864285Y-108002380D01*
X110802380Y-107878571D01*
X110740476Y-107630952D01*
X110740476Y-107445238D01*
X110802380Y-107197619D01*
X110864285Y-107073809D01*
X110988095Y-106950000D01*
X111173809Y-106888095D01*
X111297619Y-106888095D01*
X111483333Y-106950000D01*
X111545238Y-107011904D01*
X95223809Y-108126190D02*
X95409523Y-108188095D01*
X95719047Y-108188095D01*
X95842857Y-108126190D01*
X95904761Y-108064285D01*
X95966666Y-107940476D01*
X95966666Y-107816666D01*
X95904761Y-107692857D01*
X95842857Y-107630952D01*
X95719047Y-107569047D01*
X95471428Y-107507142D01*
X95347619Y-107445238D01*
X95285714Y-107383333D01*
X95223809Y-107259523D01*
X95223809Y-107135714D01*
X95285714Y-107011904D01*
X95347619Y-106950000D01*
X95471428Y-106888095D01*
X95780952Y-106888095D01*
X95966666Y-106950000D01*
X96400000Y-106888095D02*
X96709523Y-108188095D01*
X96957142Y-107259523D01*
X97204761Y-108188095D01*
X97514285Y-106888095D01*
X97700000Y-108311904D02*
X98690476Y-108311904D01*
X99000000Y-108188095D02*
X99000000Y-106888095D01*
X99433333Y-107816666D01*
X99866666Y-106888095D01*
X99866666Y-108188095D01*
X100361904Y-106888095D02*
X100671428Y-108188095D01*
X100919047Y-107259523D01*
X101166666Y-108188095D01*
X101476190Y-106888095D01*
X102219047Y-106888095D02*
X102466666Y-106888095D01*
X102590476Y-106950000D01*
X102714285Y-107073809D01*
X102776190Y-107321428D01*
X102776190Y-107754761D01*
X102714285Y-108002380D01*
X102590476Y-108126190D01*
X102466666Y-108188095D01*
X102219047Y-108188095D01*
X102095238Y-108126190D01*
X101971428Y-108002380D01*
X101909523Y-107754761D01*
X101909523Y-107321428D01*
X101971428Y-107073809D01*
X102095238Y-106950000D01*
X102219047Y-106888095D01*
X86795238Y-108126190D02*
X86980952Y-108188095D01*
X87290476Y-108188095D01*
X87414285Y-108126190D01*
X87476190Y-108064285D01*
X87538095Y-107940476D01*
X87538095Y-107816666D01*
X87476190Y-107692857D01*
X87414285Y-107630952D01*
X87290476Y-107569047D01*
X87042857Y-107507142D01*
X86919047Y-107445238D01*
X86857142Y-107383333D01*
X86795238Y-107259523D01*
X86795238Y-107135714D01*
X86857142Y-107011904D01*
X86919047Y-106950000D01*
X87042857Y-106888095D01*
X87352380Y-106888095D01*
X87538095Y-106950000D01*
X87971428Y-106888095D02*
X88280952Y-108188095D01*
X88528571Y-107259523D01*
X88776190Y-108188095D01*
X89085714Y-106888095D01*
X89271428Y-108311904D02*
X90261904Y-108311904D01*
X90571428Y-108188095D02*
X90571428Y-106888095D01*
X91314285Y-108188095D02*
X90757142Y-107445238D01*
X91314285Y-106888095D02*
X90571428Y-107630952D01*
X91871428Y-107507142D02*
X92304761Y-107507142D01*
X92490476Y-108188095D02*
X91871428Y-108188095D01*
X91871428Y-106888095D01*
X92490476Y-106888095D01*
X93295238Y-107569047D02*
X93295238Y-108188095D01*
X92861904Y-106888095D02*
X93295238Y-107569047D01*
X93728571Y-106888095D01*
X133526190Y-78066666D02*
X133588095Y-77880952D01*
X133588095Y-77571428D01*
X133526190Y-77447619D01*
X133464285Y-77385714D01*
X133340476Y-77323809D01*
X133216666Y-77323809D01*
X133092857Y-77385714D01*
X133030952Y-77447619D01*
X132969047Y-77571428D01*
X132907142Y-77819047D01*
X132845238Y-77942857D01*
X132783333Y-78004761D01*
X132659523Y-78066666D01*
X132535714Y-78066666D01*
X132411904Y-78004761D01*
X132350000Y-77942857D01*
X132288095Y-77819047D01*
X132288095Y-77509523D01*
X132350000Y-77323809D01*
X132907142Y-76766666D02*
X132907142Y-76333333D01*
X133588095Y-76147619D02*
X133588095Y-76766666D01*
X132288095Y-76766666D01*
X132288095Y-76147619D01*
X133526190Y-75652380D02*
X133588095Y-75466666D01*
X133588095Y-75157142D01*
X133526190Y-75033333D01*
X133464285Y-74971428D01*
X133340476Y-74909523D01*
X133216666Y-74909523D01*
X133092857Y-74971428D01*
X133030952Y-75033333D01*
X132969047Y-75157142D01*
X132907142Y-75404761D01*
X132845238Y-75528571D01*
X132783333Y-75590476D01*
X132659523Y-75652380D01*
X132535714Y-75652380D01*
X132411904Y-75590476D01*
X132350000Y-75528571D01*
X132288095Y-75404761D01*
X132288095Y-75095238D01*
X132350000Y-74909523D01*
X133216666Y-74414285D02*
X133216666Y-73795238D01*
X133588095Y-74538095D02*
X132288095Y-74104761D01*
X133588095Y-73671428D01*
X133588095Y-73238095D02*
X132288095Y-73238095D01*
X133216666Y-72804761D01*
X132288095Y-72371428D01*
X133588095Y-72371428D01*
X132907142Y-71752380D02*
X132907142Y-71319047D01*
X133588095Y-71133333D02*
X133588095Y-71752380D01*
X132288095Y-71752380D01*
X132288095Y-71133333D01*
D11*
X78546356Y-63817611D02*
X78546361Y-113812375D01*
D10*
X87599523Y-97059523D02*
X87599523Y-93059523D01*
X88932857Y-95916666D01*
X90266190Y-93059523D01*
X90266190Y-97059523D01*
X92932857Y-93059523D02*
X93694761Y-93059523D01*
X94075714Y-93250000D01*
X94456666Y-93630952D01*
X94647142Y-94392857D01*
X94647142Y-95726190D01*
X94456666Y-96488095D01*
X94075714Y-96869047D01*
X93694761Y-97059523D01*
X92932857Y-97059523D01*
X92551904Y-96869047D01*
X92170952Y-96488095D01*
X91980476Y-95726190D01*
X91980476Y-94392857D01*
X92170952Y-93630952D01*
X92551904Y-93250000D01*
X92932857Y-93059523D01*
X95790000Y-93059523D02*
X97123333Y-97059523D01*
X98456666Y-93059523D01*
X99790000Y-97059523D02*
X99790000Y-93059523D01*
X101694761Y-97059523D02*
X101694761Y-93059523D01*
X103980476Y-97059523D01*
X103980476Y-93059523D01*
X107980476Y-93250000D02*
X107599523Y-93059523D01*
X107028095Y-93059523D01*
X106456666Y-93250000D01*
X106075714Y-93630952D01*
X105885238Y-94011904D01*
X105694761Y-94773809D01*
X105694761Y-95345238D01*
X105885238Y-96107142D01*
X106075714Y-96488095D01*
X106456666Y-96869047D01*
X107028095Y-97059523D01*
X107409047Y-97059523D01*
X107980476Y-96869047D01*
X108170952Y-96678571D01*
X108170952Y-95345238D01*
X107409047Y-95345238D01*
X89599523Y-104933571D02*
X89409047Y-105124047D01*
X88837619Y-105314523D01*
X88456666Y-105314523D01*
X87885238Y-105124047D01*
X87504285Y-104743095D01*
X87313809Y-104362142D01*
X87123333Y-103600238D01*
X87123333Y-103028809D01*
X87313809Y-102266904D01*
X87504285Y-101885952D01*
X87885238Y-101505000D01*
X88456666Y-101314523D01*
X88837619Y-101314523D01*
X89409047Y-101505000D01*
X89599523Y-101695476D01*
X93218571Y-105314523D02*
X91313809Y-105314523D01*
X91313809Y-101314523D01*
X95313809Y-101314523D02*
X96075714Y-101314523D01*
X96456666Y-101505000D01*
X96837619Y-101885952D01*
X97028095Y-102647857D01*
X97028095Y-103981190D01*
X96837619Y-104743095D01*
X96456666Y-105124047D01*
X96075714Y-105314523D01*
X95313809Y-105314523D01*
X94932857Y-105124047D01*
X94551904Y-104743095D01*
X94361428Y-103981190D01*
X94361428Y-102647857D01*
X94551904Y-101885952D01*
X94932857Y-101505000D01*
X95313809Y-101314523D01*
X98551904Y-105124047D02*
X99123333Y-105314523D01*
X100075714Y-105314523D01*
X100456666Y-105124047D01*
X100647142Y-104933571D01*
X100837619Y-104552619D01*
X100837619Y-104171666D01*
X100647142Y-103790714D01*
X100456666Y-103600238D01*
X100075714Y-103409761D01*
X99313809Y-103219285D01*
X98932857Y-103028809D01*
X98742380Y-102838333D01*
X98551904Y-102457380D01*
X98551904Y-102076428D01*
X98742380Y-101695476D01*
X98932857Y-101505000D01*
X99313809Y-101314523D01*
X100266190Y-101314523D01*
X100837619Y-101505000D01*
X102551904Y-103219285D02*
X103885238Y-103219285D01*
X104456666Y-105314523D02*
X102551904Y-105314523D01*
X102551904Y-101314523D01*
X104456666Y-101314523D01*
X106170952Y-105314523D02*
X106170952Y-101314523D01*
X107123333Y-101314523D01*
X107694761Y-101505000D01*
X108075714Y-101885952D01*
X108266190Y-102266904D01*
X108456666Y-103028809D01*
X108456666Y-103600238D01*
X108266190Y-104362142D01*
X108075714Y-104743095D01*
X107694761Y-105124047D01*
X107123333Y-105314523D01*
X106170952Y-105314523D01*
X88329285Y-85439523D02*
X89091190Y-85439523D01*
X89472142Y-85630000D01*
X89853095Y-86010952D01*
X90043571Y-86772857D01*
X90043571Y-88106190D01*
X89853095Y-88868095D01*
X89472142Y-89249047D01*
X89091190Y-89439523D01*
X88329285Y-89439523D01*
X87948333Y-89249047D01*
X87567380Y-88868095D01*
X87376904Y-88106190D01*
X87376904Y-86772857D01*
X87567380Y-86010952D01*
X87948333Y-85630000D01*
X88329285Y-85439523D01*
X91757857Y-89439523D02*
X91757857Y-85439523D01*
X93281666Y-85439523D01*
X93662619Y-85630000D01*
X93853095Y-85820476D01*
X94043571Y-86201428D01*
X94043571Y-86772857D01*
X93853095Y-87153809D01*
X93662619Y-87344285D01*
X93281666Y-87534761D01*
X91757857Y-87534761D01*
X95757857Y-87344285D02*
X97091190Y-87344285D01*
X97662619Y-89439523D02*
X95757857Y-89439523D01*
X95757857Y-85439523D01*
X97662619Y-85439523D01*
X99376904Y-89439523D02*
X99376904Y-85439523D01*
X101662619Y-89439523D01*
X101662619Y-85439523D01*
D11*
X78546356Y-63817611D02*
G75*
G02*
X81546356Y-60817611I3000000J0D01*
G01*
X140546356Y-60817611D02*
X81546356Y-60817611D01*
X140546356Y-60817611D02*
G75*
G02*
X143546356Y-63817611I0J-3000000D01*
G01*
X143546356Y-113817611D02*
X143546356Y-63817611D01*
X81546361Y-116812375D02*
G75*
G02*
X78546361Y-113812375I0J3000000D01*
G01*
X81546361Y-116812375D02*
X140546361Y-116812375D01*
X143546356Y-113817611D02*
G75*
G02*
X140546361Y-116812375I-2999995J5236D01*
G01*
D12*
X130320000Y-104800000D02*
G75*
G03*
X130320000Y-104800000I-3270000J0D01*
G01*
X127050000Y-108030000D02*
X127050000Y-101570000D01*
X127010000Y-108030000D02*
X127010000Y-101570000D01*
X126970000Y-108030000D02*
X126970000Y-101570000D01*
X126930000Y-108028000D02*
X126930000Y-101572000D01*
X126890000Y-108027000D02*
X126890000Y-101573000D01*
X126850000Y-108024000D02*
X126850000Y-101576000D01*
X126810000Y-108022000D02*
X126810000Y-105840000D01*
X126810000Y-103760000D02*
X126810000Y-101578000D01*
X126770000Y-108018000D02*
X126770000Y-105840000D01*
X126770000Y-103760000D02*
X126770000Y-101582000D01*
X126730000Y-108015000D02*
X126730000Y-105840000D01*
X126730000Y-103760000D02*
X126730000Y-101585000D01*
X126690000Y-108011000D02*
X126690000Y-105840000D01*
X126690000Y-103760000D02*
X126690000Y-101589000D01*
X126650000Y-108006000D02*
X126650000Y-105840000D01*
X126650000Y-103760000D02*
X126650000Y-101594000D01*
X126610000Y-108001000D02*
X126610000Y-105840000D01*
X126610000Y-103760000D02*
X126610000Y-101599000D01*
X126570000Y-107995000D02*
X126570000Y-105840000D01*
X126570000Y-103760000D02*
X126570000Y-101605000D01*
X126530000Y-107989000D02*
X126530000Y-105840000D01*
X126530000Y-103760000D02*
X126530000Y-101611000D01*
X126490000Y-107982000D02*
X126490000Y-105840000D01*
X126490000Y-103760000D02*
X126490000Y-101618000D01*
X126450000Y-107975000D02*
X126450000Y-105840000D01*
X126450000Y-103760000D02*
X126450000Y-101625000D01*
X126410000Y-107967000D02*
X126410000Y-105840000D01*
X126410000Y-103760000D02*
X126410000Y-101633000D01*
X126370000Y-107959000D02*
X126370000Y-105840000D01*
X126370000Y-103760000D02*
X126370000Y-101641000D01*
X126329000Y-107950000D02*
X126329000Y-105840000D01*
X126329000Y-103760000D02*
X126329000Y-101650000D01*
X126289000Y-107941000D02*
X126289000Y-105840000D01*
X126289000Y-103760000D02*
X126289000Y-101659000D01*
X126249000Y-107931000D02*
X126249000Y-105840000D01*
X126249000Y-103760000D02*
X126249000Y-101669000D01*
X126209000Y-107921000D02*
X126209000Y-105840000D01*
X126209000Y-103760000D02*
X126209000Y-101679000D01*
X126169000Y-107910000D02*
X126169000Y-105840000D01*
X126169000Y-103760000D02*
X126169000Y-101690000D01*
X126129000Y-107898000D02*
X126129000Y-105840000D01*
X126129000Y-103760000D02*
X126129000Y-101702000D01*
X126089000Y-107886000D02*
X126089000Y-105840000D01*
X126089000Y-103760000D02*
X126089000Y-101714000D01*
X126049000Y-107874000D02*
X126049000Y-105840000D01*
X126049000Y-103760000D02*
X126049000Y-101726000D01*
X126009000Y-107861000D02*
X126009000Y-105840000D01*
X126009000Y-103760000D02*
X126009000Y-101739000D01*
X125969000Y-107847000D02*
X125969000Y-105840000D01*
X125969000Y-103760000D02*
X125969000Y-101753000D01*
X125929000Y-107833000D02*
X125929000Y-105840000D01*
X125929000Y-103760000D02*
X125929000Y-101767000D01*
X125889000Y-107818000D02*
X125889000Y-105840000D01*
X125889000Y-103760000D02*
X125889000Y-101782000D01*
X125849000Y-107802000D02*
X125849000Y-105840000D01*
X125849000Y-103760000D02*
X125849000Y-101798000D01*
X125809000Y-107786000D02*
X125809000Y-105840000D01*
X125809000Y-103760000D02*
X125809000Y-101814000D01*
X125769000Y-107770000D02*
X125769000Y-105840000D01*
X125769000Y-103760000D02*
X125769000Y-101830000D01*
X125729000Y-107752000D02*
X125729000Y-105840000D01*
X125729000Y-103760000D02*
X125729000Y-101848000D01*
X125689000Y-107734000D02*
X125689000Y-105840000D01*
X125689000Y-103760000D02*
X125689000Y-101866000D01*
X125649000Y-107716000D02*
X125649000Y-105840000D01*
X125649000Y-103760000D02*
X125649000Y-101884000D01*
X125609000Y-107696000D02*
X125609000Y-105840000D01*
X125609000Y-103760000D02*
X125609000Y-101904000D01*
X125569000Y-107676000D02*
X125569000Y-105840000D01*
X125569000Y-103760000D02*
X125569000Y-101924000D01*
X125529000Y-107656000D02*
X125529000Y-105840000D01*
X125529000Y-103760000D02*
X125529000Y-101944000D01*
X125489000Y-107634000D02*
X125489000Y-105840000D01*
X125489000Y-103760000D02*
X125489000Y-101966000D01*
X125449000Y-107612000D02*
X125449000Y-105840000D01*
X125449000Y-103760000D02*
X125449000Y-101988000D01*
X125409000Y-107590000D02*
X125409000Y-105840000D01*
X125409000Y-103760000D02*
X125409000Y-102010000D01*
X125369000Y-107566000D02*
X125369000Y-105840000D01*
X125369000Y-103760000D02*
X125369000Y-102034000D01*
X125329000Y-107542000D02*
X125329000Y-105840000D01*
X125329000Y-103760000D02*
X125329000Y-102058000D01*
X125289000Y-107516000D02*
X125289000Y-105840000D01*
X125289000Y-103760000D02*
X125289000Y-102084000D01*
X125249000Y-107490000D02*
X125249000Y-105840000D01*
X125249000Y-103760000D02*
X125249000Y-102110000D01*
X125209000Y-107464000D02*
X125209000Y-105840000D01*
X125209000Y-103760000D02*
X125209000Y-102136000D01*
X125169000Y-107436000D02*
X125169000Y-105840000D01*
X125169000Y-103760000D02*
X125169000Y-102164000D01*
X125129000Y-107407000D02*
X125129000Y-105840000D01*
X125129000Y-103760000D02*
X125129000Y-102193000D01*
X125089000Y-107378000D02*
X125089000Y-105840000D01*
X125089000Y-103760000D02*
X125089000Y-102222000D01*
X125049000Y-107348000D02*
X125049000Y-105840000D01*
X125049000Y-103760000D02*
X125049000Y-102252000D01*
X125009000Y-107316000D02*
X125009000Y-105840000D01*
X125009000Y-103760000D02*
X125009000Y-102284000D01*
X124969000Y-107284000D02*
X124969000Y-105840000D01*
X124969000Y-103760000D02*
X124969000Y-102316000D01*
X124929000Y-107250000D02*
X124929000Y-105840000D01*
X124929000Y-103760000D02*
X124929000Y-102350000D01*
X124889000Y-107216000D02*
X124889000Y-105840000D01*
X124889000Y-103760000D02*
X124889000Y-102384000D01*
X124849000Y-107180000D02*
X124849000Y-105840000D01*
X124849000Y-103760000D02*
X124849000Y-102420000D01*
X124809000Y-107143000D02*
X124809000Y-105840000D01*
X124809000Y-103760000D02*
X124809000Y-102457000D01*
X124769000Y-107105000D02*
X124769000Y-105840000D01*
X124769000Y-103760000D02*
X124769000Y-102495000D01*
X124729000Y-107065000D02*
X124729000Y-102535000D01*
X124689000Y-107024000D02*
X124689000Y-102576000D01*
X124649000Y-106982000D02*
X124649000Y-102618000D01*
X124609000Y-106937000D02*
X124609000Y-102663000D01*
X124569000Y-106892000D02*
X124569000Y-102708000D01*
X124529000Y-106844000D02*
X124529000Y-102756000D01*
X124489000Y-106795000D02*
X124489000Y-102805000D01*
X124449000Y-106744000D02*
X124449000Y-102856000D01*
X124409000Y-106690000D02*
X124409000Y-102910000D01*
X124369000Y-106634000D02*
X124369000Y-102966000D01*
X124329000Y-106576000D02*
X124329000Y-103024000D01*
X124289000Y-106514000D02*
X124289000Y-103086000D01*
X124249000Y-106450000D02*
X124249000Y-103150000D01*
X124209000Y-106381000D02*
X124209000Y-103219000D01*
X124169000Y-106309000D02*
X124169000Y-103291000D01*
X124129000Y-106232000D02*
X124129000Y-103368000D01*
X124089000Y-106150000D02*
X124089000Y-103450000D01*
X124049000Y-106062000D02*
X124049000Y-103538000D01*
X124009000Y-105965000D02*
X124009000Y-103635000D01*
X123969000Y-105859000D02*
X123969000Y-103741000D01*
X123929000Y-105740000D02*
X123929000Y-103860000D01*
X123889000Y-105602000D02*
X123889000Y-103998000D01*
X123849000Y-105433000D02*
X123849000Y-104167000D01*
X123809000Y-105202000D02*
X123809000Y-104398000D01*
X130550241Y-106639000D02*
X129920241Y-106639000D01*
X130235241Y-106954000D02*
X130235241Y-106324000D01*
X109090000Y-84960000D02*
X109090000Y-97790000D01*
X129670000Y-84960000D02*
X109090000Y-84960000D01*
X129670000Y-100460000D02*
X129670000Y-84960000D01*
X111760000Y-100460000D02*
X129670000Y-100460000D01*
X111760000Y-97790000D02*
X111760000Y-100460000D01*
X109090000Y-97790000D02*
X111760000Y-97790000D01*
X109090000Y-100460000D02*
X110490000Y-100460000D01*
X109090000Y-99060000D02*
X109090000Y-100460000D01*
X111760000Y-97790000D02*
X129670000Y-97790000D01*
X109090000Y-87630000D02*
X129670000Y-87630000D01*
X85050000Y-102870000D02*
G75*
G03*
X85050000Y-102870000I-2500000J0D01*
G01*
X79990000Y-101325000D02*
X79990000Y-104415000D01*
X85540000Y-102869538D02*
G75*
G02*
X79990000Y-104414830I-2990000J-462D01*
G01*
X85540000Y-102870462D02*
G75*
G03*
X79990000Y-101325170I-2990000J462D01*
G01*
X80532500Y-81025276D02*
X80532500Y-81534724D01*
X79487500Y-81025276D02*
X79487500Y-81534724D01*
X85612500Y-81025276D02*
X85612500Y-81534724D01*
X84567500Y-81025276D02*
X84567500Y-81534724D01*
X83072500Y-81025276D02*
X83072500Y-81534724D01*
X82027500Y-81025276D02*
X82027500Y-81534724D01*
X92830000Y-111080000D02*
X92830000Y-108880000D01*
X92830000Y-108880000D02*
X94050000Y-108880000D01*
X94050000Y-108880000D02*
X94050000Y-117300000D01*
X94050000Y-117300000D02*
X86330000Y-117300000D01*
X86330000Y-117300000D02*
X86330000Y-108880000D01*
X86330000Y-108880000D02*
X87550000Y-108880000D01*
X87550000Y-108880000D02*
X87550000Y-111080000D01*
X94050000Y-116080000D02*
X92830000Y-116080000D01*
X92830000Y-116080000D02*
X92830000Y-111080000D01*
X92830000Y-111080000D02*
X94050000Y-111080000D01*
X86330000Y-116080000D02*
X87550000Y-116080000D01*
X87550000Y-116080000D02*
X87550000Y-111080000D01*
X87550000Y-111080000D02*
X86330000Y-111080000D01*
X92830000Y-112080000D02*
X87550000Y-112080000D01*
X91440000Y-112080000D02*
X91760000Y-112080000D01*
X91760000Y-112080000D02*
X91760000Y-115500000D01*
X91760000Y-115500000D02*
X91440000Y-115580000D01*
X91440000Y-115580000D02*
X91120000Y-115500000D01*
X91120000Y-115500000D02*
X91120000Y-112080000D01*
X91120000Y-112080000D02*
X91440000Y-112080000D01*
X90270000Y-111080000D02*
X90110000Y-111080000D01*
X88940000Y-112080000D02*
X89260000Y-112080000D01*
X89260000Y-112080000D02*
X89260000Y-115500000D01*
X89260000Y-115500000D02*
X88940000Y-115580000D01*
X88940000Y-115580000D02*
X88620000Y-115500000D01*
X88620000Y-115500000D02*
X88620000Y-112080000D01*
X88620000Y-112080000D02*
X88940000Y-112080000D01*
X91440000Y-108990000D02*
X91740000Y-108390000D01*
X91740000Y-108390000D02*
X91140000Y-108390000D01*
X91140000Y-108390000D02*
X91440000Y-108990000D01*
D13*
X122175000Y-72625000D02*
X123575000Y-72625000D01*
X122175000Y-67525000D02*
X118025000Y-67525000D01*
X122175000Y-72675000D02*
X118025000Y-72675000D01*
X122175000Y-67525000D02*
X122175000Y-67670000D01*
X118025000Y-67525000D02*
X118025000Y-67670000D01*
X118025000Y-72675000D02*
X118025000Y-72530000D01*
X122175000Y-72675000D02*
X122175000Y-72625000D01*
D12*
X114180000Y-69190000D02*
X114620000Y-69190000D01*
X114180000Y-70210000D02*
X114620000Y-70210000D01*
X112370000Y-76130000D02*
X112370000Y-74800000D01*
X113700000Y-76130000D02*
X112370000Y-76130000D01*
X114970000Y-76130000D02*
X114970000Y-73470000D01*
X114970000Y-73470000D02*
X117570000Y-73470000D01*
X114970000Y-76130000D02*
X117570000Y-76130000D01*
X117570000Y-76130000D02*
X117570000Y-73470000D01*
X93454000Y-73650000D02*
X91994000Y-73650000D01*
X93454000Y-70490000D02*
X91294000Y-70490000D01*
X93454000Y-70490000D02*
X93454000Y-71420000D01*
X93454000Y-73650000D02*
X93454000Y-72720000D01*
X114180000Y-71910000D02*
X114620000Y-71910000D01*
X114180000Y-70890000D02*
X114620000Y-70890000D01*
X89710000Y-76380000D02*
X89710000Y-76820000D01*
X88690000Y-76380000D02*
X88690000Y-76820000D01*
X86390000Y-76380000D02*
X86390000Y-76820000D01*
X87410000Y-76380000D02*
X87410000Y-76820000D01*
X119880000Y-73490000D02*
X120320000Y-73490000D01*
X119880000Y-74510000D02*
X120320000Y-74510000D01*
X114180000Y-68610000D02*
X114620000Y-68610000D01*
X114180000Y-67590000D02*
X114620000Y-67590000D01*
X98229000Y-68370000D02*
X109950000Y-68370000D01*
X98229000Y-76990000D02*
X109950000Y-76990000D01*
X98229000Y-68370000D02*
X98229000Y-76990000D01*
X109950000Y-68370000D02*
X109950000Y-76990000D01*
X97989000Y-75990000D02*
X97989000Y-77230000D01*
X97989000Y-77230000D02*
X99229000Y-77230000D01*
X79990000Y-86085000D02*
X79990000Y-89175000D01*
X85050000Y-87630000D02*
G75*
G03*
X85050000Y-87630000I-2500000J0D01*
G01*
X85540000Y-87630462D02*
G75*
G03*
X79990000Y-86085170I-2990000J462D01*
G01*
X85540000Y-87629538D02*
G75*
G02*
X79990000Y-89174830I-2990000J-462D01*
G01*
X79990000Y-93705000D02*
X79990000Y-96795000D01*
X85050000Y-95250000D02*
G75*
G03*
X85050000Y-95250000I-2500000J0D01*
G01*
X85540000Y-95250462D02*
G75*
G03*
X79990000Y-93705170I-2990000J462D01*
G01*
X85540000Y-95249538D02*
G75*
G02*
X79990000Y-96794830I-2990000J-462D01*
G01*
X124580000Y-111080000D02*
X124580000Y-108880000D01*
X124580000Y-108880000D02*
X125800000Y-108880000D01*
X125800000Y-108880000D02*
X125800000Y-117300000D01*
X125800000Y-117300000D02*
X113080000Y-117300000D01*
X113080000Y-117300000D02*
X113080000Y-108880000D01*
X113080000Y-108880000D02*
X114300000Y-108880000D01*
X114300000Y-108880000D02*
X114300000Y-111080000D01*
X125800000Y-116080000D02*
X124580000Y-116080000D01*
X124580000Y-116080000D02*
X124580000Y-111080000D01*
X124580000Y-111080000D02*
X125800000Y-111080000D01*
X113080000Y-116080000D02*
X114300000Y-116080000D01*
X114300000Y-116080000D02*
X114300000Y-111080000D01*
X114300000Y-111080000D02*
X113080000Y-111080000D01*
X124580000Y-112080000D02*
X114300000Y-112080000D01*
X123190000Y-112080000D02*
X123510000Y-112080000D01*
X123510000Y-112080000D02*
X123510000Y-115500000D01*
X123510000Y-115500000D02*
X123190000Y-115580000D01*
X123190000Y-115580000D02*
X122870000Y-115500000D01*
X122870000Y-115500000D02*
X122870000Y-112080000D01*
X122870000Y-112080000D02*
X123190000Y-112080000D01*
X122020000Y-111080000D02*
X121860000Y-111080000D01*
X120690000Y-112080000D02*
X121010000Y-112080000D01*
X121010000Y-112080000D02*
X121010000Y-115500000D01*
X121010000Y-115500000D02*
X120690000Y-115580000D01*
X120690000Y-115580000D02*
X120370000Y-115500000D01*
X120370000Y-115500000D02*
X120370000Y-112080000D01*
X120370000Y-112080000D02*
X120690000Y-112080000D01*
X119520000Y-111080000D02*
X119360000Y-111080000D01*
X118190000Y-112080000D02*
X118510000Y-112080000D01*
X118510000Y-112080000D02*
X118510000Y-115500000D01*
X118510000Y-115500000D02*
X118190000Y-115580000D01*
X118190000Y-115580000D02*
X117870000Y-115500000D01*
X117870000Y-115500000D02*
X117870000Y-112080000D01*
X117870000Y-112080000D02*
X118190000Y-112080000D01*
X117020000Y-111080000D02*
X116860000Y-111080000D01*
X115690000Y-112080000D02*
X116010000Y-112080000D01*
X116010000Y-112080000D02*
X116010000Y-115500000D01*
X116010000Y-115500000D02*
X115690000Y-115580000D01*
X115690000Y-115580000D02*
X115370000Y-115500000D01*
X115370000Y-115500000D02*
X115370000Y-112080000D01*
X115370000Y-112080000D02*
X115690000Y-112080000D01*
X123190000Y-108990000D02*
X123490000Y-108390000D01*
X123490000Y-108390000D02*
X122890000Y-108390000D01*
X122890000Y-108390000D02*
X123190000Y-108990000D01*
X135060000Y-71420000D02*
X135660000Y-71120000D01*
X135060000Y-70820000D02*
X135060000Y-71420000D01*
X135660000Y-71120000D02*
X135060000Y-70820000D01*
X138750000Y-78940000D02*
X138750000Y-78620000D01*
X142170000Y-78940000D02*
X138750000Y-78940000D01*
X142250000Y-78620000D02*
X142170000Y-78940000D01*
X142170000Y-78300000D02*
X142250000Y-78620000D01*
X138750000Y-78300000D02*
X142170000Y-78300000D01*
X138750000Y-78620000D02*
X138750000Y-78300000D01*
X137750000Y-77290000D02*
X137750000Y-77450000D01*
X138750000Y-76440000D02*
X138750000Y-76120000D01*
X142170000Y-76440000D02*
X138750000Y-76440000D01*
X142250000Y-76120000D02*
X142170000Y-76440000D01*
X142170000Y-75800000D02*
X142250000Y-76120000D01*
X138750000Y-75800000D02*
X142170000Y-75800000D01*
X138750000Y-76120000D02*
X138750000Y-75800000D01*
X137750000Y-74790000D02*
X137750000Y-74950000D01*
X138750000Y-73940000D02*
X138750000Y-73620000D01*
X142170000Y-73940000D02*
X138750000Y-73940000D01*
X142250000Y-73620000D02*
X142170000Y-73940000D01*
X142170000Y-73300000D02*
X142250000Y-73620000D01*
X138750000Y-73300000D02*
X142170000Y-73300000D01*
X138750000Y-73620000D02*
X138750000Y-73300000D01*
X137750000Y-72290000D02*
X137750000Y-72450000D01*
X138750000Y-71440000D02*
X138750000Y-71120000D01*
X142170000Y-71440000D02*
X138750000Y-71440000D01*
X142250000Y-71120000D02*
X142170000Y-71440000D01*
X142170000Y-70800000D02*
X142250000Y-71120000D01*
X138750000Y-70800000D02*
X142170000Y-70800000D01*
X138750000Y-71120000D02*
X138750000Y-70800000D01*
X138750000Y-69730000D02*
X138750000Y-80010000D01*
X137750000Y-80010000D02*
X137750000Y-81230000D01*
X142750000Y-80010000D02*
X137750000Y-80010000D01*
X142750000Y-81230000D02*
X142750000Y-80010000D01*
X137750000Y-69730000D02*
X137750000Y-68510000D01*
X142750000Y-69730000D02*
X137750000Y-69730000D01*
X142750000Y-68510000D02*
X142750000Y-69730000D01*
X135550000Y-80010000D02*
X137750000Y-80010000D01*
X135550000Y-81230000D02*
X135550000Y-80010000D01*
X143970000Y-81230000D02*
X135550000Y-81230000D01*
X143970000Y-68510000D02*
X143970000Y-81230000D01*
X135550000Y-68510000D02*
X143970000Y-68510000D01*
X135550000Y-69730000D02*
X135550000Y-68510000D01*
X137750000Y-69730000D02*
X135550000Y-69730000D01*
X100030000Y-108390000D02*
X100330000Y-108990000D01*
X100630000Y-108390000D02*
X100030000Y-108390000D01*
X100330000Y-108990000D02*
X100630000Y-108390000D01*
X97510000Y-112080000D02*
X97830000Y-112080000D01*
X97510000Y-115500000D02*
X97510000Y-112080000D01*
X97830000Y-115580000D02*
X97510000Y-115500000D01*
X98150000Y-115500000D02*
X97830000Y-115580000D01*
X98150000Y-112080000D02*
X98150000Y-115500000D01*
X97830000Y-112080000D02*
X98150000Y-112080000D01*
X99160000Y-111080000D02*
X99000000Y-111080000D01*
X100010000Y-112080000D02*
X100330000Y-112080000D01*
X100010000Y-115500000D02*
X100010000Y-112080000D01*
X100330000Y-115580000D02*
X100010000Y-115500000D01*
X100650000Y-115500000D02*
X100330000Y-115580000D01*
X100650000Y-112080000D02*
X100650000Y-115500000D01*
X100330000Y-112080000D02*
X100650000Y-112080000D01*
X101720000Y-112080000D02*
X96440000Y-112080000D01*
X96440000Y-111080000D02*
X95220000Y-111080000D01*
X96440000Y-116080000D02*
X96440000Y-111080000D01*
X95220000Y-116080000D02*
X96440000Y-116080000D01*
X101720000Y-111080000D02*
X102940000Y-111080000D01*
X101720000Y-116080000D02*
X101720000Y-111080000D01*
X102940000Y-116080000D02*
X101720000Y-116080000D01*
X96440000Y-108880000D02*
X96440000Y-111080000D01*
X95220000Y-108880000D02*
X96440000Y-108880000D01*
X95220000Y-117300000D02*
X95220000Y-108880000D01*
X102940000Y-117300000D02*
X95220000Y-117300000D01*
X102940000Y-108880000D02*
X102940000Y-117300000D01*
X101720000Y-108880000D02*
X102940000Y-108880000D01*
X101720000Y-111080000D02*
X101720000Y-108880000D01*
X133590000Y-111090000D02*
X133590000Y-108890000D01*
X133590000Y-108890000D02*
X134810000Y-108890000D01*
X134810000Y-108890000D02*
X134810000Y-117310000D01*
X134810000Y-117310000D02*
X127090000Y-117310000D01*
X127090000Y-117310000D02*
X127090000Y-108890000D01*
X127090000Y-108890000D02*
X128310000Y-108890000D01*
X128310000Y-108890000D02*
X128310000Y-111090000D01*
X134810000Y-116090000D02*
X133590000Y-116090000D01*
X133590000Y-116090000D02*
X133590000Y-111090000D01*
X133590000Y-111090000D02*
X134810000Y-111090000D01*
X127090000Y-116090000D02*
X128310000Y-116090000D01*
X128310000Y-116090000D02*
X128310000Y-111090000D01*
X128310000Y-111090000D02*
X127090000Y-111090000D01*
X133590000Y-112090000D02*
X128310000Y-112090000D01*
X132200000Y-112090000D02*
X132520000Y-112090000D01*
X132520000Y-112090000D02*
X132520000Y-115510000D01*
X132520000Y-115510000D02*
X132200000Y-115590000D01*
X132200000Y-115590000D02*
X131880000Y-115510000D01*
X131880000Y-115510000D02*
X131880000Y-112090000D01*
X131880000Y-112090000D02*
X132200000Y-112090000D01*
X131030000Y-111090000D02*
X130870000Y-111090000D01*
X129700000Y-112090000D02*
X130020000Y-112090000D01*
X130020000Y-112090000D02*
X130020000Y-115510000D01*
X130020000Y-115510000D02*
X129700000Y-115590000D01*
X129700000Y-115590000D02*
X129380000Y-115510000D01*
X129380000Y-115510000D02*
X129380000Y-112090000D01*
X129380000Y-112090000D02*
X129700000Y-112090000D01*
X132200000Y-109000000D02*
X132500000Y-108400000D01*
X132500000Y-108400000D02*
X131900000Y-108400000D01*
X131900000Y-108400000D02*
X132200000Y-109000000D01*
X108900000Y-108390000D02*
X109200000Y-108990000D01*
X109500000Y-108390000D02*
X108900000Y-108390000D01*
X109200000Y-108990000D02*
X109500000Y-108390000D01*
X106380000Y-112080000D02*
X106700000Y-112080000D01*
X106380000Y-115500000D02*
X106380000Y-112080000D01*
X106700000Y-115580000D02*
X106380000Y-115500000D01*
X107020000Y-115500000D02*
X106700000Y-115580000D01*
X107020000Y-112080000D02*
X107020000Y-115500000D01*
X106700000Y-112080000D02*
X107020000Y-112080000D01*
X108030000Y-111080000D02*
X107870000Y-111080000D01*
X108880000Y-112080000D02*
X109200000Y-112080000D01*
X108880000Y-115500000D02*
X108880000Y-112080000D01*
X109200000Y-115580000D02*
X108880000Y-115500000D01*
X109520000Y-115500000D02*
X109200000Y-115580000D01*
X109520000Y-112080000D02*
X109520000Y-115500000D01*
X109200000Y-112080000D02*
X109520000Y-112080000D01*
X110590000Y-112080000D02*
X105310000Y-112080000D01*
X105310000Y-111080000D02*
X104090000Y-111080000D01*
X105310000Y-116080000D02*
X105310000Y-111080000D01*
X104090000Y-116080000D02*
X105310000Y-116080000D01*
X110590000Y-111080000D02*
X111810000Y-111080000D01*
X110590000Y-116080000D02*
X110590000Y-111080000D01*
X111810000Y-116080000D02*
X110590000Y-116080000D01*
X105310000Y-108880000D02*
X105310000Y-111080000D01*
X104090000Y-108880000D02*
X105310000Y-108880000D01*
X104090000Y-117300000D02*
X104090000Y-108880000D01*
X111810000Y-117300000D02*
X104090000Y-117300000D01*
X111810000Y-108880000D02*
X111810000Y-117300000D01*
X110590000Y-108880000D02*
X111810000Y-108880000D01*
X110590000Y-111080000D02*
X110590000Y-108880000D01*
X138550000Y-98016000D02*
X147050000Y-98016000D01*
X147050000Y-98016000D02*
X147050000Y-107216000D01*
X147050000Y-107216000D02*
X132350000Y-107216000D01*
X132350000Y-100116000D02*
X132350000Y-98016000D01*
X132350000Y-98016000D02*
X134150000Y-98016000D01*
X132050000Y-105816000D02*
X132050000Y-107516000D01*
X132050000Y-107516000D02*
X133650000Y-107516000D01*
X132350000Y-107216000D02*
X132350000Y-105116000D01*
X89000000Y-71490000D02*
X86550000Y-71490000D01*
X87200000Y-74710000D02*
X89000000Y-74710000D01*
D13*
X122233333Y-105057142D02*
X122185714Y-105104761D01*
X122042857Y-105152380D01*
X121947619Y-105152380D01*
X121804761Y-105104761D01*
X121709523Y-105009523D01*
X121661904Y-104914285D01*
X121614285Y-104723809D01*
X121614285Y-104580952D01*
X121661904Y-104390476D01*
X121709523Y-104295238D01*
X121804761Y-104200000D01*
X121947619Y-104152380D01*
X122042857Y-104152380D01*
X122185714Y-104200000D01*
X122233333Y-104247619D01*
X123185714Y-105152380D02*
X122614285Y-105152380D01*
X122900000Y-105152380D02*
X122900000Y-104152380D01*
X122804761Y-104295238D01*
X122709523Y-104390476D01*
X122614285Y-104438095D01*
X108166666Y-90314285D02*
X108166666Y-89838095D01*
X108452380Y-90409523D02*
X107452380Y-90076190D01*
X108452380Y-89742857D01*
X108452380Y-88885714D02*
X108452380Y-89457142D01*
X108452380Y-89171428D02*
X107452380Y-89171428D01*
X107595238Y-89266666D01*
X107690476Y-89361904D01*
X107738095Y-89457142D01*
X81811904Y-99362380D02*
X81811904Y-98362380D01*
X82050000Y-98362380D01*
X82192857Y-98410000D01*
X82288095Y-98505238D01*
X82335714Y-98600476D01*
X82383333Y-98790952D01*
X82383333Y-98933809D01*
X82335714Y-99124285D01*
X82288095Y-99219523D01*
X82192857Y-99314761D01*
X82050000Y-99362380D01*
X81811904Y-99362380D01*
X82764285Y-98457619D02*
X82811904Y-98410000D01*
X82907142Y-98362380D01*
X83145238Y-98362380D01*
X83240476Y-98410000D01*
X83288095Y-98457619D01*
X83335714Y-98552857D01*
X83335714Y-98648095D01*
X83288095Y-98790952D01*
X82716666Y-99362380D01*
X83335714Y-99362380D01*
X81892380Y-81446666D02*
X81416190Y-81780000D01*
X81892380Y-82018095D02*
X80892380Y-82018095D01*
X80892380Y-81637142D01*
X80940000Y-81541904D01*
X80987619Y-81494285D01*
X81082857Y-81446666D01*
X81225714Y-81446666D01*
X81320952Y-81494285D01*
X81368571Y-81541904D01*
X81416190Y-81637142D01*
X81416190Y-82018095D01*
X80987619Y-81065714D02*
X80940000Y-81018095D01*
X80892380Y-80922857D01*
X80892380Y-80684761D01*
X80940000Y-80589523D01*
X80987619Y-80541904D01*
X81082857Y-80494285D01*
X81178095Y-80494285D01*
X81320952Y-80541904D01*
X81892380Y-81113333D01*
X81892380Y-80494285D01*
X86972380Y-81446666D02*
X86496190Y-81780000D01*
X86972380Y-82018095D02*
X85972380Y-82018095D01*
X85972380Y-81637142D01*
X86020000Y-81541904D01*
X86067619Y-81494285D01*
X86162857Y-81446666D01*
X86305714Y-81446666D01*
X86400952Y-81494285D01*
X86448571Y-81541904D01*
X86496190Y-81637142D01*
X86496190Y-82018095D01*
X85972380Y-81113333D02*
X85972380Y-80494285D01*
X86353333Y-80827619D01*
X86353333Y-80684761D01*
X86400952Y-80589523D01*
X86448571Y-80541904D01*
X86543809Y-80494285D01*
X86781904Y-80494285D01*
X86877142Y-80541904D01*
X86924761Y-80589523D01*
X86972380Y-80684761D01*
X86972380Y-80970476D01*
X86924761Y-81065714D01*
X86877142Y-81113333D01*
X84432380Y-81446666D02*
X83956190Y-81780000D01*
X84432380Y-82018095D02*
X83432380Y-82018095D01*
X83432380Y-81637142D01*
X83480000Y-81541904D01*
X83527619Y-81494285D01*
X83622857Y-81446666D01*
X83765714Y-81446666D01*
X83860952Y-81494285D01*
X83908571Y-81541904D01*
X83956190Y-81637142D01*
X83956190Y-82018095D01*
X84432380Y-80494285D02*
X84432380Y-81065714D01*
X84432380Y-80780000D02*
X83432380Y-80780000D01*
X83575238Y-80875238D01*
X83670476Y-80970476D01*
X83718095Y-81065714D01*
X122738095Y-72952380D02*
X122738095Y-73761904D01*
X122785714Y-73857142D01*
X122833333Y-73904761D01*
X122928571Y-73952380D01*
X123119047Y-73952380D01*
X123214285Y-73904761D01*
X123261904Y-73857142D01*
X123309523Y-73761904D01*
X123309523Y-72952380D01*
X123738095Y-73047619D02*
X123785714Y-73000000D01*
X123880952Y-72952380D01*
X124119047Y-72952380D01*
X124214285Y-73000000D01*
X124261904Y-73047619D01*
X124309523Y-73142857D01*
X124309523Y-73238095D01*
X124261904Y-73380952D01*
X123690476Y-73952380D01*
X124309523Y-73952380D01*
X111583333Y-70202380D02*
X111250000Y-69726190D01*
X111011904Y-70202380D02*
X111011904Y-69202380D01*
X111392857Y-69202380D01*
X111488095Y-69250000D01*
X111535714Y-69297619D01*
X111583333Y-69392857D01*
X111583333Y-69535714D01*
X111535714Y-69630952D01*
X111488095Y-69678571D01*
X111392857Y-69726190D01*
X111011904Y-69726190D01*
X112154761Y-69630952D02*
X112059523Y-69583333D01*
X112011904Y-69535714D01*
X111964285Y-69440476D01*
X111964285Y-69392857D01*
X112011904Y-69297619D01*
X112059523Y-69250000D01*
X112154761Y-69202380D01*
X112345238Y-69202380D01*
X112440476Y-69250000D01*
X112488095Y-69297619D01*
X112535714Y-69392857D01*
X112535714Y-69440476D01*
X112488095Y-69535714D01*
X112440476Y-69583333D01*
X112345238Y-69630952D01*
X112154761Y-69630952D01*
X112059523Y-69678571D01*
X112011904Y-69726190D01*
X111964285Y-69821428D01*
X111964285Y-70011904D01*
X112011904Y-70107142D01*
X112059523Y-70154761D01*
X112154761Y-70202380D01*
X112345238Y-70202380D01*
X112440476Y-70154761D01*
X112488095Y-70107142D01*
X112535714Y-70011904D01*
X112535714Y-69821428D01*
X112488095Y-69726190D01*
X112440476Y-69678571D01*
X112345238Y-69630952D01*
X110822380Y-75133333D02*
X111536666Y-75133333D01*
X111679523Y-75180952D01*
X111774761Y-75276190D01*
X111822380Y-75419047D01*
X111822380Y-75514285D01*
X111822380Y-74609523D02*
X111822380Y-74419047D01*
X111774761Y-74323809D01*
X111727142Y-74276190D01*
X111584285Y-74180952D01*
X111393809Y-74133333D01*
X111012857Y-74133333D01*
X110917619Y-74180952D01*
X110870000Y-74228571D01*
X110822380Y-74323809D01*
X110822380Y-74514285D01*
X110870000Y-74609523D01*
X110917619Y-74657142D01*
X111012857Y-74704761D01*
X111250952Y-74704761D01*
X111346190Y-74657142D01*
X111393809Y-74609523D01*
X111441428Y-74514285D01*
X111441428Y-74323809D01*
X111393809Y-74228571D01*
X111346190Y-74180952D01*
X111250952Y-74133333D01*
X92598761Y-70117619D02*
X92503523Y-70070000D01*
X92408285Y-69974761D01*
X92265428Y-69831904D01*
X92170190Y-69784285D01*
X92074952Y-69784285D01*
X92122571Y-70022380D02*
X92027333Y-69974761D01*
X91932095Y-69879523D01*
X91884476Y-69689047D01*
X91884476Y-69355714D01*
X91932095Y-69165238D01*
X92027333Y-69070000D01*
X92122571Y-69022380D01*
X92313047Y-69022380D01*
X92408285Y-69070000D01*
X92503523Y-69165238D01*
X92551142Y-69355714D01*
X92551142Y-69689047D01*
X92503523Y-69879523D01*
X92408285Y-69974761D01*
X92313047Y-70022380D01*
X92122571Y-70022380D01*
X93503523Y-70022380D02*
X92932095Y-70022380D01*
X93217809Y-70022380D02*
X93217809Y-69022380D01*
X93122571Y-69165238D01*
X93027333Y-69260476D01*
X92932095Y-69308095D01*
X110607142Y-71952380D02*
X110273809Y-71476190D01*
X110035714Y-71952380D02*
X110035714Y-70952380D01*
X110416666Y-70952380D01*
X110511904Y-71000000D01*
X110559523Y-71047619D01*
X110607142Y-71142857D01*
X110607142Y-71285714D01*
X110559523Y-71380952D01*
X110511904Y-71428571D01*
X110416666Y-71476190D01*
X110035714Y-71476190D01*
X110988095Y-71047619D02*
X111035714Y-71000000D01*
X111130952Y-70952380D01*
X111369047Y-70952380D01*
X111464285Y-71000000D01*
X111511904Y-71047619D01*
X111559523Y-71142857D01*
X111559523Y-71238095D01*
X111511904Y-71380952D01*
X110940476Y-71952380D01*
X111559523Y-71952380D01*
X112035714Y-71952380D02*
X112226190Y-71952380D01*
X112321428Y-71904761D01*
X112369047Y-71857142D01*
X112464285Y-71714285D01*
X112511904Y-71523809D01*
X112511904Y-71142857D01*
X112464285Y-71047619D01*
X112416666Y-71000000D01*
X112321428Y-70952380D01*
X112130952Y-70952380D01*
X112035714Y-71000000D01*
X111988095Y-71047619D01*
X111940476Y-71142857D01*
X111940476Y-71380952D01*
X111988095Y-71476190D01*
X112035714Y-71523809D01*
X112130952Y-71571428D01*
X112321428Y-71571428D01*
X112416666Y-71523809D01*
X112464285Y-71476190D01*
X112511904Y-71380952D01*
D14*
X90907142Y-77794571D02*
X90478571Y-78094571D01*
X90907142Y-78308857D02*
X90007142Y-78308857D01*
X90007142Y-77966000D01*
X90050000Y-77880285D01*
X90092857Y-77837428D01*
X90178571Y-77794571D01*
X90307142Y-77794571D01*
X90392857Y-77837428D01*
X90435714Y-77880285D01*
X90478571Y-77966000D01*
X90478571Y-78308857D01*
X90092857Y-77451714D02*
X90050000Y-77408857D01*
X90007142Y-77323142D01*
X90007142Y-77108857D01*
X90050000Y-77023142D01*
X90092857Y-76980285D01*
X90178571Y-76937428D01*
X90264285Y-76937428D01*
X90392857Y-76980285D01*
X90907142Y-77494571D01*
X90907142Y-76937428D01*
X90307142Y-76166000D02*
X90907142Y-76166000D01*
X89964285Y-76380285D02*
X90607142Y-76594571D01*
X90607142Y-76037428D01*
D13*
X85796380Y-77350857D02*
X85320190Y-77684190D01*
X85796380Y-77922285D02*
X84796380Y-77922285D01*
X84796380Y-77541333D01*
X84844000Y-77446095D01*
X84891619Y-77398476D01*
X84986857Y-77350857D01*
X85129714Y-77350857D01*
X85224952Y-77398476D01*
X85272571Y-77446095D01*
X85320190Y-77541333D01*
X85320190Y-77922285D01*
X84891619Y-76969904D02*
X84844000Y-76922285D01*
X84796380Y-76827047D01*
X84796380Y-76588952D01*
X84844000Y-76493714D01*
X84891619Y-76446095D01*
X84986857Y-76398476D01*
X85082095Y-76398476D01*
X85224952Y-76446095D01*
X85796380Y-77017523D01*
X85796380Y-76398476D01*
X84796380Y-76065142D02*
X84796380Y-75446095D01*
X85177333Y-75779428D01*
X85177333Y-75636571D01*
X85224952Y-75541333D01*
X85272571Y-75493714D01*
X85367809Y-75446095D01*
X85605904Y-75446095D01*
X85701142Y-75493714D01*
X85748761Y-75541333D01*
X85796380Y-75636571D01*
X85796380Y-75922285D01*
X85748761Y-76017523D01*
X85701142Y-76065142D01*
X119457142Y-75952380D02*
X119123809Y-75476190D01*
X118885714Y-75952380D02*
X118885714Y-74952380D01*
X119266666Y-74952380D01*
X119361904Y-75000000D01*
X119409523Y-75047619D01*
X119457142Y-75142857D01*
X119457142Y-75285714D01*
X119409523Y-75380952D01*
X119361904Y-75428571D01*
X119266666Y-75476190D01*
X118885714Y-75476190D01*
X120409523Y-75952380D02*
X119838095Y-75952380D01*
X120123809Y-75952380D02*
X120123809Y-74952380D01*
X120028571Y-75095238D01*
X119933333Y-75190476D01*
X119838095Y-75238095D01*
X121361904Y-75952380D02*
X120790476Y-75952380D01*
X121076190Y-75952380D02*
X121076190Y-74952380D01*
X120980952Y-75095238D01*
X120885714Y-75190476D01*
X120790476Y-75238095D01*
X111583333Y-68452380D02*
X111250000Y-67976190D01*
X111011904Y-68452380D02*
X111011904Y-67452380D01*
X111392857Y-67452380D01*
X111488095Y-67500000D01*
X111535714Y-67547619D01*
X111583333Y-67642857D01*
X111583333Y-67785714D01*
X111535714Y-67880952D01*
X111488095Y-67928571D01*
X111392857Y-67976190D01*
X111011904Y-67976190D01*
X112440476Y-67452380D02*
X112250000Y-67452380D01*
X112154761Y-67500000D01*
X112107142Y-67547619D01*
X112011904Y-67690476D01*
X111964285Y-67880952D01*
X111964285Y-68261904D01*
X112011904Y-68357142D01*
X112059523Y-68404761D01*
X112154761Y-68452380D01*
X112345238Y-68452380D01*
X112440476Y-68404761D01*
X112488095Y-68357142D01*
X112535714Y-68261904D01*
X112535714Y-68023809D01*
X112488095Y-67928571D01*
X112440476Y-67880952D01*
X112345238Y-67833333D01*
X112154761Y-67833333D01*
X112059523Y-67880952D01*
X112011904Y-67928571D01*
X111964285Y-68023809D01*
X81338095Y-64852380D02*
X81338095Y-63852380D01*
X81338095Y-64328571D02*
X81909523Y-64328571D01*
X81909523Y-64852380D02*
X81909523Y-63852380D01*
X82909523Y-64852380D02*
X82338095Y-64852380D01*
X82623809Y-64852380D02*
X82623809Y-63852380D01*
X82528571Y-63995238D01*
X82433333Y-64090476D01*
X82338095Y-64138095D01*
X139338095Y-64872380D02*
X139338095Y-63872380D01*
X139338095Y-64348571D02*
X139909523Y-64348571D01*
X139909523Y-64872380D02*
X139909523Y-63872380D01*
X140338095Y-63967619D02*
X140385714Y-63920000D01*
X140480952Y-63872380D01*
X140719047Y-63872380D01*
X140814285Y-63920000D01*
X140861904Y-63967619D01*
X140909523Y-64062857D01*
X140909523Y-64158095D01*
X140861904Y-64300952D01*
X140290476Y-64872380D01*
X140909523Y-64872380D01*
X81338095Y-113862380D02*
X81338095Y-112862380D01*
X81338095Y-113338571D02*
X81909523Y-113338571D01*
X81909523Y-113862380D02*
X81909523Y-112862380D01*
X82290476Y-112862380D02*
X82909523Y-112862380D01*
X82576190Y-113243333D01*
X82719047Y-113243333D01*
X82814285Y-113290952D01*
X82861904Y-113338571D01*
X82909523Y-113433809D01*
X82909523Y-113671904D01*
X82861904Y-113767142D01*
X82814285Y-113814761D01*
X82719047Y-113862380D01*
X82433333Y-113862380D01*
X82338095Y-113814761D01*
X82290476Y-113767142D01*
X139328095Y-113852380D02*
X139328095Y-112852380D01*
X139328095Y-113328571D02*
X139899523Y-113328571D01*
X139899523Y-113852380D02*
X139899523Y-112852380D01*
X140804285Y-113185714D02*
X140804285Y-113852380D01*
X140566190Y-112804761D02*
X140328095Y-113519047D01*
X140947142Y-113519047D01*
X103378095Y-66822380D02*
X103378095Y-67631904D01*
X103425714Y-67727142D01*
X103473333Y-67774761D01*
X103568571Y-67822380D01*
X103759047Y-67822380D01*
X103854285Y-67774761D01*
X103901904Y-67727142D01*
X103949523Y-67631904D01*
X103949523Y-66822380D01*
X104330476Y-66822380D02*
X104949523Y-66822380D01*
X104616190Y-67203333D01*
X104759047Y-67203333D01*
X104854285Y-67250952D01*
X104901904Y-67298571D01*
X104949523Y-67393809D01*
X104949523Y-67631904D01*
X104901904Y-67727142D01*
X104854285Y-67774761D01*
X104759047Y-67822380D01*
X104473333Y-67822380D01*
X104378095Y-67774761D01*
X104330476Y-67727142D01*
X81811904Y-84122380D02*
X81811904Y-83122380D01*
X82050000Y-83122380D01*
X82192857Y-83170000D01*
X82288095Y-83265238D01*
X82335714Y-83360476D01*
X82383333Y-83550952D01*
X82383333Y-83693809D01*
X82335714Y-83884285D01*
X82288095Y-83979523D01*
X82192857Y-84074761D01*
X82050000Y-84122380D01*
X81811904Y-84122380D01*
X83335714Y-84122380D02*
X82764285Y-84122380D01*
X83050000Y-84122380D02*
X83050000Y-83122380D01*
X82954761Y-83265238D01*
X82859523Y-83360476D01*
X82764285Y-83408095D01*
X81811904Y-91742380D02*
X81811904Y-90742380D01*
X82050000Y-90742380D01*
X82192857Y-90790000D01*
X82288095Y-90885238D01*
X82335714Y-90980476D01*
X82383333Y-91170952D01*
X82383333Y-91313809D01*
X82335714Y-91504285D01*
X82288095Y-91599523D01*
X82192857Y-91694761D01*
X82050000Y-91742380D01*
X81811904Y-91742380D01*
X82716666Y-90742380D02*
X83335714Y-90742380D01*
X83002380Y-91123333D01*
X83145238Y-91123333D01*
X83240476Y-91170952D01*
X83288095Y-91218571D01*
X83335714Y-91313809D01*
X83335714Y-91551904D01*
X83288095Y-91647142D01*
X83240476Y-91694761D01*
X83145238Y-91742380D01*
X82859523Y-91742380D01*
X82764285Y-91694761D01*
X82716666Y-91647142D01*
X130852380Y-99333333D02*
X131566666Y-99333333D01*
X131709523Y-99380952D01*
X131804761Y-99476190D01*
X131852380Y-99619047D01*
X131852380Y-99714285D01*
X131852380Y-98333333D02*
X131852380Y-98904761D01*
X131852380Y-98619047D02*
X130852380Y-98619047D01*
X130995238Y-98714285D01*
X131090476Y-98809523D01*
X131138095Y-98904761D01*
X88004761Y-70747619D02*
X87909523Y-70700000D01*
X87814285Y-70604761D01*
X87671428Y-70461904D01*
X87576190Y-70414285D01*
X87480952Y-70414285D01*
X87528571Y-70652380D02*
X87433333Y-70604761D01*
X87338095Y-70509523D01*
X87290476Y-70319047D01*
X87290476Y-69985714D01*
X87338095Y-69795238D01*
X87433333Y-69700000D01*
X87528571Y-69652380D01*
X87719047Y-69652380D01*
X87814285Y-69700000D01*
X87909523Y-69795238D01*
X87957142Y-69985714D01*
X87957142Y-70319047D01*
X87909523Y-70509523D01*
X87814285Y-70604761D01*
X87719047Y-70652380D01*
X87528571Y-70652380D01*
X88338095Y-69747619D02*
X88385714Y-69700000D01*
X88480952Y-69652380D01*
X88719047Y-69652380D01*
X88814285Y-69700000D01*
X88861904Y-69747619D01*
X88909523Y-69842857D01*
X88909523Y-69938095D01*
X88861904Y-70080952D01*
X88290476Y-70652380D01*
X88909523Y-70652380D01*
M02*
