M48
; DRILL file {KiCad 5.1.9} date Tue Feb 16 22:26:52 2021
; FORMAT={-:-/ absolute / inch / decimal}
; #@! TF.CreationDate,2021-02-16T22:26:52+01:00
; #@! TF.GenerationSoftware,Kicad,Pcbnew,5.1.9
; #@! TF.FileFunction,Plated,1,2,PTH
FMAT,2
INCH
T1C0.0079
T2C0.0315
T3C0.0354
T4C0.0374
T5C0.0394
%
G90
G05
T1
X3.15Y-3.125
X3.25Y-3.125
X3.35Y-3.125
T2
X4.35Y-3.4
X4.35Y-3.9
X4.45Y-3.4
X4.45Y-3.9
X4.55Y-3.4
X4.55Y-3.9
X4.65Y-3.4
X4.65Y-3.9
X4.75Y-3.4
X4.75Y-3.9
X4.85Y-3.4
X4.85Y-3.9
X4.95Y-3.4
X4.95Y-3.9
X4.9528Y-4.126
X5.05Y-3.4
X5.05Y-3.9
X5.0512Y-4.126
T3
X3.2Y-3.45
X3.2Y-3.75
X3.2Y-4.05
X3.3Y-3.45
X3.3Y-3.75
X3.3Y-4.05
T4
X4.5547Y-4.35
X4.6531Y-4.35
X4.7516Y-4.35
X4.85Y-4.35
X5.4Y-2.8
X5.4Y-2.8984
X5.4Y-2.9969
X5.4Y-3.0953
T5
X3.422Y-2.4823
X3.422Y-2.5823
X3.5016Y-4.35
X3.522Y-2.4823
X3.522Y-2.5823
X3.6Y-4.35
X3.622Y-2.4823
X3.622Y-2.5823
X3.722Y-2.4823
X3.722Y-2.5823
X3.822Y-2.4823
X3.822Y-2.5823
X3.8516Y-4.35
X3.922Y-2.4823
X3.922Y-2.5823
X3.95Y-4.35
X4.0Y-2.95
X4.022Y-2.4823
X4.022Y-2.5823
X4.1Y-2.95
X4.122Y-2.4823
X4.122Y-2.5823
X4.2Y-2.95
X4.2008Y-4.35
X4.222Y-2.4823
X4.222Y-2.5823
X4.2992Y-4.35
X4.322Y-2.4823
X4.322Y-2.5823
X4.422Y-2.4823
X4.422Y-2.5823
X4.4764Y-2.9449
X4.522Y-2.4823
X4.522Y-2.5823
X4.5764Y-2.9449
X4.622Y-2.4823
X4.622Y-2.5823
X4.722Y-2.4823
X4.722Y-2.5823
X4.822Y-2.4823
X4.822Y-2.5823
X4.922Y-2.4823
X4.922Y-2.5823
X5.022Y-2.4823
X5.022Y-2.5823
X5.1063Y-4.3504
X5.122Y-2.4823
X5.122Y-2.5823
X5.2047Y-4.3504
X5.222Y-2.4823
X5.222Y-2.5823
X5.322Y-2.4823
X5.322Y-2.5823
T2
G00X5.25Y-4.0912
M15
G01X5.25Y-3.9888
M16
G05
G00X5.4114Y-3.851
M15
G01X5.3248Y-3.851
M16
G05
G00X5.4783Y-4.0833
M15
G01X5.4783Y-3.9967
M16
G05
T0
M30
