G04 #@! TF.GenerationSoftware,KiCad,Pcbnew,5.1.9*
G04 #@! TF.CreationDate,2021-02-16T21:11:57+01:00*
G04 #@! TF.ProjectId,raspberrypi_hat,72617370-6265-4727-9279-70695f686174,rev?*
G04 #@! TF.SameCoordinates,Original*
G04 #@! TF.FileFunction,Soldermask,Bot*
G04 #@! TF.FilePolarity,Negative*
%FSLAX46Y46*%
G04 Gerber Fmt 4.6, Leading zero omitted, Abs format (unit mm)*
G04 Created by KiCad (PCBNEW 5.1.9) date 2021-02-16 21:11:57*
%MOMM*%
%LPD*%
G01*
G04 APERTURE LIST*
G04 #@! TA.AperFunction,Profile*
%ADD10C,0.100000*%
G04 #@! TD*
%ADD11O,1.800000X1.800000*%
%ADD12C,2.000000*%
%ADD13O,1.900000X2.200000*%
%ADD14O,1.900000X1.900000*%
%ADD15C,3.200000*%
%ADD16O,1.700000X2.500000*%
%ADD17O,1.900000X2.150000*%
%ADD18O,2.150000X1.900000*%
%ADD19O,4.200000X2.000000*%
%ADD20O,2.000000X4.200000*%
%ADD21C,1.800000*%
G04 APERTURE END LIST*
D10*
X78546356Y-63817611D02*
X78546361Y-113812375D01*
X78546356Y-63817611D02*
G75*
G02*
X81546356Y-60817611I3000000J0D01*
G01*
X140546356Y-60817611D02*
X81546356Y-60817611D01*
X140546356Y-60817611D02*
G75*
G02*
X143546356Y-63817611I0J-3000000D01*
G01*
X143546356Y-113817611D02*
X143546356Y-63817611D01*
X81546361Y-116812375D02*
G75*
G02*
X78546361Y-113812375I0J3000000D01*
G01*
X81546361Y-116812375D02*
X140546361Y-116812375D01*
X143546356Y-113817611D02*
G75*
G02*
X140546361Y-116812375I-2999995J5236D01*
G01*
G36*
G01*
X111290000Y-99960000D02*
X109690000Y-99960000D01*
G75*
G02*
X109590000Y-99860000I0J100000D01*
G01*
X109590000Y-98260000D01*
G75*
G02*
X109690000Y-98160000I100000J0D01*
G01*
X111290000Y-98160000D01*
G75*
G02*
X111390000Y-98260000I0J-100000D01*
G01*
X111390000Y-99860000D01*
G75*
G02*
X111290000Y-99960000I-100000J0D01*
G01*
G37*
D11*
X128270000Y-86360000D03*
X113030000Y-99060000D03*
X125730000Y-86360000D03*
X115570000Y-99060000D03*
X123190000Y-86360000D03*
X118110000Y-99060000D03*
X120650000Y-86360000D03*
X120650000Y-99060000D03*
X118110000Y-86360000D03*
X123190000Y-99060000D03*
X115570000Y-86360000D03*
X125730000Y-99060000D03*
X113030000Y-86360000D03*
X128270000Y-99060000D03*
X110490000Y-86360000D03*
D12*
X83820000Y-102870000D03*
G36*
G01*
X80280000Y-103770000D02*
X80280000Y-101970000D01*
G75*
G02*
X80380000Y-101870000I100000J0D01*
G01*
X82180000Y-101870000D01*
G75*
G02*
X82280000Y-101970000I0J-100000D01*
G01*
X82280000Y-103770000D01*
G75*
G02*
X82180000Y-103870000I-100000J0D01*
G01*
X80380000Y-103870000D01*
G75*
G02*
X80280000Y-103770000I0J100000D01*
G01*
G37*
D13*
X88940000Y-110490000D03*
G36*
G01*
X92390000Y-109669411D02*
X92390000Y-111310589D01*
G75*
G02*
X92110589Y-111590000I-279411J0D01*
G01*
X90769411Y-111590000D01*
G75*
G02*
X90490000Y-111310589I0J279411D01*
G01*
X90490000Y-109669411D01*
G75*
G02*
X90769411Y-109390000I279411J0D01*
G01*
X92110589Y-109390000D01*
G75*
G02*
X92390000Y-109669411I0J-279411D01*
G01*
G37*
G36*
G01*
X86070000Y-64640000D02*
X87770000Y-64640000D01*
G75*
G02*
X87870000Y-64740000I0J-100000D01*
G01*
X87870000Y-66440000D01*
G75*
G02*
X87770000Y-66540000I-100000J0D01*
G01*
X86070000Y-66540000D01*
G75*
G02*
X85970000Y-66440000I0J100000D01*
G01*
X85970000Y-64740000D01*
G75*
G02*
X86070000Y-64640000I100000J0D01*
G01*
G37*
D14*
X86920000Y-63050000D03*
X89460000Y-65590000D03*
X89460000Y-63050000D03*
X92000000Y-65590000D03*
X92000000Y-63050000D03*
X94540000Y-65590000D03*
X94540000Y-63050000D03*
X97080000Y-65590000D03*
X97080000Y-63050000D03*
X99620000Y-65590000D03*
X99620000Y-63050000D03*
X102160000Y-65590000D03*
X102160000Y-63050000D03*
X104700000Y-65590000D03*
X104700000Y-63050000D03*
X107240000Y-65590000D03*
X107240000Y-63050000D03*
X109780000Y-65590000D03*
X109780000Y-63050000D03*
X112320000Y-65590000D03*
X112320000Y-63050000D03*
X114860000Y-65590000D03*
X114860000Y-63050000D03*
X117400000Y-65590000D03*
X117400000Y-63050000D03*
X119940000Y-65590000D03*
X119940000Y-63050000D03*
X122480000Y-65590000D03*
X122480000Y-63050000D03*
X125020000Y-65590000D03*
X125020000Y-63050000D03*
X127560000Y-65590000D03*
X127560000Y-63050000D03*
X130100000Y-65590000D03*
X130100000Y-63050000D03*
X132640000Y-65590000D03*
X132640000Y-63050000D03*
X135180000Y-65590000D03*
X135180000Y-63050000D03*
G36*
G01*
X114550000Y-75750000D02*
X112850000Y-75750000D01*
G75*
G02*
X112750000Y-75650000I0J100000D01*
G01*
X112750000Y-73950000D01*
G75*
G02*
X112850000Y-73850000I100000J0D01*
G01*
X114550000Y-73850000D01*
G75*
G02*
X114650000Y-73950000I0J-100000D01*
G01*
X114650000Y-75650000D01*
G75*
G02*
X114550000Y-75750000I-100000J0D01*
G01*
G37*
X116240000Y-74800000D03*
D15*
X82040000Y-64310000D03*
X140040000Y-64330000D03*
X82040000Y-113320000D03*
X140030000Y-113310000D03*
G36*
G01*
X100750000Y-76080000D02*
X100750000Y-73780000D01*
G75*
G02*
X100850000Y-73680000I100000J0D01*
G01*
X102350000Y-73680000D01*
G75*
G02*
X102450000Y-73780000I0J-100000D01*
G01*
X102450000Y-76080000D01*
G75*
G02*
X102350000Y-76180000I-100000J0D01*
G01*
X100850000Y-76180000D01*
G75*
G02*
X100750000Y-76080000I0J100000D01*
G01*
G37*
D16*
X104140000Y-74930000D03*
X106680000Y-74930000D03*
G36*
G01*
X80280000Y-88530000D02*
X80280000Y-86730000D01*
G75*
G02*
X80380000Y-86630000I100000J0D01*
G01*
X82180000Y-86630000D01*
G75*
G02*
X82280000Y-86730000I0J-100000D01*
G01*
X82280000Y-88530000D01*
G75*
G02*
X82180000Y-88630000I-100000J0D01*
G01*
X80380000Y-88630000D01*
G75*
G02*
X80280000Y-88530000I0J100000D01*
G01*
G37*
D12*
X83820000Y-87630000D03*
G36*
G01*
X80280000Y-96150000D02*
X80280000Y-94350000D01*
G75*
G02*
X80380000Y-94250000I100000J0D01*
G01*
X82180000Y-94250000D01*
G75*
G02*
X82280000Y-94350000I0J-100000D01*
G01*
X82280000Y-96150000D01*
G75*
G02*
X82180000Y-96250000I-100000J0D01*
G01*
X80380000Y-96250000D01*
G75*
G02*
X80280000Y-96150000I0J100000D01*
G01*
G37*
X83820000Y-95250000D03*
D17*
X115690000Y-110490000D03*
X118190000Y-110490000D03*
X120690000Y-110490000D03*
G36*
G01*
X124140000Y-109694411D02*
X124140000Y-111285589D01*
G75*
G02*
X123860589Y-111565000I-279411J0D01*
G01*
X122519411Y-111565000D01*
G75*
G02*
X122240000Y-111285589I0J279411D01*
G01*
X122240000Y-109694411D01*
G75*
G02*
X122519411Y-109415000I279411J0D01*
G01*
X123860589Y-109415000D01*
G75*
G02*
X124140000Y-109694411I0J-279411D01*
G01*
G37*
G36*
G01*
X136364411Y-70170000D02*
X137955589Y-70170000D01*
G75*
G02*
X138235000Y-70449411I0J-279411D01*
G01*
X138235000Y-71790589D01*
G75*
G02*
X137955589Y-72070000I-279411J0D01*
G01*
X136364411Y-72070000D01*
G75*
G02*
X136085000Y-71790589I0J279411D01*
G01*
X136085000Y-70449411D01*
G75*
G02*
X136364411Y-70170000I279411J0D01*
G01*
G37*
D18*
X137160000Y-73620000D03*
X137160000Y-76120000D03*
X137160000Y-78620000D03*
G36*
G01*
X101280000Y-109669411D02*
X101280000Y-111310589D01*
G75*
G02*
X101000589Y-111590000I-279411J0D01*
G01*
X99659411Y-111590000D01*
G75*
G02*
X99380000Y-111310589I0J279411D01*
G01*
X99380000Y-109669411D01*
G75*
G02*
X99659411Y-109390000I279411J0D01*
G01*
X101000589Y-109390000D01*
G75*
G02*
X101280000Y-109669411I0J-279411D01*
G01*
G37*
D13*
X97830000Y-110490000D03*
X129700000Y-110500000D03*
G36*
G01*
X133150000Y-109679411D02*
X133150000Y-111320589D01*
G75*
G02*
X132870589Y-111600000I-279411J0D01*
G01*
X131529411Y-111600000D01*
G75*
G02*
X131250000Y-111320589I0J279411D01*
G01*
X131250000Y-109679411D01*
G75*
G02*
X131529411Y-109400000I279411J0D01*
G01*
X132870589Y-109400000D01*
G75*
G02*
X133150000Y-109679411I0J-279411D01*
G01*
G37*
G36*
G01*
X110150000Y-109669411D02*
X110150000Y-111310589D01*
G75*
G02*
X109870589Y-111590000I-279411J0D01*
G01*
X108529411Y-111590000D01*
G75*
G02*
X108250000Y-111310589I0J279411D01*
G01*
X108250000Y-109669411D01*
G75*
G02*
X108529411Y-109390000I279411J0D01*
G01*
X109870589Y-109390000D01*
G75*
G02*
X110150000Y-109669411I0J-279411D01*
G01*
G37*
X106700000Y-110490000D03*
D19*
X136350000Y-97816000D03*
D20*
X139150000Y-102616000D03*
G36*
G01*
X134250000Y-104916000D02*
X132450000Y-104916000D01*
G75*
G02*
X132350000Y-104816000I0J100000D01*
G01*
X132350000Y-100416000D01*
G75*
G02*
X132450000Y-100316000I100000J0D01*
G01*
X134250000Y-100316000D01*
G75*
G02*
X134350000Y-100416000I0J-100000D01*
G01*
X134350000Y-104816000D01*
G75*
G02*
X134250000Y-104916000I-100000J0D01*
G01*
G37*
G36*
G01*
X129200000Y-104200000D02*
X129200000Y-105800000D01*
G75*
G02*
X129100000Y-105900000I-100000J0D01*
G01*
X127500000Y-105900000D01*
G75*
G02*
X127400000Y-105800000I0J100000D01*
G01*
X127400000Y-104200000D01*
G75*
G02*
X127500000Y-104100000I100000J0D01*
G01*
X129100000Y-104100000D01*
G75*
G02*
X129200000Y-104200000I0J-100000D01*
G01*
G37*
D21*
X125800000Y-105000000D03*
M02*
