G04 #@! TF.GenerationSoftware,KiCad,Pcbnew,5.1.9*
G04 #@! TF.CreationDate,2021-02-16T22:26:49+01:00*
G04 #@! TF.ProjectId,raspberrypi_hat,72617370-6265-4727-9279-70695f686174,rev?*
G04 #@! TF.SameCoordinates,Original*
G04 #@! TF.FileFunction,Legend,Bot*
G04 #@! TF.FilePolarity,Positive*
%FSLAX46Y46*%
G04 Gerber Fmt 4.6, Leading zero omitted, Abs format (unit mm)*
G04 Created by KiCad (PCBNEW 5.1.9) date 2021-02-16 22:26:49*
%MOMM*%
%LPD*%
G01*
G04 APERTURE LIST*
%ADD10C,0.045000*%
%ADD11C,0.200000*%
G04 #@! TA.AperFunction,Profile*
%ADD12C,0.100000*%
G04 #@! TD*
%ADD13C,0.120000*%
%ADD14C,0.150000*%
G04 APERTURE END LIST*
D10*
X94259720Y-89556164D02*
X94259720Y-93276878D01*
X118135708Y-94980514D02*
X118214143Y-94978531D01*
X118214143Y-94978531D02*
X118291547Y-94972648D01*
X118291547Y-94972648D02*
X118367824Y-94962960D01*
X118367824Y-94962960D02*
X118442878Y-94949562D01*
X118442878Y-94949562D02*
X118516614Y-94932550D01*
X118516614Y-94932550D02*
X118588936Y-94912020D01*
X118588936Y-94912020D02*
X118659748Y-94888067D01*
X118659748Y-94888067D02*
X118728955Y-94860788D01*
X118728955Y-94860788D02*
X118796461Y-94830277D01*
X118796461Y-94830277D02*
X118862170Y-94796630D01*
X118862170Y-94796630D02*
X118925987Y-94759943D01*
X118925987Y-94759943D02*
X118987816Y-94720311D01*
X118987816Y-94720311D02*
X119047561Y-94677831D01*
X119047561Y-94677831D02*
X119105127Y-94632597D01*
X119105127Y-94632597D02*
X119160418Y-94584706D01*
X119160418Y-94584706D02*
X119213339Y-94534252D01*
X119213339Y-94534252D02*
X119263793Y-94481333D01*
X119263793Y-94481333D02*
X119311686Y-94426042D01*
X119311686Y-94426042D02*
X119356921Y-94368477D01*
X119356921Y-94368477D02*
X119399402Y-94308732D01*
X119399402Y-94308732D02*
X119439035Y-94246903D01*
X119439035Y-94246903D02*
X119475724Y-94183086D01*
X119475724Y-94183086D02*
X119509372Y-94117377D01*
X119509372Y-94117377D02*
X119539885Y-94049870D01*
X119539885Y-94049870D02*
X119567166Y-93980663D01*
X119567166Y-93980663D02*
X119591119Y-93909849D01*
X119591119Y-93909849D02*
X119611651Y-93837526D01*
X119611651Y-93837526D02*
X119628663Y-93763788D01*
X119628663Y-93763788D02*
X119642062Y-93688731D01*
X119642062Y-93688731D02*
X119651751Y-93612451D01*
X119651751Y-93612451D02*
X119657634Y-93535044D01*
X119657634Y-93535044D02*
X119659617Y-93456605D01*
X127908757Y-93169855D02*
X127842441Y-93166499D01*
X127842441Y-93166499D02*
X127778034Y-93156650D01*
X127778034Y-93156650D02*
X127715863Y-93140636D01*
X127715863Y-93140636D02*
X127656253Y-93118786D01*
X127656253Y-93118786D02*
X127599533Y-93091427D01*
X127599533Y-93091427D02*
X127546029Y-93058886D01*
X127546029Y-93058886D02*
X127496069Y-93021493D01*
X127496069Y-93021493D02*
X127449979Y-92979574D01*
X127449979Y-92979574D02*
X127408087Y-92933459D01*
X127408087Y-92933459D02*
X127370719Y-92883474D01*
X127370719Y-92883474D02*
X127338203Y-92829949D01*
X127338203Y-92829949D02*
X127310865Y-92773210D01*
X127310865Y-92773210D02*
X127289033Y-92713586D01*
X127289033Y-92713586D02*
X127273034Y-92651406D01*
X127273034Y-92651406D02*
X127263195Y-92586996D01*
X127263195Y-92586996D02*
X127259843Y-92520685D01*
X114156038Y-88941481D02*
X114156038Y-88941481D01*
X119662342Y-89556164D02*
X119665529Y-89493032D01*
X119665529Y-89493032D02*
X119674884Y-89431724D01*
X119674884Y-89431724D02*
X119690097Y-89372550D01*
X119690097Y-89372550D02*
X119710856Y-89315819D01*
X119710856Y-89315819D02*
X119736853Y-89261843D01*
X119736853Y-89261843D02*
X119767776Y-89210932D01*
X119767776Y-89210932D02*
X119803316Y-89163396D01*
X119803316Y-89163396D02*
X119843162Y-89119546D01*
X119843162Y-89119546D02*
X119887004Y-89079692D01*
X119887004Y-89079692D02*
X119934533Y-89044145D01*
X119934533Y-89044145D02*
X119985437Y-89013215D01*
X119985437Y-89013215D02*
X120039406Y-88987212D01*
X120039406Y-88987212D02*
X120096132Y-88966447D01*
X120096132Y-88966447D02*
X120155302Y-88951231D01*
X120155302Y-88951231D02*
X120216607Y-88941874D01*
X120216607Y-88941874D02*
X120279738Y-88938686D01*
X102778336Y-90666387D02*
X102831154Y-90666883D01*
X102831154Y-90666883D02*
X102883730Y-90668365D01*
X102883730Y-90668365D02*
X102936055Y-90670824D01*
X102936055Y-90670824D02*
X102988119Y-90674252D01*
X102988119Y-90674252D02*
X103039915Y-90678639D01*
X103039915Y-90678639D02*
X103091434Y-90683977D01*
X103091434Y-90683977D02*
X103142667Y-90690256D01*
X103142667Y-90690256D02*
X103193604Y-90697467D01*
X103193604Y-90697467D02*
X103244238Y-90705602D01*
X103244238Y-90705602D02*
X103294560Y-90714651D01*
X103294560Y-90714651D02*
X103344561Y-90724606D01*
X103344561Y-90724606D02*
X103394233Y-90735458D01*
X103394233Y-90735458D02*
X103443566Y-90747198D01*
X103443566Y-90747198D02*
X103492552Y-90759816D01*
X103492552Y-90759816D02*
X103541183Y-90773304D01*
X103541183Y-90773304D02*
X103589449Y-90787653D01*
X103589449Y-90787653D02*
X103637341Y-90802854D01*
X103637341Y-90802854D02*
X103684852Y-90818898D01*
X103684852Y-90818898D02*
X103731973Y-90835776D01*
X103731973Y-90835776D02*
X103778694Y-90853480D01*
X103778694Y-90853480D02*
X103825007Y-90871999D01*
X103825007Y-90871999D02*
X103870904Y-90891325D01*
X103870904Y-90891325D02*
X103916375Y-90911450D01*
X103916375Y-90911450D02*
X103961413Y-90932364D01*
X103961413Y-90932364D02*
X104006007Y-90954058D01*
X104006007Y-90954058D02*
X104050150Y-90976524D01*
X104050150Y-90976524D02*
X104093833Y-90999752D01*
X104093833Y-90999752D02*
X104137048Y-91023734D01*
X104137048Y-91023734D02*
X104179784Y-91048460D01*
X104179784Y-91048460D02*
X104222034Y-91073922D01*
X104222034Y-91073922D02*
X104263790Y-91100110D01*
X104263790Y-91100110D02*
X104305042Y-91127017D01*
X102778325Y-91931340D02*
X102699885Y-91933326D01*
X102699885Y-91933326D02*
X102622470Y-91939220D01*
X102622470Y-91939220D02*
X102546175Y-91948927D01*
X102546175Y-91948927D02*
X102471096Y-91962349D01*
X102471096Y-91962349D02*
X102397329Y-91979392D01*
X102397329Y-91979392D02*
X102324972Y-91999958D01*
X102324972Y-91999958D02*
X102254118Y-92023952D01*
X102254118Y-92023952D02*
X102184866Y-92051277D01*
X102184866Y-92051277D02*
X102117311Y-92081838D01*
X102117311Y-92081838D02*
X102051548Y-92115538D01*
X102051548Y-92115538D02*
X101987675Y-92152281D01*
X101987675Y-92152281D02*
X101925788Y-92191971D01*
X101925788Y-92191971D02*
X101865982Y-92234512D01*
X101865982Y-92234512D02*
X101808354Y-92279808D01*
X101808354Y-92279808D02*
X101753000Y-92327762D01*
X101753000Y-92327762D02*
X101700016Y-92378279D01*
X101700016Y-92378279D02*
X101649498Y-92431262D01*
X101649498Y-92431262D02*
X101601543Y-92486615D01*
X101601543Y-92486615D02*
X101556246Y-92544243D01*
X101556246Y-92544243D02*
X101513704Y-92604048D01*
X101513704Y-92604048D02*
X101474012Y-92665935D01*
X101474012Y-92665935D02*
X101437268Y-92729808D01*
X101437268Y-92729808D02*
X101403566Y-92795571D01*
X101403566Y-92795571D02*
X101373004Y-92863127D01*
X101373004Y-92863127D02*
X101345678Y-92932380D01*
X101345678Y-92932380D02*
X101321683Y-93003235D01*
X101321683Y-93003235D02*
X101301115Y-93075594D01*
X101301115Y-93075594D02*
X101284072Y-93149363D01*
X101284072Y-93149363D02*
X101270649Y-93224444D01*
X101270649Y-93224444D02*
X101260942Y-93300743D01*
X101260942Y-93300743D02*
X101255047Y-93378161D01*
X101255047Y-93378161D02*
X101253061Y-93456605D01*
X118135708Y-91931340D02*
X118057264Y-91933326D01*
X118057264Y-91933326D02*
X117979846Y-91939220D01*
X117979846Y-91939220D02*
X117903547Y-91948927D01*
X117903547Y-91948927D02*
X117828466Y-91962349D01*
X117828466Y-91962349D02*
X117754697Y-91979392D01*
X117754697Y-91979392D02*
X117682338Y-91999958D01*
X117682338Y-91999958D02*
X117611483Y-92023952D01*
X117611483Y-92023952D02*
X117542230Y-92051277D01*
X117542230Y-92051277D02*
X117474674Y-92081838D01*
X117474674Y-92081838D02*
X117408911Y-92115538D01*
X117408911Y-92115538D02*
X117345038Y-92152281D01*
X117345038Y-92152281D02*
X117283151Y-92191971D01*
X117283151Y-92191971D02*
X117223346Y-92234512D01*
X117223346Y-92234512D02*
X117165718Y-92279808D01*
X117165718Y-92279808D02*
X117110365Y-92327762D01*
X117110365Y-92327762D02*
X117057382Y-92378279D01*
X117057382Y-92378279D02*
X117006865Y-92431262D01*
X117006865Y-92431262D02*
X116958911Y-92486615D01*
X116958911Y-92486615D02*
X116913616Y-92544243D01*
X116913616Y-92544243D02*
X116871075Y-92604048D01*
X116871075Y-92604048D02*
X116831385Y-92665935D01*
X116831385Y-92665935D02*
X116794642Y-92729808D01*
X116794642Y-92729808D02*
X116760942Y-92795571D01*
X116760942Y-92795571D02*
X116730381Y-92863127D01*
X116730381Y-92863127D02*
X116703056Y-92932380D01*
X116703056Y-92932380D02*
X116679062Y-93003235D01*
X116679062Y-93003235D02*
X116658496Y-93075594D01*
X116658496Y-93075594D02*
X116641453Y-93149363D01*
X116641453Y-93149363D02*
X116628031Y-93224444D01*
X116628031Y-93224444D02*
X116618324Y-93300743D01*
X116618324Y-93300743D02*
X116612430Y-93378161D01*
X116612430Y-93378161D02*
X116610444Y-93456605D01*
X105540081Y-93429489D02*
X105536489Y-93571660D01*
X105536489Y-93571660D02*
X105525828Y-93711958D01*
X105525828Y-93711958D02*
X105508273Y-93850212D01*
X105508273Y-93850212D02*
X105483996Y-93986246D01*
X105483996Y-93986246D02*
X105453170Y-94119889D01*
X105453170Y-94119889D02*
X105415969Y-94250967D01*
X105415969Y-94250967D02*
X105372565Y-94379306D01*
X105372565Y-94379306D02*
X105323132Y-94504734D01*
X105323132Y-94504734D02*
X105267843Y-94627077D01*
X105267843Y-94627077D02*
X105206872Y-94746162D01*
X105206872Y-94746162D02*
X105140391Y-94861817D01*
X105140391Y-94861817D02*
X105068574Y-94973867D01*
X105068574Y-94973867D02*
X104991594Y-95082139D01*
X104991594Y-95082139D02*
X104909624Y-95186461D01*
X104909624Y-95186461D02*
X104822837Y-95286659D01*
X104822837Y-95286659D02*
X104731406Y-95382559D01*
X104731406Y-95382559D02*
X104635506Y-95473990D01*
X104635506Y-95473990D02*
X104535308Y-95560777D01*
X104535308Y-95560777D02*
X104430986Y-95642747D01*
X104430986Y-95642747D02*
X104322714Y-95719727D01*
X104322714Y-95719727D02*
X104210664Y-95791545D01*
X104210664Y-95791545D02*
X104095010Y-95858026D01*
X104095010Y-95858026D02*
X103975924Y-95918997D01*
X103975924Y-95918997D02*
X103853581Y-95974286D01*
X103853581Y-95974286D02*
X103728153Y-96023719D01*
X103728153Y-96023719D02*
X103599814Y-96067122D01*
X103599814Y-96067122D02*
X103468736Y-96104324D01*
X103468736Y-96104324D02*
X103335094Y-96135150D01*
X103335094Y-96135150D02*
X103199059Y-96159427D01*
X103199059Y-96159427D02*
X103060806Y-96176982D01*
X103060806Y-96176982D02*
X102920507Y-96187643D01*
X102920507Y-96187643D02*
X102778336Y-96191235D01*
X91498154Y-96191235D02*
X91355982Y-96187643D01*
X91355982Y-96187643D02*
X91215675Y-96176982D01*
X91215675Y-96176982D02*
X91077406Y-96159427D01*
X91077406Y-96159427D02*
X90941349Y-96135150D01*
X90941349Y-96135150D02*
X90807678Y-96104324D01*
X90807678Y-96104324D02*
X90676565Y-96067122D01*
X90676565Y-96067122D02*
X90548186Y-96023719D01*
X90548186Y-96023719D02*
X90422713Y-95974286D01*
X90422713Y-95974286D02*
X90300321Y-95918997D01*
X90300321Y-95918997D02*
X90181183Y-95858026D01*
X90181183Y-95858026D02*
X90065472Y-95791545D01*
X90065472Y-95791545D02*
X89953364Y-95719727D01*
X89953364Y-95719727D02*
X89845030Y-95642747D01*
X89845030Y-95642747D02*
X89740646Y-95560777D01*
X89740646Y-95560777D02*
X89640384Y-95473990D01*
X89640384Y-95473990D02*
X89544419Y-95382559D01*
X89544419Y-95382559D02*
X89452924Y-95286659D01*
X89452924Y-95286659D02*
X89366073Y-95186461D01*
X89366073Y-95186461D02*
X89284039Y-95082139D01*
X89284039Y-95082139D02*
X89206997Y-94973867D01*
X89206997Y-94973867D02*
X89135120Y-94861817D01*
X89135120Y-94861817D02*
X89068582Y-94746162D01*
X89068582Y-94746162D02*
X89007556Y-94627077D01*
X89007556Y-94627077D02*
X88952216Y-94504734D01*
X88952216Y-94504734D02*
X88902736Y-94379306D01*
X88902736Y-94379306D02*
X88859290Y-94250967D01*
X88859290Y-94250967D02*
X88822052Y-94119889D01*
X88822052Y-94119889D02*
X88791194Y-93986246D01*
X88791194Y-93986246D02*
X88766891Y-93850212D01*
X88766891Y-93850212D02*
X88749317Y-93711958D01*
X88749317Y-93711958D02*
X88738645Y-93571660D01*
X88738645Y-93571660D02*
X88735050Y-93429489D01*
X96711995Y-90646393D02*
X96758070Y-90642318D01*
X96758070Y-90642318D02*
X96795122Y-90640716D01*
X113507548Y-93443894D02*
X113507548Y-89590736D01*
X105539903Y-93276878D02*
X105537659Y-93321941D01*
X105537659Y-93321941D02*
X105537448Y-93324924D01*
X95865304Y-92226059D02*
X95797904Y-92270234D01*
X95797904Y-92270234D02*
X95730587Y-92306156D01*
X95730587Y-92306156D02*
X95663623Y-92334165D01*
X95663623Y-92334165D02*
X95597280Y-92354599D01*
X95597280Y-92354599D02*
X95531829Y-92367798D01*
X95531829Y-92367798D02*
X95467541Y-92374100D01*
X95467541Y-92374100D02*
X95404683Y-92373844D01*
X95404683Y-92373844D02*
X95343528Y-92367370D01*
X95343528Y-92367370D02*
X95284343Y-92355017D01*
X95284343Y-92355017D02*
X95227400Y-92337125D01*
X95227400Y-92337125D02*
X95172969Y-92314031D01*
X95172969Y-92314031D02*
X95121318Y-92286075D01*
X95121318Y-92286075D02*
X95072718Y-92253596D01*
X95072718Y-92253596D02*
X95027439Y-92216934D01*
X95027439Y-92216934D02*
X94985751Y-92176428D01*
X94985751Y-92176428D02*
X94947923Y-92132416D01*
X94947923Y-92132416D02*
X94914226Y-92085237D01*
X94914226Y-92085237D02*
X94884929Y-92035232D01*
X94884929Y-92035232D02*
X94860302Y-91982738D01*
X94860302Y-91982738D02*
X94840615Y-91928095D01*
X94840615Y-91928095D02*
X94826138Y-91871643D01*
X94826138Y-91871643D02*
X94817140Y-91813719D01*
X94817140Y-91813719D02*
X94813893Y-91754664D01*
X94813893Y-91754664D02*
X94816665Y-91694817D01*
X94816665Y-91694817D02*
X94825726Y-91634516D01*
X94825726Y-91634516D02*
X94841347Y-91574100D01*
X94841347Y-91574100D02*
X94863797Y-91513910D01*
X94863797Y-91513910D02*
X94893345Y-91454283D01*
X94893345Y-91454283D02*
X94930263Y-91395559D01*
X94930263Y-91395559D02*
X94974820Y-91338077D01*
X94974820Y-91338077D02*
X95027285Y-91282177D01*
X95027285Y-91282177D02*
X95087929Y-91228197D01*
X118135722Y-90666387D02*
X118188538Y-90666883D01*
X118188538Y-90666883D02*
X118241112Y-90668365D01*
X118241112Y-90668365D02*
X118293435Y-90670824D01*
X118293435Y-90670824D02*
X118345497Y-90674252D01*
X118345497Y-90674252D02*
X118397290Y-90678639D01*
X118397290Y-90678639D02*
X118448806Y-90683977D01*
X118448806Y-90683977D02*
X118500036Y-90690256D01*
X118500036Y-90690256D02*
X118550970Y-90697467D01*
X118550970Y-90697467D02*
X118601601Y-90705602D01*
X118601601Y-90705602D02*
X118651919Y-90714651D01*
X118651919Y-90714651D02*
X118701917Y-90724606D01*
X118701917Y-90724606D02*
X118751585Y-90735458D01*
X118751585Y-90735458D02*
X118800914Y-90747198D01*
X118800914Y-90747198D02*
X118849897Y-90759816D01*
X118849897Y-90759816D02*
X118898523Y-90773304D01*
X118898523Y-90773304D02*
X118946786Y-90787653D01*
X118946786Y-90787653D02*
X118994675Y-90802854D01*
X118994675Y-90802854D02*
X119042182Y-90818898D01*
X119042182Y-90818898D02*
X119089299Y-90835776D01*
X119089299Y-90835776D02*
X119136017Y-90853480D01*
X119136017Y-90853480D02*
X119182327Y-90871999D01*
X119182327Y-90871999D02*
X119228221Y-90891325D01*
X119228221Y-90891325D02*
X119273689Y-90911450D01*
X119273689Y-90911450D02*
X119318724Y-90932364D01*
X119318724Y-90932364D02*
X119363316Y-90954058D01*
X119363316Y-90954058D02*
X119407457Y-90976524D01*
X119407457Y-90976524D02*
X119451138Y-90999752D01*
X119451138Y-90999752D02*
X119494351Y-91023734D01*
X119494351Y-91023734D02*
X119537086Y-91048460D01*
X119537086Y-91048460D02*
X119579335Y-91073922D01*
X119579335Y-91073922D02*
X119621090Y-91100110D01*
X119621090Y-91100110D02*
X119662342Y-91127017D01*
X100015235Y-93429489D02*
X100018830Y-93287317D01*
X100018830Y-93287317D02*
X100029502Y-93147011D01*
X100029502Y-93147011D02*
X100047076Y-93008742D01*
X100047076Y-93008742D02*
X100071379Y-92872685D01*
X100071379Y-92872685D02*
X100102237Y-92739013D01*
X100102237Y-92739013D02*
X100139475Y-92607901D01*
X100139475Y-92607901D02*
X100182921Y-92479522D01*
X100182921Y-92479522D02*
X100232401Y-92354049D01*
X100232401Y-92354049D02*
X100287740Y-92231657D01*
X100287740Y-92231657D02*
X100348766Y-92112519D01*
X100348766Y-92112519D02*
X100415304Y-91996809D01*
X100415304Y-91996809D02*
X100487181Y-91884700D01*
X100487181Y-91884700D02*
X100564223Y-91776367D01*
X100564223Y-91776367D02*
X100646257Y-91671983D01*
X100646257Y-91671983D02*
X100733108Y-91571721D01*
X100733108Y-91571721D02*
X100824603Y-91475756D01*
X100824603Y-91475756D02*
X100920568Y-91384261D01*
X100920568Y-91384261D02*
X101020830Y-91297410D01*
X101020830Y-91297410D02*
X101125214Y-91215376D01*
X101125214Y-91215376D02*
X101233547Y-91138334D01*
X101233547Y-91138334D02*
X101345656Y-91066457D01*
X101345656Y-91066457D02*
X101461366Y-90999918D01*
X101461366Y-90999918D02*
X101580504Y-90938893D01*
X101580504Y-90938893D02*
X101702896Y-90883553D01*
X101702896Y-90883553D02*
X101828369Y-90834073D01*
X101828369Y-90834073D02*
X101956748Y-90790627D01*
X101956748Y-90790627D02*
X102087860Y-90753389D01*
X102087860Y-90753389D02*
X102221532Y-90722531D01*
X102221532Y-90722531D02*
X102357589Y-90698228D01*
X102357589Y-90698228D02*
X102495857Y-90680654D01*
X102495857Y-90680654D02*
X102636164Y-90669982D01*
X102636164Y-90669982D02*
X102778336Y-90666387D01*
X112040158Y-96209029D02*
X111973843Y-96205677D01*
X111973843Y-96205677D02*
X111909439Y-96195839D01*
X111909439Y-96195839D02*
X111847271Y-96179841D01*
X111847271Y-96179841D02*
X111787667Y-96158012D01*
X111787667Y-96158012D02*
X111730953Y-96130677D01*
X111730953Y-96130677D02*
X111677456Y-96098164D01*
X111677456Y-96098164D02*
X111627503Y-96060798D01*
X111627503Y-96060798D02*
X111581421Y-96018908D01*
X111581421Y-96018908D02*
X111539536Y-95972820D01*
X111539536Y-95972820D02*
X111502176Y-95922861D01*
X111502176Y-95922861D02*
X111469666Y-95869357D01*
X111469666Y-95869357D02*
X111442335Y-95812636D01*
X111442335Y-95812636D02*
X111420509Y-95753024D01*
X111420509Y-95753024D02*
X111404514Y-95690849D01*
X111404514Y-95690849D02*
X111394677Y-95626436D01*
X111394677Y-95626436D02*
X111391326Y-95560114D01*
X122592278Y-95721115D02*
X122577500Y-95770778D01*
X122577500Y-95770778D02*
X122558803Y-95818617D01*
X122558803Y-95818617D02*
X122536372Y-95864443D01*
X122536372Y-95864443D02*
X122510395Y-95908063D01*
X122510395Y-95908063D02*
X122481061Y-95949289D01*
X122481061Y-95949289D02*
X122448556Y-95987929D01*
X122448556Y-95987929D02*
X122413068Y-96023792D01*
X122413068Y-96023792D02*
X122374785Y-96056690D01*
X122374785Y-96056690D02*
X122333894Y-96086430D01*
X122333894Y-96086430D02*
X122290582Y-96112823D01*
X122290582Y-96112823D02*
X122245038Y-96135677D01*
X122245038Y-96135677D02*
X122197449Y-96154804D01*
X122197449Y-96154804D02*
X122148002Y-96170012D01*
X122148002Y-96170012D02*
X122096885Y-96181110D01*
X122096885Y-96181110D02*
X122044286Y-96187909D01*
X122044286Y-96187909D02*
X121990392Y-96190218D01*
X114805377Y-89590736D02*
X114805377Y-93443894D01*
X125657298Y-93400000D02*
X125655311Y-93321560D01*
X125655311Y-93321560D02*
X125649417Y-93244153D01*
X125649417Y-93244153D02*
X125639710Y-93167873D01*
X125639710Y-93167873D02*
X125626288Y-93092817D01*
X125626288Y-93092817D02*
X125609245Y-93019079D01*
X125609245Y-93019079D02*
X125588679Y-92946755D01*
X125588679Y-92946755D02*
X125564685Y-92875942D01*
X125564685Y-92875942D02*
X125537360Y-92806734D01*
X125537360Y-92806734D02*
X125506799Y-92739228D01*
X125506799Y-92739228D02*
X125473099Y-92673518D01*
X125473099Y-92673518D02*
X125436356Y-92609701D01*
X125436356Y-92609701D02*
X125396666Y-92547872D01*
X125396666Y-92547872D02*
X125354125Y-92488128D01*
X125354125Y-92488128D02*
X125308829Y-92430562D01*
X125308829Y-92430562D02*
X125260875Y-92375272D01*
X125260875Y-92375272D02*
X125210358Y-92322352D01*
X125210358Y-92322352D02*
X125157375Y-92271899D01*
X125157375Y-92271899D02*
X125102021Y-92224007D01*
X125102021Y-92224007D02*
X125044394Y-92178774D01*
X125044394Y-92178774D02*
X124984588Y-92136293D01*
X124984588Y-92136293D02*
X124922701Y-92096662D01*
X124922701Y-92096662D02*
X124858828Y-92059975D01*
X124858828Y-92059975D02*
X124793065Y-92026328D01*
X124793065Y-92026328D02*
X124725509Y-91995816D01*
X124725509Y-91995816D02*
X124656256Y-91968537D01*
X124656256Y-91968537D02*
X124585401Y-91944584D01*
X124585401Y-91944584D02*
X124513042Y-91924054D01*
X124513042Y-91924054D02*
X124439273Y-91907042D01*
X124439273Y-91907042D02*
X124364192Y-91893644D01*
X124364192Y-91893644D02*
X124287893Y-91883956D01*
X124287893Y-91883956D02*
X124210475Y-91878073D01*
X124210475Y-91878073D02*
X124132032Y-91876091D01*
X105539903Y-89556164D02*
X105539903Y-93276878D01*
X98964630Y-95122873D02*
X98874423Y-95232819D01*
X98874423Y-95232819D02*
X98779787Y-95336951D01*
X98779787Y-95336951D02*
X98680965Y-95435238D01*
X98680965Y-95435238D02*
X98578199Y-95527648D01*
X98578199Y-95527648D02*
X98471733Y-95614152D01*
X98471733Y-95614152D02*
X98361810Y-95694718D01*
X98361810Y-95694718D02*
X98248675Y-95769316D01*
X98248675Y-95769316D02*
X98132570Y-95837916D01*
X98132570Y-95837916D02*
X98013738Y-95900487D01*
X98013738Y-95900487D02*
X97892424Y-95956999D01*
X97892424Y-95956999D02*
X97768869Y-96007420D01*
X97768869Y-96007420D02*
X97643319Y-96051720D01*
X97643319Y-96051720D02*
X97516016Y-96089869D01*
X97516016Y-96089869D02*
X97387203Y-96121837D01*
X97387203Y-96121837D02*
X97257125Y-96147591D01*
X97257125Y-96147591D02*
X97126024Y-96167103D01*
X97126024Y-96167103D02*
X96994143Y-96180341D01*
X96994143Y-96180341D02*
X96861726Y-96187275D01*
X96861726Y-96187275D02*
X96729017Y-96187874D01*
X96729017Y-96187874D02*
X96596259Y-96182107D01*
X96596259Y-96182107D02*
X96463695Y-96169945D01*
X96463695Y-96169945D02*
X96331569Y-96151356D01*
X96331569Y-96151356D02*
X96200123Y-96126310D01*
X96200123Y-96126310D02*
X96069602Y-96094776D01*
X96069602Y-96094776D02*
X95940249Y-96056724D01*
X95940249Y-96056724D02*
X95812307Y-96012123D01*
X95812307Y-96012123D02*
X95686019Y-95960943D01*
X95686019Y-95960943D02*
X95561630Y-95903152D01*
X95561630Y-95903152D02*
X95439381Y-95838721D01*
X95439381Y-95838721D02*
X95319517Y-95767619D01*
X95319517Y-95767619D02*
X95202282Y-95689816D01*
X95202282Y-95689816D02*
X95087918Y-95605280D01*
X93642244Y-88938686D02*
X93705382Y-88941874D01*
X93705382Y-88941874D02*
X93766695Y-88951233D01*
X93766695Y-88951233D02*
X93825873Y-88966451D01*
X93825873Y-88966451D02*
X93882605Y-88987218D01*
X93882605Y-88987218D02*
X93936582Y-89013223D01*
X93936582Y-89013223D02*
X93987493Y-89044156D01*
X93987493Y-89044156D02*
X94035027Y-89079706D01*
X94035027Y-89079706D02*
X94078876Y-89119562D01*
X94078876Y-89119562D02*
X94118727Y-89163414D01*
X94118727Y-89163414D02*
X94154272Y-89210951D01*
X94154272Y-89210951D02*
X94185199Y-89261862D01*
X94185199Y-89261862D02*
X94211199Y-89315838D01*
X94211199Y-89315838D02*
X94231961Y-89372566D01*
X94231961Y-89372566D02*
X94247176Y-89431737D01*
X94247176Y-89431737D02*
X94256532Y-89493039D01*
X94256532Y-89493039D02*
X94259720Y-89556164D01*
X94257265Y-93324924D02*
X94258892Y-93370559D01*
X94258892Y-93370559D02*
X94259840Y-93416353D01*
X94259840Y-93416353D02*
X94259899Y-93429489D01*
X108774734Y-90665370D02*
X108916905Y-90668962D01*
X108916905Y-90668962D02*
X109057212Y-90679622D01*
X109057212Y-90679622D02*
X109195481Y-90697178D01*
X109195481Y-90697178D02*
X109331538Y-90721456D01*
X109331538Y-90721456D02*
X109465209Y-90752283D01*
X109465209Y-90752283D02*
X109596322Y-90789485D01*
X109596322Y-90789485D02*
X109724701Y-90832890D01*
X109724701Y-90832890D02*
X109850174Y-90882324D01*
X109850174Y-90882324D02*
X109972566Y-90937614D01*
X109972566Y-90937614D02*
X110091704Y-90998587D01*
X110091704Y-90998587D02*
X110207414Y-91065069D01*
X110207414Y-91065069D02*
X110319523Y-91136888D01*
X110319523Y-91136888D02*
X110427856Y-91213870D01*
X110427856Y-91213870D02*
X110532240Y-91295841D01*
X110532240Y-91295841D02*
X110632502Y-91382629D01*
X110632502Y-91382629D02*
X110728467Y-91474061D01*
X110728467Y-91474061D02*
X110819962Y-91569962D01*
X110819962Y-91569962D02*
X110906813Y-91670161D01*
X110906813Y-91670161D02*
X110988846Y-91774483D01*
X110988846Y-91774483D02*
X111065889Y-91882756D01*
X111065889Y-91882756D02*
X111137766Y-91994806D01*
X111137766Y-91994806D02*
X111204304Y-92110461D01*
X111204304Y-92110461D02*
X111265330Y-92229546D01*
X111265330Y-92229546D02*
X111320669Y-92351888D01*
X111320669Y-92351888D02*
X111370149Y-92477315D01*
X111370149Y-92477315D02*
X111413595Y-92605653D01*
X111413595Y-92605653D02*
X111450833Y-92736729D01*
X111450833Y-92736729D02*
X111481691Y-92870370D01*
X111481691Y-92870370D02*
X111505994Y-93006402D01*
X111505994Y-93006402D02*
X111523568Y-93144653D01*
X111523568Y-93144653D02*
X111534240Y-93284948D01*
X111534240Y-93284948D02*
X111537836Y-93427116D01*
X124132032Y-91876091D02*
X124053596Y-91878073D01*
X124053596Y-91878073D02*
X123976192Y-91883956D01*
X123976192Y-91883956D02*
X123899915Y-91893644D01*
X123899915Y-91893644D02*
X123824861Y-91907042D01*
X123824861Y-91907042D02*
X123751126Y-91924054D01*
X123751126Y-91924054D02*
X123678804Y-91944584D01*
X123678804Y-91944584D02*
X123607992Y-91968537D01*
X123607992Y-91968537D02*
X123538785Y-91995816D01*
X123538785Y-91995816D02*
X123471279Y-92026328D01*
X123471279Y-92026328D02*
X123405570Y-92059975D01*
X123405570Y-92059975D02*
X123341753Y-92096662D01*
X123341753Y-92096662D02*
X123279924Y-92136293D01*
X123279924Y-92136293D02*
X123220179Y-92178774D01*
X123220179Y-92178774D02*
X123162613Y-92224007D01*
X123162613Y-92224007D02*
X123107322Y-92271899D01*
X123107322Y-92271899D02*
X123054402Y-92322352D01*
X123054402Y-92322352D02*
X123003947Y-92375272D01*
X123003947Y-92375272D02*
X122956055Y-92430562D01*
X122956055Y-92430562D02*
X122910820Y-92488128D01*
X122910820Y-92488128D02*
X122868338Y-92547872D01*
X122868338Y-92547872D02*
X122828705Y-92609701D01*
X122828705Y-92609701D02*
X122792017Y-92673518D01*
X122792017Y-92673518D02*
X122758369Y-92739228D01*
X122758369Y-92739228D02*
X122727856Y-92806734D01*
X122727856Y-92806734D02*
X122700575Y-92875942D01*
X122700575Y-92875942D02*
X122676621Y-92946755D01*
X122676621Y-92946755D02*
X122656090Y-93019079D01*
X122656090Y-93019079D02*
X122639078Y-93092817D01*
X122639078Y-93092817D02*
X122625679Y-93167873D01*
X122625679Y-93167873D02*
X122615990Y-93244153D01*
X122615990Y-93244153D02*
X122610107Y-93321560D01*
X122610107Y-93321560D02*
X122608125Y-93400000D01*
X127908757Y-88941481D02*
X128050842Y-88945084D01*
X128050842Y-88945084D02*
X128191086Y-88955778D01*
X128191086Y-88955778D02*
X128329313Y-88973388D01*
X128329313Y-88973388D02*
X128465349Y-88997739D01*
X128465349Y-88997739D02*
X128599018Y-89028656D01*
X128599018Y-89028656D02*
X128730145Y-89065965D01*
X128730145Y-89065965D02*
X128858556Y-89109490D01*
X128858556Y-89109490D02*
X128984075Y-89159056D01*
X128984075Y-89159056D02*
X129106527Y-89214490D01*
X129106527Y-89214490D02*
X129225737Y-89275615D01*
X129225737Y-89275615D02*
X129341530Y-89342258D01*
X129341530Y-89342258D02*
X129453732Y-89414243D01*
X129453732Y-89414243D02*
X129562166Y-89491396D01*
X129562166Y-89491396D02*
X129666658Y-89573541D01*
X129666658Y-89573541D02*
X129767034Y-89660504D01*
X129767034Y-89660504D02*
X129863117Y-89752111D01*
X129863117Y-89752111D02*
X129954733Y-89848186D01*
X129954733Y-89848186D02*
X130041707Y-89948554D01*
X130041707Y-89948554D02*
X130123863Y-90053040D01*
X130123863Y-90053040D02*
X130201028Y-90161471D01*
X130201028Y-90161471D02*
X130273025Y-90273670D01*
X130273025Y-90273670D02*
X130339680Y-90389464D01*
X130339680Y-90389464D02*
X130400818Y-90508677D01*
X130400818Y-90508677D02*
X130456263Y-90631134D01*
X130456263Y-90631134D02*
X130505840Y-90756661D01*
X130505840Y-90756661D02*
X130549376Y-90885083D01*
X130549376Y-90885083D02*
X130586694Y-91016225D01*
X130586694Y-91016225D02*
X130617619Y-91149912D01*
X130617619Y-91149912D02*
X130641976Y-91285970D01*
X130641976Y-91285970D02*
X130659591Y-91424223D01*
X130659591Y-91424223D02*
X130670289Y-91564497D01*
X130670289Y-91564497D02*
X130673894Y-91706617D01*
X98319020Y-93430930D02*
X98317037Y-93352490D01*
X98317037Y-93352490D02*
X98311154Y-93275075D01*
X98311154Y-93275075D02*
X98301466Y-93198780D01*
X98301466Y-93198780D02*
X98288068Y-93123701D01*
X98288068Y-93123701D02*
X98271056Y-93049934D01*
X98271056Y-93049934D02*
X98250526Y-92977576D01*
X98250526Y-92977576D02*
X98226573Y-92906723D01*
X98226573Y-92906723D02*
X98199294Y-92837470D01*
X98199294Y-92837470D02*
X98168783Y-92769915D01*
X98168783Y-92769915D02*
X98135136Y-92704153D01*
X98135136Y-92704153D02*
X98098449Y-92640280D01*
X98098449Y-92640280D02*
X98058817Y-92578392D01*
X98058817Y-92578392D02*
X98016337Y-92518586D01*
X98016337Y-92518586D02*
X97971103Y-92460958D01*
X97971103Y-92460958D02*
X97923212Y-92405604D01*
X97923212Y-92405604D02*
X97872758Y-92352620D01*
X97872758Y-92352620D02*
X97819839Y-92302102D01*
X97819839Y-92302102D02*
X97764548Y-92254147D01*
X97764548Y-92254147D02*
X97706983Y-92208850D01*
X97706983Y-92208850D02*
X97647238Y-92166308D01*
X97647238Y-92166308D02*
X97585409Y-92126616D01*
X97585409Y-92126616D02*
X97521592Y-92089872D01*
X97521592Y-92089872D02*
X97455883Y-92056170D01*
X97455883Y-92056170D02*
X97388376Y-92025608D01*
X97388376Y-92025608D02*
X97319169Y-91998282D01*
X97319169Y-91998282D02*
X97248355Y-91974287D01*
X97248355Y-91974287D02*
X97176032Y-91953719D01*
X97176032Y-91953719D02*
X97102294Y-91936676D01*
X97102294Y-91936676D02*
X97027237Y-91923253D01*
X97027237Y-91923253D02*
X96950957Y-91913546D01*
X96950957Y-91913546D02*
X96873550Y-91907651D01*
X96873550Y-91907651D02*
X96795111Y-91905665D01*
X127908757Y-91872448D02*
X129376062Y-91871778D01*
X102778325Y-91931340D02*
X102778325Y-91931340D01*
X130673894Y-95559860D02*
X130670537Y-95626121D01*
X130670537Y-95626121D02*
X130660687Y-95690497D01*
X130660687Y-95690497D02*
X130644671Y-95752656D01*
X130644671Y-95752656D02*
X130622818Y-95812270D01*
X130622818Y-95812270D02*
X130595455Y-95869009D01*
X130595455Y-95869009D02*
X130562910Y-95922542D01*
X130562910Y-95922542D02*
X130525511Y-95972542D01*
X130525511Y-95972542D02*
X130483587Y-96018677D01*
X130483587Y-96018677D02*
X130437466Y-96060619D01*
X130437466Y-96060619D02*
X130387475Y-96098038D01*
X130387475Y-96098038D02*
X130333942Y-96130605D01*
X130333942Y-96130605D02*
X130277196Y-96157989D01*
X130277196Y-96157989D02*
X130217565Y-96179862D01*
X130217565Y-96179862D02*
X130155377Y-96195893D01*
X130155377Y-96195893D02*
X130090959Y-96205753D01*
X130090959Y-96205753D02*
X130024640Y-96209114D01*
X129376062Y-91706626D02*
X129374149Y-91631226D01*
X129374149Y-91631226D02*
X129368472Y-91556801D01*
X129368472Y-91556801D02*
X129359124Y-91483444D01*
X129359124Y-91483444D02*
X129346199Y-91411248D01*
X129346199Y-91411248D02*
X129329788Y-91340307D01*
X129329788Y-91340307D02*
X129309985Y-91270713D01*
X129309985Y-91270713D02*
X129286883Y-91202559D01*
X129286883Y-91202559D02*
X129260574Y-91135939D01*
X129260574Y-91135939D02*
X129231152Y-91070944D01*
X129231152Y-91070944D02*
X129198709Y-91007669D01*
X129198709Y-91007669D02*
X129163338Y-90946207D01*
X129163338Y-90946207D02*
X129125133Y-90886650D01*
X129125133Y-90886650D02*
X129084185Y-90829091D01*
X129084185Y-90829091D02*
X129040588Y-90773623D01*
X129040588Y-90773623D02*
X128994436Y-90720340D01*
X128994436Y-90720340D02*
X128945820Y-90669335D01*
X128945820Y-90669335D02*
X128894833Y-90620700D01*
X128894833Y-90620700D02*
X128841569Y-90574529D01*
X128841569Y-90574529D02*
X128786121Y-90530914D01*
X128786121Y-90530914D02*
X128728580Y-90489949D01*
X128728580Y-90489949D02*
X128669041Y-90451726D01*
X128669041Y-90451726D02*
X128607596Y-90416339D01*
X128607596Y-90416339D02*
X128544338Y-90383881D01*
X128544338Y-90383881D02*
X128479360Y-90354444D01*
X128479360Y-90354444D02*
X128412754Y-90328123D01*
X128412754Y-90328123D02*
X128344615Y-90305009D01*
X128344615Y-90305009D02*
X128275033Y-90285195D01*
X128275033Y-90285195D02*
X128204104Y-90268776D01*
X128204104Y-90268776D02*
X128131918Y-90255843D01*
X128131918Y-90255843D02*
X128058570Y-90246490D01*
X128058570Y-90246490D02*
X127984152Y-90240810D01*
X127984152Y-90240810D02*
X127908757Y-90238897D01*
X107250825Y-93400000D02*
X107252807Y-93478439D01*
X107252807Y-93478439D02*
X107258690Y-93555854D01*
X107258690Y-93555854D02*
X107268378Y-93632150D01*
X107268378Y-93632150D02*
X107281776Y-93707229D01*
X107281776Y-93707229D02*
X107298788Y-93780995D01*
X107298788Y-93780995D02*
X107319318Y-93853353D01*
X107319318Y-93853353D02*
X107343271Y-93924207D01*
X107343271Y-93924207D02*
X107370551Y-93993459D01*
X107370551Y-93993459D02*
X107401062Y-94061014D01*
X107401062Y-94061014D02*
X107434709Y-94126777D01*
X107434709Y-94126777D02*
X107471396Y-94190650D01*
X107471396Y-94190650D02*
X107511027Y-94252537D01*
X107511027Y-94252537D02*
X107553508Y-94312343D01*
X107553508Y-94312343D02*
X107598742Y-94369971D01*
X107598742Y-94369971D02*
X107646633Y-94425325D01*
X107646633Y-94425325D02*
X107697086Y-94478309D01*
X107697086Y-94478309D02*
X107750006Y-94528827D01*
X107750006Y-94528827D02*
X107805296Y-94576783D01*
X107805296Y-94576783D02*
X107862862Y-94622079D01*
X107862862Y-94622079D02*
X107922607Y-94664622D01*
X107922607Y-94664622D02*
X107984436Y-94704313D01*
X107984436Y-94704313D02*
X108048253Y-94741058D01*
X108048253Y-94741058D02*
X108113962Y-94774759D01*
X108113962Y-94774759D02*
X108181469Y-94805321D01*
X108181469Y-94805321D02*
X108250676Y-94832647D01*
X108250676Y-94832647D02*
X108321490Y-94856642D01*
X108321490Y-94856642D02*
X108393813Y-94877210D01*
X108393813Y-94877210D02*
X108467551Y-94894253D01*
X108467551Y-94894253D02*
X108542607Y-94907676D01*
X108542607Y-94907676D02*
X108618887Y-94917383D01*
X108618887Y-94917383D02*
X108696294Y-94923278D01*
X108696294Y-94923278D02*
X108774734Y-94925265D01*
X95087929Y-91228197D02*
X95133570Y-91193382D01*
X95133570Y-91193382D02*
X95179699Y-91159663D01*
X95179699Y-91159663D02*
X95226300Y-91127035D01*
X95226300Y-91127035D02*
X95273358Y-91095498D01*
X95273358Y-91095498D02*
X95320857Y-91065049D01*
X95320857Y-91065049D02*
X95368780Y-91035685D01*
X95368780Y-91035685D02*
X95417112Y-91007406D01*
X95417112Y-91007406D02*
X95465838Y-90980208D01*
X95465838Y-90980208D02*
X95514940Y-90954089D01*
X95514940Y-90954089D02*
X95564405Y-90929048D01*
X95564405Y-90929048D02*
X95614214Y-90905082D01*
X95614214Y-90905082D02*
X95664354Y-90882189D01*
X95664354Y-90882189D02*
X95714807Y-90860367D01*
X95714807Y-90860367D02*
X95765558Y-90839614D01*
X95765558Y-90839614D02*
X95816592Y-90819928D01*
X95816592Y-90819928D02*
X95867892Y-90801306D01*
X95867892Y-90801306D02*
X95919442Y-90783747D01*
X95919442Y-90783747D02*
X95971228Y-90767247D01*
X95971228Y-90767247D02*
X96023232Y-90751806D01*
X96023232Y-90751806D02*
X96075439Y-90737421D01*
X96075439Y-90737421D02*
X96127833Y-90724090D01*
X96127833Y-90724090D02*
X96180399Y-90711811D01*
X96180399Y-90711811D02*
X96233120Y-90700581D01*
X96233120Y-90700581D02*
X96285981Y-90690398D01*
X96285981Y-90690398D02*
X96338965Y-90681261D01*
X96338965Y-90681261D02*
X96392058Y-90673168D01*
X96392058Y-90673168D02*
X96445243Y-90666115D01*
X96445243Y-90666115D02*
X96498504Y-90660101D01*
X96498504Y-90660101D02*
X96551825Y-90655124D01*
X96551825Y-90655124D02*
X96605192Y-90651182D01*
X96605192Y-90651182D02*
X96658587Y-90648272D01*
X96658587Y-90648272D02*
X96711995Y-90646393D01*
X121371983Y-93492533D02*
X121370466Y-93445574D01*
X121370466Y-93445574D02*
X121370198Y-93427116D01*
X96795111Y-91905665D02*
X96785717Y-91904906D01*
X88735050Y-93429489D02*
X88738645Y-93287317D01*
X88738645Y-93287317D02*
X88749317Y-93147011D01*
X88749317Y-93147011D02*
X88766891Y-93008742D01*
X88766891Y-93008742D02*
X88791194Y-92872685D01*
X88791194Y-92872685D02*
X88822052Y-92739013D01*
X88822052Y-92739013D02*
X88859290Y-92607901D01*
X88859290Y-92607901D02*
X88902736Y-92479522D01*
X88902736Y-92479522D02*
X88952216Y-92354049D01*
X88952216Y-92354049D02*
X89007556Y-92231657D01*
X89007556Y-92231657D02*
X89068582Y-92112519D01*
X89068582Y-92112519D02*
X89135120Y-91996809D01*
X89135120Y-91996809D02*
X89206997Y-91884700D01*
X89206997Y-91884700D02*
X89284039Y-91776367D01*
X89284039Y-91776367D02*
X89366073Y-91671983D01*
X89366073Y-91671983D02*
X89452924Y-91571721D01*
X89452924Y-91571721D02*
X89544419Y-91475756D01*
X89544419Y-91475756D02*
X89640384Y-91384261D01*
X89640384Y-91384261D02*
X89740646Y-91297410D01*
X89740646Y-91297410D02*
X89845030Y-91215376D01*
X89845030Y-91215376D02*
X89953364Y-91138334D01*
X89953364Y-91138334D02*
X90065472Y-91066457D01*
X90065472Y-91066457D02*
X90181183Y-90999918D01*
X90181183Y-90999918D02*
X90300321Y-90938893D01*
X90300321Y-90938893D02*
X90422713Y-90883553D01*
X90422713Y-90883553D02*
X90548186Y-90834073D01*
X90548186Y-90834073D02*
X90676565Y-90790627D01*
X90676565Y-90790627D02*
X90807678Y-90753389D01*
X90807678Y-90753389D02*
X90941349Y-90722531D01*
X90941349Y-90722531D02*
X91077406Y-90698228D01*
X91077406Y-90698228D02*
X91215675Y-90680654D01*
X91215675Y-90680654D02*
X91355982Y-90669982D01*
X91355982Y-90669982D02*
X91498154Y-90666387D01*
X130673894Y-91706617D02*
X130673894Y-95559860D01*
X130024640Y-96209114D02*
X129958385Y-96205753D01*
X129958385Y-96205753D02*
X129894031Y-96195893D01*
X129894031Y-96195893D02*
X129831905Y-96179862D01*
X129831905Y-96179862D02*
X129772334Y-96157989D01*
X129772334Y-96157989D02*
X129715647Y-96130605D01*
X129715647Y-96130605D02*
X129662170Y-96098038D01*
X129662170Y-96098038D02*
X129612232Y-96060619D01*
X129612232Y-96060619D02*
X129566159Y-96018677D01*
X129566159Y-96018677D02*
X129524280Y-95972542D01*
X129524280Y-95972542D02*
X129486922Y-95922542D01*
X129486922Y-95922542D02*
X129454413Y-95869009D01*
X129454413Y-95869009D02*
X129427080Y-95812270D01*
X129427080Y-95812270D02*
X129405251Y-95752656D01*
X129405251Y-95752656D02*
X129389253Y-95690497D01*
X129389253Y-95690497D02*
X129379414Y-95626121D01*
X129379414Y-95626121D02*
X129376062Y-95559860D01*
X108774645Y-90665370D02*
X108774734Y-90665370D01*
X101253061Y-93456605D02*
X101255047Y-93535044D01*
X101255047Y-93535044D02*
X101260942Y-93612451D01*
X101260942Y-93612451D02*
X101270649Y-93688731D01*
X101270649Y-93688731D02*
X101284072Y-93763788D01*
X101284072Y-93763788D02*
X101301115Y-93837526D01*
X101301115Y-93837526D02*
X101321683Y-93909849D01*
X101321683Y-93909849D02*
X101345678Y-93980663D01*
X101345678Y-93980663D02*
X101373004Y-94049870D01*
X101373004Y-94049870D02*
X101403566Y-94117377D01*
X101403566Y-94117377D02*
X101437268Y-94183086D01*
X101437268Y-94183086D02*
X101474012Y-94246903D01*
X101474012Y-94246903D02*
X101513704Y-94308732D01*
X101513704Y-94308732D02*
X101556246Y-94368477D01*
X101556246Y-94368477D02*
X101601543Y-94426042D01*
X101601543Y-94426042D02*
X101649498Y-94481333D01*
X101649498Y-94481333D02*
X101700016Y-94534252D01*
X101700016Y-94534252D02*
X101753000Y-94584706D01*
X101753000Y-94584706D02*
X101808354Y-94632597D01*
X101808354Y-94632597D02*
X101865982Y-94677831D01*
X101865982Y-94677831D02*
X101925788Y-94720311D01*
X101925788Y-94720311D02*
X101987675Y-94759943D01*
X101987675Y-94759943D02*
X102051548Y-94796630D01*
X102051548Y-94796630D02*
X102117311Y-94830277D01*
X102117311Y-94830277D02*
X102184866Y-94860788D01*
X102184866Y-94860788D02*
X102254118Y-94888067D01*
X102254118Y-94888067D02*
X102324972Y-94912020D01*
X102324972Y-94912020D02*
X102397329Y-94932550D01*
X102397329Y-94932550D02*
X102471096Y-94949562D01*
X102471096Y-94949562D02*
X102546175Y-94962960D01*
X102546175Y-94962960D02*
X102622470Y-94972648D01*
X102622470Y-94972648D02*
X102699885Y-94978531D01*
X102699885Y-94978531D02*
X102778325Y-94980514D01*
X96785717Y-91904906D02*
X96725252Y-91906669D01*
X96725252Y-91906669D02*
X96664827Y-91910824D01*
X96664827Y-91910824D02*
X96604517Y-91917383D01*
X96604517Y-91917383D02*
X96544397Y-91926355D01*
X96544397Y-91926355D02*
X96484543Y-91937751D01*
X96484543Y-91937751D02*
X96425030Y-91951581D01*
X96425030Y-91951581D02*
X96365935Y-91967855D01*
X96365935Y-91967855D02*
X96307332Y-91986585D01*
X96307332Y-91986585D02*
X96249296Y-92007781D01*
X96249296Y-92007781D02*
X96191905Y-92031452D01*
X96191905Y-92031452D02*
X96135233Y-92057610D01*
X96135233Y-92057610D02*
X96079355Y-92086264D01*
X96079355Y-92086264D02*
X96024348Y-92117426D01*
X96024348Y-92117426D02*
X95970287Y-92151105D01*
X95970287Y-92151105D02*
X95917247Y-92187313D01*
X95917247Y-92187313D02*
X95865304Y-92226059D01*
X106011717Y-95568758D02*
X106011717Y-93550747D01*
X127908757Y-88941490D02*
X127908757Y-88941490D01*
X124132032Y-91876091D02*
X124132032Y-91876091D01*
X104922424Y-88938686D02*
X104985562Y-88941874D01*
X104985562Y-88941874D02*
X105046875Y-88951233D01*
X105046875Y-88951233D02*
X105106053Y-88966451D01*
X105106053Y-88966451D02*
X105162785Y-88987218D01*
X105162785Y-88987218D02*
X105216763Y-89013223D01*
X105216763Y-89013223D02*
X105267674Y-89044156D01*
X105267674Y-89044156D02*
X105315209Y-89079706D01*
X105315209Y-89079706D02*
X105359057Y-89119562D01*
X105359057Y-89119562D02*
X105398909Y-89163414D01*
X105398909Y-89163414D02*
X105434454Y-89210951D01*
X105434454Y-89210951D02*
X105465382Y-89261862D01*
X105465382Y-89261862D02*
X105491382Y-89315838D01*
X105491382Y-89315838D02*
X105512144Y-89372566D01*
X105512144Y-89372566D02*
X105527359Y-89431737D01*
X105527359Y-89431737D02*
X105536715Y-89493039D01*
X105536715Y-89493039D02*
X105539903Y-89556164D01*
X93642248Y-88938686D02*
X93642248Y-88938686D01*
X91498145Y-94980514D02*
X91576584Y-94978531D01*
X91576584Y-94978531D02*
X91653991Y-94972648D01*
X91653991Y-94972648D02*
X91730271Y-94962960D01*
X91730271Y-94962960D02*
X91805328Y-94949562D01*
X91805328Y-94949562D02*
X91879066Y-94932550D01*
X91879066Y-94932550D02*
X91951389Y-94912020D01*
X91951389Y-94912020D02*
X92022203Y-94888067D01*
X92022203Y-94888067D02*
X92091410Y-94860788D01*
X92091410Y-94860788D02*
X92158917Y-94830277D01*
X92158917Y-94830277D02*
X92224626Y-94796630D01*
X92224626Y-94796630D02*
X92288443Y-94759943D01*
X92288443Y-94759943D02*
X92350272Y-94720311D01*
X92350272Y-94720311D02*
X92410017Y-94677831D01*
X92410017Y-94677831D02*
X92467582Y-94632597D01*
X92467582Y-94632597D02*
X92522873Y-94584706D01*
X92522873Y-94584706D02*
X92575792Y-94534252D01*
X92575792Y-94534252D02*
X92626246Y-94481333D01*
X92626246Y-94481333D02*
X92674137Y-94426042D01*
X92674137Y-94426042D02*
X92719371Y-94368477D01*
X92719371Y-94368477D02*
X92761851Y-94308732D01*
X92761851Y-94308732D02*
X92801483Y-94246903D01*
X92801483Y-94246903D02*
X92838170Y-94183086D01*
X92838170Y-94183086D02*
X92871817Y-94117377D01*
X92871817Y-94117377D02*
X92902328Y-94049870D01*
X92902328Y-94049870D02*
X92929607Y-93980663D01*
X92929607Y-93980663D02*
X92953560Y-93909849D01*
X92953560Y-93909849D02*
X92974090Y-93837526D01*
X92974090Y-93837526D02*
X92991102Y-93763788D01*
X92991102Y-93763788D02*
X93004500Y-93688731D01*
X93004500Y-93688731D02*
X93014188Y-93612451D01*
X93014188Y-93612451D02*
X93020071Y-93535044D01*
X93020071Y-93535044D02*
X93022054Y-93456605D01*
X106014685Y-93492533D02*
X106013168Y-93445574D01*
X106013168Y-93445574D02*
X106012900Y-93427116D01*
X91498154Y-90666387D02*
X91550972Y-90666883D01*
X91550972Y-90666883D02*
X91603548Y-90668365D01*
X91603548Y-90668365D02*
X91655872Y-90670824D01*
X91655872Y-90670824D02*
X91707937Y-90674252D01*
X91707937Y-90674252D02*
X91759732Y-90678639D01*
X91759732Y-90678639D02*
X91811251Y-90683977D01*
X91811251Y-90683977D02*
X91862483Y-90690256D01*
X91862483Y-90690256D02*
X91913421Y-90697467D01*
X91913421Y-90697467D02*
X91964055Y-90705602D01*
X91964055Y-90705602D02*
X92014377Y-90714651D01*
X92014377Y-90714651D02*
X92064378Y-90724606D01*
X92064378Y-90724606D02*
X92114049Y-90735458D01*
X92114049Y-90735458D02*
X92163382Y-90747198D01*
X92163382Y-90747198D02*
X92212368Y-90759816D01*
X92212368Y-90759816D02*
X92260999Y-90773304D01*
X92260999Y-90773304D02*
X92309265Y-90787653D01*
X92309265Y-90787653D02*
X92357158Y-90802854D01*
X92357158Y-90802854D02*
X92404669Y-90818898D01*
X92404669Y-90818898D02*
X92451789Y-90835776D01*
X92451789Y-90835776D02*
X92498511Y-90853480D01*
X92498511Y-90853480D02*
X92544824Y-90871999D01*
X92544824Y-90871999D02*
X92590721Y-90891325D01*
X92590721Y-90891325D02*
X92636192Y-90911450D01*
X92636192Y-90911450D02*
X92681230Y-90932364D01*
X92681230Y-90932364D02*
X92725824Y-90954058D01*
X92725824Y-90954058D02*
X92769967Y-90976524D01*
X92769967Y-90976524D02*
X92813650Y-90999752D01*
X92813650Y-90999752D02*
X92856864Y-91023734D01*
X92856864Y-91023734D02*
X92899601Y-91048460D01*
X92899601Y-91048460D02*
X92941851Y-91073922D01*
X92941851Y-91073922D02*
X92983607Y-91100110D01*
X92983607Y-91100110D02*
X93024859Y-91127017D01*
X124132032Y-96190218D02*
X124078692Y-96189712D01*
X124078692Y-96189712D02*
X124025599Y-96188202D01*
X124025599Y-96188202D02*
X123972762Y-96185697D01*
X123972762Y-96185697D02*
X123920190Y-96182206D01*
X123920190Y-96182206D02*
X123867892Y-96177737D01*
X123867892Y-96177737D02*
X123815877Y-96172301D01*
X123815877Y-96172301D02*
X123764154Y-96165906D01*
X123764154Y-96165906D02*
X123712731Y-96158561D01*
X123712731Y-96158561D02*
X123661619Y-96150275D01*
X123661619Y-96150275D02*
X123610826Y-96141058D01*
X123610826Y-96141058D02*
X123560361Y-96130919D01*
X123560361Y-96130919D02*
X123510232Y-96119867D01*
X123510232Y-96119867D02*
X123460450Y-96107910D01*
X123460450Y-96107910D02*
X123411022Y-96095059D01*
X123411022Y-96095059D02*
X123361959Y-96081322D01*
X123361959Y-96081322D02*
X123313268Y-96066708D01*
X123313268Y-96066708D02*
X123264959Y-96051227D01*
X123264959Y-96051227D02*
X123217041Y-96034887D01*
X123217041Y-96034887D02*
X123169524Y-96017698D01*
X123169524Y-96017698D02*
X123122415Y-95999669D01*
X123122415Y-95999669D02*
X123075724Y-95980809D01*
X123075724Y-95980809D02*
X123029459Y-95961127D01*
X123029459Y-95961127D02*
X122983631Y-95940632D01*
X122983631Y-95940632D02*
X122938248Y-95919334D01*
X122938248Y-95919334D02*
X122893318Y-95897241D01*
X122893318Y-95897241D02*
X122848852Y-95874363D01*
X122848852Y-95874363D02*
X122804857Y-95850709D01*
X122804857Y-95850709D02*
X122761344Y-95826288D01*
X122761344Y-95826288D02*
X122718320Y-95801109D01*
X122718320Y-95801109D02*
X122675795Y-95775181D01*
X122675795Y-95775181D02*
X122633778Y-95748513D01*
X122633778Y-95748513D02*
X122592278Y-95721115D01*
X124132032Y-90665370D02*
X124274207Y-90668962D01*
X124274207Y-90668962D02*
X124414517Y-90679622D01*
X124414517Y-90679622D02*
X124552788Y-90697178D01*
X124552788Y-90697178D02*
X124688848Y-90721456D01*
X124688848Y-90721456D02*
X124822521Y-90752283D01*
X124822521Y-90752283D02*
X124953635Y-90789485D01*
X124953635Y-90789485D02*
X125082016Y-90832890D01*
X125082016Y-90832890D02*
X125207490Y-90882324D01*
X125207490Y-90882324D02*
X125329882Y-90937614D01*
X125329882Y-90937614D02*
X125449021Y-90998587D01*
X125449021Y-90998587D02*
X125564731Y-91065069D01*
X125564731Y-91065069D02*
X125676840Y-91136888D01*
X125676840Y-91136888D02*
X125785173Y-91213870D01*
X125785173Y-91213870D02*
X125889557Y-91295841D01*
X125889557Y-91295841D02*
X125989817Y-91382629D01*
X125989817Y-91382629D02*
X126085782Y-91474061D01*
X126085782Y-91474061D02*
X126177276Y-91569962D01*
X126177276Y-91569962D02*
X126264126Y-91670161D01*
X126264126Y-91670161D02*
X126346158Y-91774483D01*
X126346158Y-91774483D02*
X126423199Y-91882756D01*
X126423199Y-91882756D02*
X126495075Y-91994806D01*
X126495075Y-91994806D02*
X126561612Y-92110461D01*
X126561612Y-92110461D02*
X126622636Y-92229546D01*
X126622636Y-92229546D02*
X126677975Y-92351888D01*
X126677975Y-92351888D02*
X126727453Y-92477315D01*
X126727453Y-92477315D02*
X126770898Y-92605653D01*
X126770898Y-92605653D02*
X126808136Y-92736729D01*
X126808136Y-92736729D02*
X126838993Y-92870370D01*
X126838993Y-92870370D02*
X126863295Y-93006402D01*
X126863295Y-93006402D02*
X126880868Y-93144653D01*
X126880868Y-93144653D02*
X126891540Y-93284948D01*
X126891540Y-93284948D02*
X126895136Y-93427116D01*
X111537836Y-93427116D02*
X111534240Y-93569287D01*
X111534240Y-93569287D02*
X111523568Y-93709593D01*
X111523568Y-93709593D02*
X111505994Y-93847862D01*
X111505994Y-93847862D02*
X111481691Y-93983919D01*
X111481691Y-93983919D02*
X111450833Y-94117591D01*
X111450833Y-94117591D02*
X111413595Y-94248703D01*
X111413595Y-94248703D02*
X111370149Y-94377082D01*
X111370149Y-94377082D02*
X111320669Y-94502555D01*
X111320669Y-94502555D02*
X111265330Y-94624947D01*
X111265330Y-94624947D02*
X111204304Y-94744085D01*
X111204304Y-94744085D02*
X111137766Y-94859795D01*
X111137766Y-94859795D02*
X111065889Y-94971904D01*
X111065889Y-94971904D02*
X110988846Y-95080237D01*
X110988846Y-95080237D02*
X110906813Y-95184621D01*
X110906813Y-95184621D02*
X110819962Y-95284883D01*
X110819962Y-95284883D02*
X110728467Y-95380848D01*
X110728467Y-95380848D02*
X110632502Y-95472343D01*
X110632502Y-95472343D02*
X110532240Y-95559194D01*
X110532240Y-95559194D02*
X110427856Y-95641228D01*
X110427856Y-95641228D02*
X110319523Y-95718270D01*
X110319523Y-95718270D02*
X110207414Y-95790147D01*
X110207414Y-95790147D02*
X110091704Y-95856686D01*
X110091704Y-95856686D02*
X109972566Y-95917711D01*
X109972566Y-95917711D02*
X109850174Y-95973051D01*
X109850174Y-95973051D02*
X109724701Y-96022531D01*
X109724701Y-96022531D02*
X109596322Y-96065977D01*
X109596322Y-96065977D02*
X109465209Y-96103215D01*
X109465209Y-96103215D02*
X109331538Y-96134073D01*
X109331538Y-96134073D02*
X109195481Y-96158376D01*
X109195481Y-96158376D02*
X109057212Y-96175950D01*
X109057212Y-96175950D02*
X108916905Y-96186622D01*
X108916905Y-96186622D02*
X108774734Y-96190218D01*
X94259720Y-93276878D02*
X94257476Y-93321941D01*
X94257476Y-93321941D02*
X94257265Y-93324924D01*
X106633094Y-96190218D02*
X106569554Y-96187008D01*
X106569554Y-96187008D02*
X106507851Y-96177590D01*
X106507851Y-96177590D02*
X106448298Y-96162274D01*
X106448298Y-96162274D02*
X106391207Y-96141374D01*
X106391207Y-96141374D02*
X106336888Y-96115202D01*
X106336888Y-96115202D02*
X106285656Y-96084070D01*
X106285656Y-96084070D02*
X106237821Y-96048292D01*
X106237821Y-96048292D02*
X106193697Y-96008179D01*
X106193697Y-96008179D02*
X106153594Y-95964045D01*
X106153594Y-95964045D02*
X106117826Y-95916202D01*
X106117826Y-95916202D02*
X106086704Y-95864962D01*
X106086704Y-95864962D02*
X106060541Y-95810639D01*
X106060541Y-95810639D02*
X106039649Y-95753544D01*
X106039649Y-95753544D02*
X106024339Y-95693990D01*
X106024339Y-95693990D02*
X106014924Y-95632291D01*
X106014924Y-95632291D02*
X106011717Y-95568758D01*
X129376062Y-95559860D02*
X129376062Y-93169855D01*
X114156038Y-88941481D02*
X114222358Y-88944841D01*
X114222358Y-88944841D02*
X114286778Y-88954701D01*
X114286778Y-88954701D02*
X114348971Y-88970732D01*
X114348971Y-88970732D02*
X114408608Y-88992605D01*
X114408608Y-88992605D02*
X114465360Y-89019989D01*
X114465360Y-89019989D02*
X114518900Y-89052556D01*
X114518900Y-89052556D02*
X114568898Y-89089975D01*
X114568898Y-89089975D02*
X114615028Y-89131917D01*
X114615028Y-89131917D02*
X114656960Y-89178053D01*
X114656960Y-89178053D02*
X114694366Y-89228052D01*
X114694366Y-89228052D02*
X114726918Y-89281586D01*
X114726918Y-89281586D02*
X114754288Y-89338325D01*
X114754288Y-89338325D02*
X114776147Y-89397939D01*
X114776147Y-89397939D02*
X114792167Y-89460098D01*
X114792167Y-89460098D02*
X114802019Y-89524474D01*
X114802019Y-89524474D02*
X114805377Y-89590736D01*
X108774734Y-94925265D02*
X108853173Y-94923278D01*
X108853173Y-94923278D02*
X108930588Y-94917383D01*
X108930588Y-94917383D02*
X109006884Y-94907676D01*
X109006884Y-94907676D02*
X109081963Y-94894253D01*
X109081963Y-94894253D02*
X109155730Y-94877210D01*
X109155730Y-94877210D02*
X109228088Y-94856642D01*
X109228088Y-94856642D02*
X109298941Y-94832647D01*
X109298941Y-94832647D02*
X109368194Y-94805321D01*
X109368194Y-94805321D02*
X109435749Y-94774759D01*
X109435749Y-94774759D02*
X109501511Y-94741058D01*
X109501511Y-94741058D02*
X109565384Y-94704313D01*
X109565384Y-94704313D02*
X109627272Y-94664622D01*
X109627272Y-94664622D02*
X109687078Y-94622079D01*
X109687078Y-94622079D02*
X109744706Y-94576783D01*
X109744706Y-94576783D02*
X109800060Y-94528827D01*
X109800060Y-94528827D02*
X109853044Y-94478309D01*
X109853044Y-94478309D02*
X109903562Y-94425325D01*
X109903562Y-94425325D02*
X109951517Y-94369971D01*
X109951517Y-94369971D02*
X109996814Y-94312343D01*
X109996814Y-94312343D02*
X110039357Y-94252537D01*
X110039357Y-94252537D02*
X110079048Y-94190650D01*
X110079048Y-94190650D02*
X110115792Y-94126777D01*
X110115792Y-94126777D02*
X110149494Y-94061014D01*
X110149494Y-94061014D02*
X110180056Y-93993459D01*
X110180056Y-93993459D02*
X110207382Y-93924207D01*
X110207382Y-93924207D02*
X110231377Y-93853353D01*
X110231377Y-93853353D02*
X110251945Y-93780995D01*
X110251945Y-93780995D02*
X110268988Y-93707229D01*
X110268988Y-93707229D02*
X110282411Y-93632150D01*
X110282411Y-93632150D02*
X110292118Y-93555854D01*
X110292118Y-93555854D02*
X110298013Y-93478439D01*
X110298013Y-93478439D02*
X110300000Y-93400000D01*
X122608125Y-93400000D02*
X122610107Y-93478439D01*
X122610107Y-93478439D02*
X122615990Y-93555854D01*
X122615990Y-93555854D02*
X122625679Y-93632150D01*
X122625679Y-93632150D02*
X122639078Y-93707229D01*
X122639078Y-93707229D02*
X122656090Y-93780995D01*
X122656090Y-93780995D02*
X122676621Y-93853353D01*
X122676621Y-93853353D02*
X122700575Y-93924207D01*
X122700575Y-93924207D02*
X122727856Y-93993459D01*
X122727856Y-93993459D02*
X122758369Y-94061014D01*
X122758369Y-94061014D02*
X122792017Y-94126777D01*
X122792017Y-94126777D02*
X122828705Y-94190650D01*
X122828705Y-94190650D02*
X122868338Y-94252537D01*
X122868338Y-94252537D02*
X122910820Y-94312343D01*
X122910820Y-94312343D02*
X122956055Y-94369971D01*
X122956055Y-94369971D02*
X123003947Y-94425325D01*
X123003947Y-94425325D02*
X123054402Y-94478309D01*
X123054402Y-94478309D02*
X123107322Y-94528827D01*
X123107322Y-94528827D02*
X123162613Y-94576783D01*
X123162613Y-94576783D02*
X123220179Y-94622079D01*
X123220179Y-94622079D02*
X123279924Y-94664622D01*
X123279924Y-94664622D02*
X123341753Y-94704313D01*
X123341753Y-94704313D02*
X123405570Y-94741058D01*
X123405570Y-94741058D02*
X123471279Y-94774759D01*
X123471279Y-94774759D02*
X123538785Y-94805321D01*
X123538785Y-94805321D02*
X123607992Y-94832647D01*
X123607992Y-94832647D02*
X123678804Y-94856642D01*
X123678804Y-94856642D02*
X123751126Y-94877210D01*
X123751126Y-94877210D02*
X123824861Y-94894253D01*
X123824861Y-94894253D02*
X123899915Y-94907676D01*
X123899915Y-94907676D02*
X123976192Y-94917383D01*
X123976192Y-94917383D02*
X124053596Y-94923278D01*
X124053596Y-94923278D02*
X124132032Y-94925265D01*
X121990392Y-96190218D02*
X121926852Y-96187008D01*
X121926852Y-96187008D02*
X121865149Y-96177590D01*
X121865149Y-96177590D02*
X121805596Y-96162274D01*
X121805596Y-96162274D02*
X121748505Y-96141374D01*
X121748505Y-96141374D02*
X121694186Y-96115202D01*
X121694186Y-96115202D02*
X121642954Y-96084070D01*
X121642954Y-96084070D02*
X121595119Y-96048292D01*
X121595119Y-96048292D02*
X121550995Y-96008179D01*
X121550995Y-96008179D02*
X121510892Y-95964045D01*
X121510892Y-95964045D02*
X121475124Y-95916202D01*
X121475124Y-95916202D02*
X121444002Y-95864962D01*
X121444002Y-95864962D02*
X121417839Y-95810639D01*
X121417839Y-95810639D02*
X121396947Y-95753544D01*
X121396947Y-95753544D02*
X121381637Y-95693990D01*
X121381637Y-95693990D02*
X121372222Y-95632291D01*
X121372222Y-95632291D02*
X121369015Y-95568758D01*
X98004817Y-94340750D02*
X98038442Y-94295924D01*
X98038442Y-94295924D02*
X98070159Y-94250268D01*
X98070159Y-94250268D02*
X98099978Y-94203832D01*
X98099978Y-94203832D02*
X98127909Y-94156665D01*
X98127909Y-94156665D02*
X98153963Y-94108817D01*
X98153963Y-94108817D02*
X98178150Y-94060339D01*
X98178150Y-94060339D02*
X98200481Y-94011280D01*
X98200481Y-94011280D02*
X98220967Y-93961691D01*
X98220967Y-93961691D02*
X98239617Y-93911623D01*
X98239617Y-93911623D02*
X98256443Y-93861124D01*
X98256443Y-93861124D02*
X98266653Y-93827244D01*
X107234979Y-95721115D02*
X107220200Y-95770778D01*
X107220200Y-95770778D02*
X107201500Y-95818617D01*
X107201500Y-95818617D02*
X107179067Y-95864443D01*
X107179067Y-95864443D02*
X107153088Y-95908063D01*
X107153088Y-95908063D02*
X107123751Y-95949289D01*
X107123751Y-95949289D02*
X107091244Y-95987929D01*
X107091244Y-95987929D02*
X107055754Y-96023792D01*
X107055754Y-96023792D02*
X107017469Y-96056690D01*
X107017469Y-96056690D02*
X106976577Y-96086430D01*
X106976577Y-96086430D02*
X106933265Y-96112823D01*
X106933265Y-96112823D02*
X106887722Y-96135677D01*
X106887722Y-96135677D02*
X106840134Y-96154804D01*
X106840134Y-96154804D02*
X106790689Y-96170012D01*
X106790689Y-96170012D02*
X106739576Y-96181110D01*
X106739576Y-96181110D02*
X106686982Y-96187909D01*
X106686982Y-96187909D02*
X106633094Y-96190218D01*
X104305042Y-89556164D02*
X104308228Y-89493032D01*
X104308228Y-89493032D02*
X104317584Y-89431724D01*
X104317584Y-89431724D02*
X104332797Y-89372550D01*
X104332797Y-89372550D02*
X104353558Y-89315819D01*
X104353558Y-89315819D02*
X104379556Y-89261843D01*
X104379556Y-89261843D02*
X104410482Y-89210932D01*
X104410482Y-89210932D02*
X104446023Y-89163396D01*
X104446023Y-89163396D02*
X104485872Y-89119546D01*
X104485872Y-89119546D02*
X104529715Y-89079692D01*
X104529715Y-89079692D02*
X104577244Y-89044145D01*
X104577244Y-89044145D02*
X104628149Y-89013215D01*
X104628149Y-89013215D02*
X104682117Y-88987212D01*
X104682117Y-88987212D02*
X104738840Y-88966447D01*
X104738840Y-88966447D02*
X104798007Y-88951231D01*
X104798007Y-88951231D02*
X104859307Y-88941874D01*
X104859307Y-88941874D02*
X104922431Y-88938686D01*
X120897201Y-89556164D02*
X120897201Y-93276878D01*
X98266653Y-93827244D02*
X98278649Y-93779547D01*
X98278649Y-93779547D02*
X98289156Y-93731278D01*
X98289156Y-93731278D02*
X98298140Y-93682459D01*
X98298140Y-93682459D02*
X98305566Y-93633114D01*
X98305566Y-93633114D02*
X98311401Y-93583265D01*
X98311401Y-93583265D02*
X98315611Y-93532936D01*
X98315611Y-93532936D02*
X98318162Y-93482150D01*
X98318162Y-93482150D02*
X98319020Y-93430930D01*
X121370198Y-93427116D02*
X121373790Y-93284948D01*
X121373790Y-93284948D02*
X121384450Y-93144653D01*
X121384450Y-93144653D02*
X121402006Y-93006402D01*
X121402006Y-93006402D02*
X121426284Y-92870370D01*
X121426284Y-92870370D02*
X121457111Y-92736729D01*
X121457111Y-92736729D02*
X121494313Y-92605653D01*
X121494313Y-92605653D02*
X121537718Y-92477315D01*
X121537718Y-92477315D02*
X121587152Y-92351888D01*
X121587152Y-92351888D02*
X121642442Y-92229546D01*
X121642442Y-92229546D02*
X121703415Y-92110461D01*
X121703415Y-92110461D02*
X121769897Y-91994806D01*
X121769897Y-91994806D02*
X121841716Y-91882756D01*
X121841716Y-91882756D02*
X121918698Y-91774483D01*
X121918698Y-91774483D02*
X122000669Y-91670161D01*
X122000669Y-91670161D02*
X122087457Y-91569962D01*
X122087457Y-91569962D02*
X122178889Y-91474061D01*
X122178889Y-91474061D02*
X122274790Y-91382629D01*
X122274790Y-91382629D02*
X122374989Y-91295841D01*
X122374989Y-91295841D02*
X122479311Y-91213870D01*
X122479311Y-91213870D02*
X122587584Y-91136888D01*
X122587584Y-91136888D02*
X122699634Y-91065069D01*
X122699634Y-91065069D02*
X122815288Y-90998587D01*
X122815288Y-90998587D02*
X122934373Y-90937614D01*
X122934373Y-90937614D02*
X123056716Y-90882324D01*
X123056716Y-90882324D02*
X123182143Y-90832890D01*
X123182143Y-90832890D02*
X123310481Y-90789485D01*
X123310481Y-90789485D02*
X123441557Y-90752283D01*
X123441557Y-90752283D02*
X123575197Y-90721456D01*
X123575197Y-90721456D02*
X123711230Y-90697178D01*
X123711230Y-90697178D02*
X123849480Y-90679622D01*
X123849480Y-90679622D02*
X123989775Y-90668962D01*
X123989775Y-90668962D02*
X124131943Y-90665370D01*
X108774734Y-91876091D02*
X108774734Y-91876091D01*
X93022054Y-93456605D02*
X93020071Y-93378165D01*
X93020071Y-93378165D02*
X93014188Y-93300750D01*
X93014188Y-93300750D02*
X93004500Y-93224455D01*
X93004500Y-93224455D02*
X92991102Y-93149376D01*
X92991102Y-93149376D02*
X92974090Y-93075609D01*
X92974090Y-93075609D02*
X92953560Y-93003251D01*
X92953560Y-93003251D02*
X92929607Y-92932398D01*
X92929607Y-92932398D02*
X92902328Y-92863145D01*
X92902328Y-92863145D02*
X92871817Y-92795590D01*
X92871817Y-92795590D02*
X92838170Y-92729828D01*
X92838170Y-92729828D02*
X92801483Y-92665955D01*
X92801483Y-92665955D02*
X92761851Y-92604067D01*
X92761851Y-92604067D02*
X92719371Y-92544261D01*
X92719371Y-92544261D02*
X92674137Y-92486633D01*
X92674137Y-92486633D02*
X92626246Y-92431279D01*
X92626246Y-92431279D02*
X92575792Y-92378295D01*
X92575792Y-92378295D02*
X92522873Y-92327777D01*
X92522873Y-92327777D02*
X92467582Y-92279822D01*
X92467582Y-92279822D02*
X92410017Y-92234525D01*
X92410017Y-92234525D02*
X92350272Y-92191983D01*
X92350272Y-92191983D02*
X92288443Y-92152291D01*
X92288443Y-92152291D02*
X92224626Y-92115547D01*
X92224626Y-92115547D02*
X92158917Y-92081845D01*
X92158917Y-92081845D02*
X92091410Y-92051283D01*
X92091410Y-92051283D02*
X92022203Y-92023957D01*
X92022203Y-92023957D02*
X91951389Y-91999962D01*
X91951389Y-91999962D02*
X91879066Y-91979394D01*
X91879066Y-91979394D02*
X91805328Y-91962351D01*
X91805328Y-91962351D02*
X91730271Y-91948928D01*
X91730271Y-91948928D02*
X91653991Y-91939221D01*
X91653991Y-91939221D02*
X91576584Y-91933326D01*
X91576584Y-91933326D02*
X91498145Y-91931340D01*
X94259899Y-93429489D02*
X94256307Y-93571660D01*
X94256307Y-93571660D02*
X94245646Y-93711958D01*
X94245646Y-93711958D02*
X94228091Y-93850212D01*
X94228091Y-93850212D02*
X94203814Y-93986246D01*
X94203814Y-93986246D02*
X94172988Y-94119889D01*
X94172988Y-94119889D02*
X94135786Y-94250967D01*
X94135786Y-94250967D02*
X94092383Y-94379306D01*
X94092383Y-94379306D02*
X94042950Y-94504734D01*
X94042950Y-94504734D02*
X93987661Y-94627077D01*
X93987661Y-94627077D02*
X93926689Y-94746162D01*
X93926689Y-94746162D02*
X93860209Y-94861817D01*
X93860209Y-94861817D02*
X93788391Y-94973867D01*
X93788391Y-94973867D02*
X93711411Y-95082139D01*
X93711411Y-95082139D02*
X93629441Y-95186461D01*
X93629441Y-95186461D02*
X93542654Y-95286659D01*
X93542654Y-95286659D02*
X93451223Y-95382559D01*
X93451223Y-95382559D02*
X93355322Y-95473990D01*
X93355322Y-95473990D02*
X93255125Y-95560777D01*
X93255125Y-95560777D02*
X93150803Y-95642747D01*
X93150803Y-95642747D02*
X93042530Y-95719727D01*
X93042530Y-95719727D02*
X92930480Y-95791545D01*
X92930480Y-95791545D02*
X92814826Y-95858026D01*
X92814826Y-95858026D02*
X92695741Y-95918997D01*
X92695741Y-95918997D02*
X92573398Y-95974286D01*
X92573398Y-95974286D02*
X92447970Y-96023719D01*
X92447970Y-96023719D02*
X92319631Y-96067122D01*
X92319631Y-96067122D02*
X92188553Y-96104324D01*
X92188553Y-96104324D02*
X92054911Y-96135150D01*
X92054911Y-96135150D02*
X91918876Y-96159427D01*
X91918876Y-96159427D02*
X91780623Y-96176982D01*
X91780623Y-96176982D02*
X91640324Y-96187643D01*
X91640324Y-96187643D02*
X91498154Y-96191235D01*
X124132032Y-94925265D02*
X124210475Y-94923278D01*
X124210475Y-94923278D02*
X124287893Y-94917383D01*
X124287893Y-94917383D02*
X124364192Y-94907676D01*
X124364192Y-94907676D02*
X124439273Y-94894253D01*
X124439273Y-94894253D02*
X124513042Y-94877210D01*
X124513042Y-94877210D02*
X124585401Y-94856642D01*
X124585401Y-94856642D02*
X124656256Y-94832647D01*
X124656256Y-94832647D02*
X124725509Y-94805321D01*
X124725509Y-94805321D02*
X124793065Y-94774759D01*
X124793065Y-94774759D02*
X124858828Y-94741058D01*
X124858828Y-94741058D02*
X124922701Y-94704313D01*
X124922701Y-94704313D02*
X124984588Y-94664622D01*
X124984588Y-94664622D02*
X125044394Y-94622079D01*
X125044394Y-94622079D02*
X125102021Y-94576783D01*
X125102021Y-94576783D02*
X125157375Y-94528827D01*
X125157375Y-94528827D02*
X125210358Y-94478309D01*
X125210358Y-94478309D02*
X125260875Y-94425325D01*
X125260875Y-94425325D02*
X125308829Y-94369971D01*
X125308829Y-94369971D02*
X125354125Y-94312343D01*
X125354125Y-94312343D02*
X125396666Y-94252537D01*
X125396666Y-94252537D02*
X125436356Y-94190650D01*
X125436356Y-94190650D02*
X125473099Y-94126777D01*
X125473099Y-94126777D02*
X125506799Y-94061014D01*
X125506799Y-94061014D02*
X125537360Y-93993459D01*
X125537360Y-93993459D02*
X125564685Y-93924207D01*
X125564685Y-93924207D02*
X125588679Y-93853353D01*
X125588679Y-93853353D02*
X125609245Y-93780995D01*
X125609245Y-93780995D02*
X125626288Y-93707229D01*
X125626288Y-93707229D02*
X125639710Y-93632150D01*
X125639710Y-93632150D02*
X125649417Y-93555854D01*
X125649417Y-93555854D02*
X125655311Y-93478439D01*
X125655311Y-93478439D02*
X125657298Y-93400000D01*
X99371646Y-94398286D02*
X99371200Y-94399558D01*
X129376062Y-91871778D02*
X129376062Y-91706626D01*
X91498145Y-91931340D02*
X91419705Y-91933326D01*
X91419705Y-91933326D02*
X91342290Y-91939220D01*
X91342290Y-91939220D02*
X91265995Y-91948927D01*
X91265995Y-91948927D02*
X91190916Y-91962349D01*
X91190916Y-91962349D02*
X91117149Y-91979392D01*
X91117149Y-91979392D02*
X91044791Y-91999958D01*
X91044791Y-91999958D02*
X90973938Y-92023952D01*
X90973938Y-92023952D02*
X90904685Y-92051277D01*
X90904685Y-92051277D02*
X90837130Y-92081838D01*
X90837130Y-92081838D02*
X90771367Y-92115538D01*
X90771367Y-92115538D02*
X90707494Y-92152281D01*
X90707494Y-92152281D02*
X90645607Y-92191971D01*
X90645607Y-92191971D02*
X90585801Y-92234512D01*
X90585801Y-92234512D02*
X90528173Y-92279808D01*
X90528173Y-92279808D02*
X90472819Y-92327762D01*
X90472819Y-92327762D02*
X90419835Y-92378279D01*
X90419835Y-92378279D02*
X90369317Y-92431262D01*
X90369317Y-92431262D02*
X90321361Y-92486615D01*
X90321361Y-92486615D02*
X90276064Y-92544243D01*
X90276064Y-92544243D02*
X90233522Y-92604048D01*
X90233522Y-92604048D02*
X90193830Y-92665935D01*
X90193830Y-92665935D02*
X90157086Y-92729808D01*
X90157086Y-92729808D02*
X90123385Y-92795571D01*
X90123385Y-92795571D02*
X90092822Y-92863127D01*
X90092822Y-92863127D02*
X90065496Y-92932380D01*
X90065496Y-92932380D02*
X90041501Y-93003235D01*
X90041501Y-93003235D02*
X90020934Y-93075594D01*
X90020934Y-93075594D02*
X90003890Y-93149363D01*
X90003890Y-93149363D02*
X89990467Y-93224444D01*
X89990467Y-93224444D02*
X89980760Y-93300743D01*
X89980760Y-93300743D02*
X89974865Y-93378161D01*
X89974865Y-93378161D02*
X89972879Y-93456605D01*
X102778336Y-96191235D02*
X102636164Y-96187643D01*
X102636164Y-96187643D02*
X102495857Y-96176982D01*
X102495857Y-96176982D02*
X102357589Y-96159427D01*
X102357589Y-96159427D02*
X102221532Y-96135150D01*
X102221532Y-96135150D02*
X102087860Y-96104324D01*
X102087860Y-96104324D02*
X101956748Y-96067122D01*
X101956748Y-96067122D02*
X101828369Y-96023719D01*
X101828369Y-96023719D02*
X101702896Y-95974286D01*
X101702896Y-95974286D02*
X101580504Y-95918997D01*
X101580504Y-95918997D02*
X101461366Y-95858026D01*
X101461366Y-95858026D02*
X101345656Y-95791545D01*
X101345656Y-95791545D02*
X101233547Y-95719727D01*
X101233547Y-95719727D02*
X101125214Y-95642747D01*
X101125214Y-95642747D02*
X101020830Y-95560777D01*
X101020830Y-95560777D02*
X100920568Y-95473990D01*
X100920568Y-95473990D02*
X100824603Y-95382559D01*
X100824603Y-95382559D02*
X100733108Y-95286659D01*
X100733108Y-95286659D02*
X100646257Y-95186461D01*
X100646257Y-95186461D02*
X100564223Y-95082139D01*
X100564223Y-95082139D02*
X100487181Y-94973867D01*
X100487181Y-94973867D02*
X100415304Y-94861817D01*
X100415304Y-94861817D02*
X100348766Y-94746162D01*
X100348766Y-94746162D02*
X100287740Y-94627077D01*
X100287740Y-94627077D02*
X100232401Y-94504734D01*
X100232401Y-94504734D02*
X100182921Y-94379306D01*
X100182921Y-94379306D02*
X100139475Y-94250967D01*
X100139475Y-94250967D02*
X100102237Y-94119889D01*
X100102237Y-94119889D02*
X100071379Y-93986246D01*
X100071379Y-93986246D02*
X100047076Y-93850212D01*
X100047076Y-93850212D02*
X100029502Y-93711958D01*
X100029502Y-93711958D02*
X100018830Y-93571660D01*
X100018830Y-93571660D02*
X100015235Y-93429489D01*
X120279738Y-88938686D02*
X120279722Y-88938686D01*
X99556711Y-93403813D02*
X99555941Y-93469394D01*
X99555941Y-93469394D02*
X99553645Y-93534592D01*
X99553645Y-93534592D02*
X99549840Y-93599392D01*
X99549840Y-93599392D02*
X99544546Y-93663777D01*
X99544546Y-93663777D02*
X99537782Y-93727731D01*
X99537782Y-93727731D02*
X99529565Y-93791238D01*
X99529565Y-93791238D02*
X99519915Y-93854284D01*
X99519915Y-93854284D02*
X99508850Y-93916851D01*
X99508850Y-93916851D02*
X99496390Y-93978925D01*
X99496390Y-93978925D02*
X99482552Y-94040489D01*
X99482552Y-94040489D02*
X99467355Y-94101527D01*
X99467355Y-94101527D02*
X99450818Y-94162025D01*
X99450818Y-94162025D02*
X99432960Y-94221965D01*
X99432960Y-94221965D02*
X99413800Y-94281332D01*
X99413800Y-94281332D02*
X99393355Y-94340111D01*
X99393355Y-94340111D02*
X99371646Y-94398286D01*
X96795051Y-90640712D02*
X96937221Y-90644307D01*
X96937221Y-90644307D02*
X97077519Y-90654979D01*
X97077519Y-90654979D02*
X97215772Y-90672553D01*
X97215772Y-90672553D02*
X97351805Y-90696856D01*
X97351805Y-90696856D02*
X97485445Y-90727714D01*
X97485445Y-90727714D02*
X97616521Y-90764952D01*
X97616521Y-90764952D02*
X97744857Y-90808398D01*
X97744857Y-90808398D02*
X97870282Y-90857878D01*
X97870282Y-90857878D02*
X97992623Y-90913217D01*
X97992623Y-90913217D02*
X98111704Y-90974243D01*
X98111704Y-90974243D02*
X98227355Y-91040782D01*
X98227355Y-91040782D02*
X98339401Y-91112659D01*
X98339401Y-91112659D02*
X98447670Y-91189701D01*
X98447670Y-91189701D02*
X98551988Y-91271734D01*
X98551988Y-91271734D02*
X98652182Y-91358585D01*
X98652182Y-91358585D02*
X98748078Y-91450080D01*
X98748078Y-91450080D02*
X98839505Y-91546045D01*
X98839505Y-91546045D02*
X98926288Y-91646307D01*
X98926288Y-91646307D02*
X99008254Y-91750691D01*
X99008254Y-91750691D02*
X99085231Y-91859025D01*
X99085231Y-91859025D02*
X99157044Y-91971133D01*
X99157044Y-91971133D02*
X99223522Y-92086843D01*
X99223522Y-92086843D02*
X99284490Y-92205981D01*
X99284490Y-92205981D02*
X99339775Y-92328374D01*
X99339775Y-92328374D02*
X99389205Y-92453846D01*
X99389205Y-92453846D02*
X99432606Y-92582225D01*
X99432606Y-92582225D02*
X99469806Y-92713337D01*
X99469806Y-92713337D02*
X99500630Y-92847009D01*
X99500630Y-92847009D02*
X99524905Y-92983066D01*
X99524905Y-92983066D02*
X99542459Y-93121335D01*
X99542459Y-93121335D02*
X99553119Y-93261641D01*
X99553119Y-93261641D02*
X99556711Y-93403813D01*
X119662342Y-91127017D02*
X119662342Y-89556164D01*
X113507548Y-89590736D02*
X113510899Y-89524474D01*
X113510899Y-89524474D02*
X113520735Y-89460098D01*
X113520735Y-89460098D02*
X113536729Y-89397939D01*
X113536729Y-89397939D02*
X113558553Y-89338325D01*
X113558553Y-89338325D02*
X113585879Y-89281586D01*
X113585879Y-89281586D02*
X113618381Y-89228053D01*
X113618381Y-89228053D02*
X113655731Y-89178053D01*
X113655731Y-89178053D02*
X113697602Y-89131918D01*
X113697602Y-89131918D02*
X113743666Y-89089976D01*
X113743666Y-89089976D02*
X113793596Y-89052556D01*
X113793596Y-89052556D02*
X113847066Y-89019990D01*
X113847066Y-89019990D02*
X113903746Y-88992605D01*
X113903746Y-88992605D02*
X113963311Y-88970733D01*
X113963311Y-88970733D02*
X114025433Y-88954701D01*
X114025433Y-88954701D02*
X114089784Y-88944841D01*
X114089784Y-88944841D02*
X114156038Y-88941481D01*
X121369015Y-95568758D02*
X121369015Y-93550747D01*
X121369015Y-93550747D02*
X121370877Y-93505151D01*
X121370877Y-93505151D02*
X121371983Y-93492533D01*
X114805377Y-93443894D02*
X114801772Y-93586013D01*
X114801772Y-93586013D02*
X114791074Y-93726287D01*
X114791074Y-93726287D02*
X114773458Y-93864540D01*
X114773458Y-93864540D02*
X114749100Y-94000598D01*
X114749100Y-94000598D02*
X114718174Y-94134285D01*
X114718174Y-94134285D02*
X114680855Y-94265427D01*
X114680855Y-94265427D02*
X114637318Y-94393849D01*
X114637318Y-94393849D02*
X114587739Y-94519376D01*
X114587739Y-94519376D02*
X114532292Y-94641833D01*
X114532292Y-94641833D02*
X114471152Y-94761046D01*
X114471152Y-94761046D02*
X114404496Y-94876839D01*
X114404496Y-94876839D02*
X114332496Y-94989039D01*
X114332496Y-94989039D02*
X114255329Y-95097469D01*
X114255329Y-95097469D02*
X114173170Y-95201956D01*
X114173170Y-95201956D02*
X114086193Y-95302324D01*
X114086193Y-95302324D02*
X113994575Y-95398399D01*
X113994575Y-95398399D02*
X113898488Y-95490005D01*
X113898488Y-95490005D02*
X113798110Y-95576968D01*
X113798110Y-95576968D02*
X113693615Y-95659114D01*
X113693615Y-95659114D02*
X113585177Y-95736266D01*
X113585177Y-95736266D02*
X113472972Y-95808251D01*
X113472972Y-95808251D02*
X113357176Y-95874894D01*
X113357176Y-95874894D02*
X113237962Y-95936019D01*
X113237962Y-95936019D02*
X113115506Y-95991453D01*
X113115506Y-95991453D02*
X112989984Y-96041019D01*
X112989984Y-96041019D02*
X112861570Y-96084544D01*
X112861570Y-96084544D02*
X112730438Y-96121853D01*
X112730438Y-96121853D02*
X112596766Y-96152770D01*
X112596766Y-96152770D02*
X112460726Y-96177121D01*
X112460726Y-96177121D02*
X112322495Y-96194731D01*
X112322495Y-96194731D02*
X112182247Y-96205425D01*
X112182247Y-96205425D02*
X112040158Y-96209029D01*
X129376062Y-93169855D02*
X127908757Y-93169855D01*
X95087918Y-95605280D02*
X95027274Y-95551299D01*
X95027274Y-95551299D02*
X94974809Y-95495399D01*
X94974809Y-95495399D02*
X94930252Y-95437917D01*
X94930252Y-95437917D02*
X94893334Y-95379193D01*
X94893334Y-95379193D02*
X94863786Y-95319566D01*
X94863786Y-95319566D02*
X94841336Y-95259376D01*
X94841336Y-95259376D02*
X94825715Y-95198960D01*
X94825715Y-95198960D02*
X94816654Y-95138659D01*
X94816654Y-95138659D02*
X94813882Y-95078812D01*
X94813882Y-95078812D02*
X94817129Y-95019757D01*
X94817129Y-95019757D02*
X94826127Y-94961833D01*
X94826127Y-94961833D02*
X94840604Y-94905381D01*
X94840604Y-94905381D02*
X94860290Y-94850738D01*
X94860290Y-94850738D02*
X94884917Y-94798244D01*
X94884917Y-94798244D02*
X94914215Y-94748239D01*
X94914215Y-94748239D02*
X94947912Y-94701061D01*
X94947912Y-94701061D02*
X94985740Y-94657048D01*
X94985740Y-94657048D02*
X95027428Y-94616542D01*
X95027428Y-94616542D02*
X95072707Y-94579880D01*
X95072707Y-94579880D02*
X95121307Y-94547401D01*
X95121307Y-94547401D02*
X95172957Y-94519445D01*
X95172957Y-94519445D02*
X95227389Y-94496351D01*
X95227389Y-94496351D02*
X95284332Y-94478459D01*
X95284332Y-94478459D02*
X95343516Y-94466106D01*
X95343516Y-94466106D02*
X95404672Y-94459632D01*
X95404672Y-94459632D02*
X95467529Y-94459376D01*
X95467529Y-94459376D02*
X95531818Y-94465678D01*
X95531818Y-94465678D02*
X95597268Y-94478877D01*
X95597268Y-94478877D02*
X95663611Y-94499311D01*
X95663611Y-94499311D02*
X95730576Y-94527320D01*
X95730576Y-94527320D02*
X95797892Y-94563242D01*
X95797892Y-94563242D02*
X95865292Y-94607418D01*
X106011717Y-93550747D02*
X106013579Y-93505151D01*
X106013579Y-93505151D02*
X106014685Y-93492533D01*
X99330780Y-94499039D02*
X99304072Y-94560163D01*
X99304072Y-94560163D02*
X99275815Y-94620829D01*
X99275815Y-94620829D02*
X99245998Y-94681004D01*
X99245998Y-94681004D02*
X99214613Y-94740660D01*
X99214613Y-94740660D02*
X99192814Y-94780128D01*
X99192814Y-94780128D02*
X99170311Y-94819342D01*
X99170311Y-94819342D02*
X99147102Y-94858294D01*
X99147102Y-94858294D02*
X99123183Y-94896975D01*
X99123183Y-94896975D02*
X99098553Y-94935376D01*
X99098553Y-94935376D02*
X99073208Y-94973488D01*
X99073208Y-94973488D02*
X99047146Y-95011303D01*
X99047146Y-95011303D02*
X99020364Y-95048811D01*
X99020364Y-95048811D02*
X98992859Y-95086004D01*
X98992859Y-95086004D02*
X98964630Y-95122873D01*
X127908757Y-90238897D02*
X127842441Y-90235545D01*
X127842441Y-90235545D02*
X127778034Y-90225709D01*
X127778034Y-90225709D02*
X127715863Y-90209715D01*
X127715863Y-90209715D02*
X127656253Y-90187891D01*
X127656253Y-90187891D02*
X127599533Y-90160565D01*
X127599533Y-90160565D02*
X127546029Y-90128063D01*
X127546029Y-90128063D02*
X127496069Y-90090713D01*
X127496069Y-90090713D02*
X127449979Y-90048842D01*
X127449979Y-90048842D02*
X127408087Y-90002777D01*
X127408087Y-90002777D02*
X127370719Y-89952847D01*
X127370719Y-89952847D02*
X127338203Y-89899378D01*
X127338203Y-89899378D02*
X127310865Y-89842697D01*
X127310865Y-89842697D02*
X127289033Y-89783132D01*
X127289033Y-89783132D02*
X127273034Y-89721010D01*
X127273034Y-89721010D02*
X127263195Y-89656659D01*
X127263195Y-89656659D02*
X127259843Y-89590406D01*
X102778325Y-94980514D02*
X102856764Y-94978531D01*
X102856764Y-94978531D02*
X102934171Y-94972648D01*
X102934171Y-94972648D02*
X103010451Y-94962960D01*
X103010451Y-94962960D02*
X103085508Y-94949562D01*
X103085508Y-94949562D02*
X103159246Y-94932550D01*
X103159246Y-94932550D02*
X103231570Y-94912020D01*
X103231570Y-94912020D02*
X103302383Y-94888067D01*
X103302383Y-94888067D02*
X103371591Y-94860788D01*
X103371591Y-94860788D02*
X103439097Y-94830277D01*
X103439097Y-94830277D02*
X103504807Y-94796630D01*
X103504807Y-94796630D02*
X103568624Y-94759943D01*
X103568624Y-94759943D02*
X103630453Y-94720311D01*
X103630453Y-94720311D02*
X103690198Y-94677831D01*
X103690198Y-94677831D02*
X103747763Y-94632597D01*
X103747763Y-94632597D02*
X103803054Y-94584706D01*
X103803054Y-94584706D02*
X103855973Y-94534252D01*
X103855973Y-94534252D02*
X103906427Y-94481333D01*
X103906427Y-94481333D02*
X103954318Y-94426042D01*
X103954318Y-94426042D02*
X103999552Y-94368477D01*
X103999552Y-94368477D02*
X104042032Y-94308732D01*
X104042032Y-94308732D02*
X104081664Y-94246903D01*
X104081664Y-94246903D02*
X104118351Y-94183086D01*
X104118351Y-94183086D02*
X104151998Y-94117377D01*
X104151998Y-94117377D02*
X104182509Y-94049870D01*
X104182509Y-94049870D02*
X104209788Y-93980663D01*
X104209788Y-93980663D02*
X104233741Y-93909849D01*
X104233741Y-93909849D02*
X104254271Y-93837526D01*
X104254271Y-93837526D02*
X104271283Y-93763788D01*
X104271283Y-93763788D02*
X104284681Y-93688731D01*
X104284681Y-93688731D02*
X104294369Y-93612451D01*
X104294369Y-93612451D02*
X104300252Y-93535044D01*
X104300252Y-93535044D02*
X104302235Y-93456605D01*
X127259843Y-92520685D02*
X127263195Y-92454491D01*
X127263195Y-92454491D02*
X127273034Y-92390190D01*
X127273034Y-92390190D02*
X127289033Y-92328110D01*
X127289033Y-92328110D02*
X127310865Y-92268579D01*
X127310865Y-92268579D02*
X127338203Y-92211925D01*
X127338203Y-92211925D02*
X127370719Y-92158476D01*
X127370719Y-92158476D02*
X127408087Y-92108560D01*
X127408087Y-92108560D02*
X127449979Y-92062505D01*
X127449979Y-92062505D02*
X127496069Y-92020640D01*
X127496069Y-92020640D02*
X127546029Y-91983292D01*
X127546029Y-91983292D02*
X127599533Y-91950790D01*
X127599533Y-91950790D02*
X127656253Y-91923462D01*
X127656253Y-91923462D02*
X127715863Y-91901635D01*
X127715863Y-91901635D02*
X127778034Y-91885639D01*
X127778034Y-91885639D02*
X127842441Y-91875800D01*
X127842441Y-91875800D02*
X127908757Y-91872448D01*
X108774734Y-91876091D02*
X108696294Y-91878073D01*
X108696294Y-91878073D02*
X108618887Y-91883956D01*
X108618887Y-91883956D02*
X108542607Y-91893644D01*
X108542607Y-91893644D02*
X108467551Y-91907042D01*
X108467551Y-91907042D02*
X108393813Y-91924054D01*
X108393813Y-91924054D02*
X108321490Y-91944584D01*
X108321490Y-91944584D02*
X108250676Y-91968537D01*
X108250676Y-91968537D02*
X108181469Y-91995816D01*
X108181469Y-91995816D02*
X108113962Y-92026328D01*
X108113962Y-92026328D02*
X108048253Y-92059975D01*
X108048253Y-92059975D02*
X107984436Y-92096662D01*
X107984436Y-92096662D02*
X107922607Y-92136293D01*
X107922607Y-92136293D02*
X107862862Y-92178774D01*
X107862862Y-92178774D02*
X107805296Y-92224007D01*
X107805296Y-92224007D02*
X107750006Y-92271899D01*
X107750006Y-92271899D02*
X107697086Y-92322352D01*
X107697086Y-92322352D02*
X107646633Y-92375272D01*
X107646633Y-92375272D02*
X107598742Y-92430562D01*
X107598742Y-92430562D02*
X107553508Y-92488128D01*
X107553508Y-92488128D02*
X107511027Y-92547872D01*
X107511027Y-92547872D02*
X107471396Y-92609701D01*
X107471396Y-92609701D02*
X107434709Y-92673518D01*
X107434709Y-92673518D02*
X107401062Y-92739228D01*
X107401062Y-92739228D02*
X107370551Y-92806734D01*
X107370551Y-92806734D02*
X107343271Y-92875942D01*
X107343271Y-92875942D02*
X107319318Y-92946755D01*
X107319318Y-92946755D02*
X107298788Y-93019079D01*
X107298788Y-93019079D02*
X107281776Y-93092817D01*
X107281776Y-93092817D02*
X107268378Y-93167873D01*
X107268378Y-93167873D02*
X107258690Y-93244153D01*
X107258690Y-93244153D02*
X107252807Y-93321560D01*
X107252807Y-93321560D02*
X107250825Y-93400000D01*
X104305042Y-91127017D02*
X104305042Y-89556164D01*
X96795122Y-90640716D02*
X96795051Y-90640712D01*
X127259843Y-89590406D02*
X127263195Y-89524090D01*
X127263195Y-89524090D02*
X127273034Y-89459683D01*
X127273034Y-89459683D02*
X127289033Y-89397511D01*
X127289033Y-89397511D02*
X127310865Y-89337901D01*
X127310865Y-89337901D02*
X127338203Y-89281181D01*
X127338203Y-89281181D02*
X127370719Y-89227677D01*
X127370719Y-89227677D02*
X127408087Y-89177716D01*
X127408087Y-89177716D02*
X127449979Y-89131626D01*
X127449979Y-89131626D02*
X127496069Y-89089734D01*
X127496069Y-89089734D02*
X127546029Y-89052366D01*
X127546029Y-89052366D02*
X127599533Y-89019850D01*
X127599533Y-89019850D02*
X127656253Y-88992512D01*
X127656253Y-88992512D02*
X127715863Y-88970680D01*
X127715863Y-88970680D02*
X127778034Y-88954681D01*
X127778034Y-88954681D02*
X127842441Y-88944842D01*
X127842441Y-88944842D02*
X127908757Y-88941490D01*
X95865292Y-94607418D02*
X95928391Y-94654056D01*
X95928391Y-94654056D02*
X95993078Y-94696978D01*
X95993078Y-94696978D02*
X96059218Y-94736199D01*
X96059218Y-94736199D02*
X96126678Y-94771737D01*
X96126678Y-94771737D02*
X96195321Y-94803609D01*
X96195321Y-94803609D02*
X96265015Y-94831833D01*
X96265015Y-94831833D02*
X96335624Y-94856424D01*
X96335624Y-94856424D02*
X96407013Y-94877400D01*
X96407013Y-94877400D02*
X96479049Y-94894779D01*
X96479049Y-94894779D02*
X96551597Y-94908577D01*
X96551597Y-94908577D02*
X96624521Y-94918811D01*
X96624521Y-94918811D02*
X96697688Y-94925498D01*
X96697688Y-94925498D02*
X96770964Y-94928656D01*
X96770964Y-94928656D02*
X96844213Y-94928302D01*
X96844213Y-94928302D02*
X96917301Y-94924452D01*
X96917301Y-94924452D02*
X96990094Y-94917124D01*
X96990094Y-94917124D02*
X97062456Y-94906335D01*
X97062456Y-94906335D02*
X97134254Y-94892101D01*
X97134254Y-94892101D02*
X97205353Y-94874441D01*
X97205353Y-94874441D02*
X97275619Y-94853370D01*
X97275619Y-94853370D02*
X97344916Y-94828906D01*
X97344916Y-94828906D02*
X97413111Y-94801067D01*
X97413111Y-94801067D02*
X97480068Y-94769868D01*
X97480068Y-94769868D02*
X97545654Y-94735328D01*
X97545654Y-94735328D02*
X97609734Y-94697463D01*
X97609734Y-94697463D02*
X97672172Y-94656290D01*
X97672172Y-94656290D02*
X97732836Y-94611827D01*
X97732836Y-94611827D02*
X97791590Y-94564090D01*
X97791590Y-94564090D02*
X97848299Y-94513097D01*
X97848299Y-94513097D02*
X97902830Y-94458865D01*
X97902830Y-94458865D02*
X97955047Y-94401410D01*
X97955047Y-94401410D02*
X98004817Y-94340750D01*
X104922431Y-88938686D02*
X104922431Y-88938686D01*
X89972879Y-93456605D02*
X89974865Y-93535044D01*
X89974865Y-93535044D02*
X89980760Y-93612451D01*
X89980760Y-93612451D02*
X89990467Y-93688731D01*
X89990467Y-93688731D02*
X90003890Y-93763788D01*
X90003890Y-93763788D02*
X90020934Y-93837526D01*
X90020934Y-93837526D02*
X90041501Y-93909849D01*
X90041501Y-93909849D02*
X90065496Y-93980663D01*
X90065496Y-93980663D02*
X90092822Y-94049870D01*
X90092822Y-94049870D02*
X90123385Y-94117377D01*
X90123385Y-94117377D02*
X90157086Y-94183086D01*
X90157086Y-94183086D02*
X90193830Y-94246903D01*
X90193830Y-94246903D02*
X90233522Y-94308732D01*
X90233522Y-94308732D02*
X90276064Y-94368477D01*
X90276064Y-94368477D02*
X90321361Y-94426042D01*
X90321361Y-94426042D02*
X90369317Y-94481333D01*
X90369317Y-94481333D02*
X90419835Y-94534252D01*
X90419835Y-94534252D02*
X90472819Y-94584706D01*
X90472819Y-94584706D02*
X90528173Y-94632597D01*
X90528173Y-94632597D02*
X90585801Y-94677831D01*
X90585801Y-94677831D02*
X90645607Y-94720311D01*
X90645607Y-94720311D02*
X90707494Y-94759943D01*
X90707494Y-94759943D02*
X90771367Y-94796630D01*
X90771367Y-94796630D02*
X90837130Y-94830277D01*
X90837130Y-94830277D02*
X90904685Y-94860788D01*
X90904685Y-94860788D02*
X90973938Y-94888067D01*
X90973938Y-94888067D02*
X91044791Y-94912020D01*
X91044791Y-94912020D02*
X91117149Y-94932550D01*
X91117149Y-94932550D02*
X91190916Y-94949562D01*
X91190916Y-94949562D02*
X91265995Y-94962960D01*
X91265995Y-94962960D02*
X91342290Y-94972648D01*
X91342290Y-94972648D02*
X91419705Y-94978531D01*
X91419705Y-94978531D02*
X91498145Y-94980514D01*
X104302235Y-93456605D02*
X104300252Y-93378165D01*
X104300252Y-93378165D02*
X104294369Y-93300750D01*
X104294369Y-93300750D02*
X104284681Y-93224455D01*
X104284681Y-93224455D02*
X104271283Y-93149376D01*
X104271283Y-93149376D02*
X104254271Y-93075609D01*
X104254271Y-93075609D02*
X104233741Y-93003251D01*
X104233741Y-93003251D02*
X104209788Y-92932398D01*
X104209788Y-92932398D02*
X104182509Y-92863145D01*
X104182509Y-92863145D02*
X104151998Y-92795590D01*
X104151998Y-92795590D02*
X104118351Y-92729828D01*
X104118351Y-92729828D02*
X104081664Y-92665955D01*
X104081664Y-92665955D02*
X104042032Y-92604067D01*
X104042032Y-92604067D02*
X103999552Y-92544261D01*
X103999552Y-92544261D02*
X103954318Y-92486633D01*
X103954318Y-92486633D02*
X103906427Y-92431279D01*
X103906427Y-92431279D02*
X103855973Y-92378295D01*
X103855973Y-92378295D02*
X103803054Y-92327777D01*
X103803054Y-92327777D02*
X103747763Y-92279822D01*
X103747763Y-92279822D02*
X103690198Y-92234525D01*
X103690198Y-92234525D02*
X103630453Y-92191983D01*
X103630453Y-92191983D02*
X103568624Y-92152291D01*
X103568624Y-92152291D02*
X103504807Y-92115547D01*
X103504807Y-92115547D02*
X103439097Y-92081845D01*
X103439097Y-92081845D02*
X103371591Y-92051283D01*
X103371591Y-92051283D02*
X103302383Y-92023957D01*
X103302383Y-92023957D02*
X103231570Y-91999962D01*
X103231570Y-91999962D02*
X103159246Y-91979394D01*
X103159246Y-91979394D02*
X103085508Y-91962351D01*
X103085508Y-91962351D02*
X103010451Y-91948928D01*
X103010451Y-91948928D02*
X102934171Y-91939221D01*
X102934171Y-91939221D02*
X102856764Y-91933326D01*
X102856764Y-91933326D02*
X102778325Y-91931340D01*
X116610444Y-93456605D02*
X116612430Y-93535044D01*
X116612430Y-93535044D02*
X116618324Y-93612451D01*
X116618324Y-93612451D02*
X116628031Y-93688731D01*
X116628031Y-93688731D02*
X116641453Y-93763788D01*
X116641453Y-93763788D02*
X116658496Y-93837526D01*
X116658496Y-93837526D02*
X116679062Y-93909849D01*
X116679062Y-93909849D02*
X116703056Y-93980663D01*
X116703056Y-93980663D02*
X116730381Y-94049870D01*
X116730381Y-94049870D02*
X116760942Y-94117377D01*
X116760942Y-94117377D02*
X116794642Y-94183086D01*
X116794642Y-94183086D02*
X116831385Y-94246903D01*
X116831385Y-94246903D02*
X116871075Y-94308732D01*
X116871075Y-94308732D02*
X116913616Y-94368477D01*
X116913616Y-94368477D02*
X116958911Y-94426042D01*
X116958911Y-94426042D02*
X117006865Y-94481333D01*
X117006865Y-94481333D02*
X117057382Y-94534252D01*
X117057382Y-94534252D02*
X117110365Y-94584706D01*
X117110365Y-94584706D02*
X117165718Y-94632597D01*
X117165718Y-94632597D02*
X117223346Y-94677831D01*
X117223346Y-94677831D02*
X117283151Y-94720311D01*
X117283151Y-94720311D02*
X117345038Y-94759943D01*
X117345038Y-94759943D02*
X117408911Y-94796630D01*
X117408911Y-94796630D02*
X117474674Y-94830277D01*
X117474674Y-94830277D02*
X117542230Y-94860788D01*
X117542230Y-94860788D02*
X117611483Y-94888067D01*
X117611483Y-94888067D02*
X117682338Y-94912020D01*
X117682338Y-94912020D02*
X117754697Y-94932550D01*
X117754697Y-94932550D02*
X117828466Y-94949562D01*
X117828466Y-94949562D02*
X117903547Y-94962960D01*
X117903547Y-94962960D02*
X117979846Y-94972648D01*
X117979846Y-94972648D02*
X118057264Y-94978531D01*
X118057264Y-94978531D02*
X118135708Y-94980514D01*
X124131943Y-90665370D02*
X124132032Y-90665370D01*
X105537448Y-93324924D02*
X105539075Y-93370559D01*
X105539075Y-93370559D02*
X105540022Y-93416353D01*
X105540022Y-93416353D02*
X105540081Y-93429489D01*
X108774734Y-96190218D02*
X108721392Y-96189712D01*
X108721392Y-96189712D02*
X108668298Y-96188202D01*
X108668298Y-96188202D02*
X108615460Y-96185697D01*
X108615460Y-96185697D02*
X108562887Y-96182206D01*
X108562887Y-96182206D02*
X108510588Y-96177737D01*
X108510588Y-96177737D02*
X108458573Y-96172301D01*
X108458573Y-96172301D02*
X108406849Y-96165906D01*
X108406849Y-96165906D02*
X108355426Y-96158561D01*
X108355426Y-96158561D02*
X108304314Y-96150275D01*
X108304314Y-96150275D02*
X108253520Y-96141058D01*
X108253520Y-96141058D02*
X108203055Y-96130919D01*
X108203055Y-96130919D02*
X108152927Y-96119867D01*
X108152927Y-96119867D02*
X108103144Y-96107910D01*
X108103144Y-96107910D02*
X108053717Y-96095059D01*
X108053717Y-96095059D02*
X108004653Y-96081322D01*
X108004653Y-96081322D02*
X107955963Y-96066708D01*
X107955963Y-96066708D02*
X107907655Y-96051227D01*
X107907655Y-96051227D02*
X107859737Y-96034887D01*
X107859737Y-96034887D02*
X107812220Y-96017698D01*
X107812220Y-96017698D02*
X107765111Y-95999669D01*
X107765111Y-95999669D02*
X107718421Y-95980809D01*
X107718421Y-95980809D02*
X107672157Y-95961127D01*
X107672157Y-95961127D02*
X107626329Y-95940632D01*
X107626329Y-95940632D02*
X107580946Y-95919334D01*
X107580946Y-95919334D02*
X107536017Y-95897241D01*
X107536017Y-95897241D02*
X107491551Y-95874363D01*
X107491551Y-95874363D02*
X107447557Y-95850709D01*
X107447557Y-95850709D02*
X107404044Y-95826288D01*
X107404044Y-95826288D02*
X107361020Y-95801109D01*
X107361020Y-95801109D02*
X107318495Y-95775181D01*
X107318495Y-95775181D02*
X107276479Y-95748513D01*
X107276479Y-95748513D02*
X107234979Y-95721115D01*
X112040158Y-94911623D02*
X112115557Y-94909709D01*
X112115557Y-94909709D02*
X112189979Y-94904029D01*
X112189979Y-94904029D02*
X112263331Y-94894676D01*
X112263331Y-94894676D02*
X112335520Y-94881743D01*
X112335520Y-94881743D02*
X112406454Y-94865324D01*
X112406454Y-94865324D02*
X112476039Y-94845510D01*
X112476039Y-94845510D02*
X112544183Y-94822396D01*
X112544183Y-94822396D02*
X112610792Y-94796075D01*
X112610792Y-94796075D02*
X112675774Y-94766638D01*
X112675774Y-94766638D02*
X112739035Y-94734180D01*
X112739035Y-94734180D02*
X112800484Y-94698793D01*
X112800484Y-94698793D02*
X112860027Y-94660570D01*
X112860027Y-94660570D02*
X112917570Y-94619605D01*
X112917570Y-94619605D02*
X112973022Y-94575990D01*
X112973022Y-94575990D02*
X113026289Y-94529819D01*
X113026289Y-94529819D02*
X113077279Y-94481184D01*
X113077279Y-94481184D02*
X113125898Y-94430179D01*
X113125898Y-94430179D02*
X113172053Y-94376896D01*
X113172053Y-94376896D02*
X113215653Y-94321428D01*
X113215653Y-94321428D02*
X113256603Y-94263869D01*
X113256603Y-94263869D02*
X113294811Y-94204312D01*
X113294811Y-94204312D02*
X113330184Y-94142850D01*
X113330184Y-94142850D02*
X113362629Y-94079575D01*
X113362629Y-94079575D02*
X113392053Y-94014580D01*
X113392053Y-94014580D02*
X113418363Y-93947960D01*
X113418363Y-93947960D02*
X113441467Y-93879806D01*
X113441467Y-93879806D02*
X113461271Y-93810212D01*
X113461271Y-93810212D02*
X113477683Y-93739271D01*
X113477683Y-93739271D02*
X113490609Y-93667075D01*
X113490609Y-93667075D02*
X113499957Y-93593718D01*
X113499957Y-93593718D02*
X113505635Y-93519293D01*
X113505635Y-93519293D02*
X113507548Y-93443894D01*
X99371200Y-94399558D02*
X99353973Y-94443315D01*
X99353973Y-94443315D02*
X99336056Y-94486719D01*
X99336056Y-94486719D02*
X99330780Y-94499039D01*
X93024859Y-91127017D02*
X93024859Y-89556164D01*
X118135708Y-91931340D02*
X118135708Y-91931340D01*
X106012900Y-93427116D02*
X106016491Y-93284948D01*
X106016491Y-93284948D02*
X106027152Y-93144653D01*
X106027152Y-93144653D02*
X106044707Y-93006402D01*
X106044707Y-93006402D02*
X106068984Y-92870370D01*
X106068984Y-92870370D02*
X106099810Y-92736729D01*
X106099810Y-92736729D02*
X106137011Y-92605653D01*
X106137011Y-92605653D02*
X106180415Y-92477315D01*
X106180415Y-92477315D02*
X106229848Y-92351888D01*
X106229848Y-92351888D02*
X106285137Y-92229546D01*
X106285137Y-92229546D02*
X106346108Y-92110461D01*
X106346108Y-92110461D02*
X106412589Y-91994806D01*
X106412589Y-91994806D02*
X106484407Y-91882756D01*
X106484407Y-91882756D02*
X106561387Y-91774483D01*
X106561387Y-91774483D02*
X106643357Y-91670161D01*
X106643357Y-91670161D02*
X106730144Y-91569962D01*
X106730144Y-91569962D02*
X106821575Y-91474061D01*
X106821575Y-91474061D02*
X106917475Y-91382629D01*
X106917475Y-91382629D02*
X107017673Y-91295841D01*
X107017673Y-91295841D02*
X107121995Y-91213870D01*
X107121995Y-91213870D02*
X107230267Y-91136888D01*
X107230267Y-91136888D02*
X107342317Y-91065069D01*
X107342317Y-91065069D02*
X107457971Y-90998587D01*
X107457971Y-90998587D02*
X107577057Y-90937614D01*
X107577057Y-90937614D02*
X107699400Y-90882324D01*
X107699400Y-90882324D02*
X107824827Y-90832890D01*
X107824827Y-90832890D02*
X107953167Y-90789485D01*
X107953167Y-90789485D02*
X108084244Y-90752283D01*
X108084244Y-90752283D02*
X108217887Y-90721456D01*
X108217887Y-90721456D02*
X108353922Y-90697178D01*
X108353922Y-90697178D02*
X108492175Y-90679622D01*
X108492175Y-90679622D02*
X108632474Y-90668962D01*
X108632474Y-90668962D02*
X108774645Y-90665370D01*
X119659617Y-93456605D02*
X119657634Y-93378165D01*
X119657634Y-93378165D02*
X119651751Y-93300750D01*
X119651751Y-93300750D02*
X119642062Y-93224455D01*
X119642062Y-93224455D02*
X119628663Y-93149376D01*
X119628663Y-93149376D02*
X119611651Y-93075609D01*
X119611651Y-93075609D02*
X119591119Y-93003251D01*
X119591119Y-93003251D02*
X119567166Y-92932398D01*
X119567166Y-92932398D02*
X119539885Y-92863145D01*
X119539885Y-92863145D02*
X119509372Y-92795590D01*
X119509372Y-92795590D02*
X119475724Y-92729828D01*
X119475724Y-92729828D02*
X119439035Y-92665955D01*
X119439035Y-92665955D02*
X119399402Y-92604067D01*
X119399402Y-92604067D02*
X119356921Y-92544261D01*
X119356921Y-92544261D02*
X119311686Y-92486633D01*
X119311686Y-92486633D02*
X119263793Y-92431279D01*
X119263793Y-92431279D02*
X119213339Y-92378295D01*
X119213339Y-92378295D02*
X119160418Y-92327777D01*
X119160418Y-92327777D02*
X119105127Y-92279822D01*
X119105127Y-92279822D02*
X119047561Y-92234525D01*
X119047561Y-92234525D02*
X118987816Y-92191983D01*
X118987816Y-92191983D02*
X118925987Y-92152291D01*
X118925987Y-92152291D02*
X118862170Y-92115547D01*
X118862170Y-92115547D02*
X118796461Y-92081845D01*
X118796461Y-92081845D02*
X118728955Y-92051283D01*
X118728955Y-92051283D02*
X118659748Y-92023957D01*
X118659748Y-92023957D02*
X118588936Y-91999962D01*
X118588936Y-91999962D02*
X118516614Y-91979394D01*
X118516614Y-91979394D02*
X118442878Y-91962351D01*
X118442878Y-91962351D02*
X118367824Y-91948928D01*
X118367824Y-91948928D02*
X118291547Y-91939221D01*
X118291547Y-91939221D02*
X118214143Y-91933326D01*
X118214143Y-91933326D02*
X118135708Y-91931340D01*
X91498145Y-91931340D02*
X91498145Y-91931340D01*
X120279722Y-88938686D02*
X120342853Y-88941874D01*
X120342853Y-88941874D02*
X120404161Y-88951233D01*
X120404161Y-88951233D02*
X120463335Y-88966451D01*
X120463335Y-88966451D02*
X120520066Y-88987218D01*
X120520066Y-88987218D02*
X120574042Y-89013223D01*
X120574042Y-89013223D02*
X120624953Y-89044156D01*
X120624953Y-89044156D02*
X120672489Y-89079706D01*
X120672489Y-89079706D02*
X120716339Y-89119562D01*
X120716339Y-89119562D02*
X120756193Y-89163414D01*
X120756193Y-89163414D02*
X120791741Y-89210951D01*
X120791741Y-89210951D02*
X120822671Y-89261862D01*
X120822671Y-89261862D02*
X120848674Y-89315838D01*
X120848674Y-89315838D02*
X120869439Y-89372566D01*
X120869439Y-89372566D02*
X120884655Y-89431737D01*
X120884655Y-89431737D02*
X120894012Y-89493039D01*
X120894012Y-89493039D02*
X120897201Y-89556164D01*
X120897201Y-93276878D02*
X120895068Y-93322418D01*
X120895068Y-93322418D02*
X120894836Y-93325432D01*
X120894836Y-93325432D02*
X120896463Y-93370846D01*
X120896463Y-93370846D02*
X120897410Y-93416417D01*
X120897410Y-93416417D02*
X120897469Y-93429489D01*
X111391326Y-95560114D02*
X111394677Y-95493874D01*
X111394677Y-95493874D02*
X111404514Y-95429534D01*
X111404514Y-95429534D02*
X111420509Y-95367419D01*
X111420509Y-95367419D02*
X111442335Y-95307859D01*
X111442335Y-95307859D02*
X111469666Y-95251180D01*
X111469666Y-95251180D02*
X111502176Y-95197710D01*
X111502176Y-95197710D02*
X111539536Y-95147778D01*
X111539536Y-95147778D02*
X111581421Y-95101710D01*
X111581421Y-95101710D02*
X111627503Y-95059834D01*
X111627503Y-95059834D02*
X111677456Y-95022479D01*
X111677456Y-95022479D02*
X111730953Y-94989972D01*
X111730953Y-94989972D02*
X111787667Y-94962640D01*
X111787667Y-94962640D02*
X111847271Y-94940811D01*
X111847271Y-94940811D02*
X111909439Y-94924814D01*
X111909439Y-94924814D02*
X111973843Y-94914975D01*
X111973843Y-94914975D02*
X112040158Y-94911623D01*
X126895136Y-93427116D02*
X126891540Y-93569287D01*
X126891540Y-93569287D02*
X126880868Y-93709593D01*
X126880868Y-93709593D02*
X126863295Y-93847862D01*
X126863295Y-93847862D02*
X126838993Y-93983919D01*
X126838993Y-93983919D02*
X126808136Y-94117591D01*
X126808136Y-94117591D02*
X126770898Y-94248703D01*
X126770898Y-94248703D02*
X126727453Y-94377082D01*
X126727453Y-94377082D02*
X126677975Y-94502555D01*
X126677975Y-94502555D02*
X126622636Y-94624947D01*
X126622636Y-94624947D02*
X126561612Y-94744085D01*
X126561612Y-94744085D02*
X126495075Y-94859795D01*
X126495075Y-94859795D02*
X126423199Y-94971904D01*
X126423199Y-94971904D02*
X126346158Y-95080237D01*
X126346158Y-95080237D02*
X126264126Y-95184621D01*
X126264126Y-95184621D02*
X126177276Y-95284883D01*
X126177276Y-95284883D02*
X126085782Y-95380848D01*
X126085782Y-95380848D02*
X125989817Y-95472343D01*
X125989817Y-95472343D02*
X125889557Y-95559194D01*
X125889557Y-95559194D02*
X125785173Y-95641228D01*
X125785173Y-95641228D02*
X125676840Y-95718270D01*
X125676840Y-95718270D02*
X125564731Y-95790147D01*
X125564731Y-95790147D02*
X125449021Y-95856686D01*
X125449021Y-95856686D02*
X125329882Y-95917711D01*
X125329882Y-95917711D02*
X125207490Y-95973051D01*
X125207490Y-95973051D02*
X125082016Y-96022531D01*
X125082016Y-96022531D02*
X124953635Y-96065977D01*
X124953635Y-96065977D02*
X124822521Y-96103215D01*
X124822521Y-96103215D02*
X124688848Y-96134073D01*
X124688848Y-96134073D02*
X124552788Y-96158376D01*
X124552788Y-96158376D02*
X124414517Y-96175950D01*
X124414517Y-96175950D02*
X124274207Y-96186622D01*
X124274207Y-96186622D02*
X124132032Y-96190218D01*
X120897469Y-93429489D02*
X120893876Y-93571660D01*
X120893876Y-93571660D02*
X120883216Y-93711958D01*
X120883216Y-93711958D02*
X120865660Y-93850212D01*
X120865660Y-93850212D02*
X120841382Y-93986246D01*
X120841382Y-93986246D02*
X120810555Y-94119889D01*
X120810555Y-94119889D02*
X120773353Y-94250967D01*
X120773353Y-94250967D02*
X120729948Y-94379306D01*
X120729948Y-94379306D02*
X120680514Y-94504734D01*
X120680514Y-94504734D02*
X120625223Y-94627077D01*
X120625223Y-94627077D02*
X120564251Y-94746162D01*
X120564251Y-94746162D02*
X120497768Y-94861817D01*
X120497768Y-94861817D02*
X120425950Y-94973867D01*
X120425950Y-94973867D02*
X120348968Y-95082139D01*
X120348968Y-95082139D02*
X120266996Y-95186461D01*
X120266996Y-95186461D02*
X120180208Y-95286659D01*
X120180208Y-95286659D02*
X120088776Y-95382559D01*
X120088776Y-95382559D02*
X119992875Y-95473990D01*
X119992875Y-95473990D02*
X119892676Y-95560777D01*
X119892676Y-95560777D02*
X119788353Y-95642747D01*
X119788353Y-95642747D02*
X119680081Y-95719727D01*
X119680081Y-95719727D02*
X119568030Y-95791545D01*
X119568030Y-95791545D02*
X119452376Y-95858026D01*
X119452376Y-95858026D02*
X119333291Y-95918997D01*
X119333291Y-95918997D02*
X119210949Y-95974286D01*
X119210949Y-95974286D02*
X119085522Y-96023719D01*
X119085522Y-96023719D02*
X118957183Y-96067122D01*
X118957183Y-96067122D02*
X118826107Y-96104324D01*
X118826107Y-96104324D02*
X118692467Y-96135150D01*
X118692467Y-96135150D02*
X118556435Y-96159427D01*
X118556435Y-96159427D02*
X118418184Y-96176982D01*
X118418184Y-96176982D02*
X118277889Y-96187643D01*
X118277889Y-96187643D02*
X118135722Y-96191235D01*
X118135722Y-96191235D02*
X117993546Y-96187643D01*
X117993546Y-96187643D02*
X117853236Y-96176982D01*
X117853236Y-96176982D02*
X117714965Y-96159427D01*
X117714965Y-96159427D02*
X117578905Y-96135150D01*
X117578905Y-96135150D02*
X117445232Y-96104324D01*
X117445232Y-96104324D02*
X117314118Y-96067122D01*
X117314118Y-96067122D02*
X117185737Y-96023719D01*
X117185737Y-96023719D02*
X117060264Y-95974286D01*
X117060264Y-95974286D02*
X116937871Y-95918997D01*
X116937871Y-95918997D02*
X116818733Y-95858026D01*
X116818733Y-95858026D02*
X116703022Y-95791545D01*
X116703022Y-95791545D02*
X116590914Y-95719727D01*
X116590914Y-95719727D02*
X116482581Y-95642747D01*
X116482581Y-95642747D02*
X116378197Y-95560777D01*
X116378197Y-95560777D02*
X116277936Y-95473990D01*
X116277936Y-95473990D02*
X116181972Y-95382559D01*
X116181972Y-95382559D02*
X116090478Y-95286659D01*
X116090478Y-95286659D02*
X116003628Y-95186461D01*
X116003628Y-95186461D02*
X115921596Y-95082139D01*
X115921596Y-95082139D02*
X115844555Y-94973867D01*
X115844555Y-94973867D02*
X115772680Y-94861817D01*
X115772680Y-94861817D02*
X115706143Y-94746162D01*
X115706143Y-94746162D02*
X115645118Y-94627077D01*
X115645118Y-94627077D02*
X115589780Y-94504734D01*
X115589780Y-94504734D02*
X115540301Y-94379306D01*
X115540301Y-94379306D02*
X115496857Y-94250967D01*
X115496857Y-94250967D02*
X115459619Y-94119889D01*
X115459619Y-94119889D02*
X115428762Y-93986246D01*
X115428762Y-93986246D02*
X115404460Y-93850212D01*
X115404460Y-93850212D02*
X115386887Y-93711958D01*
X115386887Y-93711958D02*
X115376215Y-93571660D01*
X115376215Y-93571660D02*
X115372620Y-93429489D01*
X93024859Y-89556164D02*
X93028045Y-89493032D01*
X93028045Y-89493032D02*
X93037401Y-89431724D01*
X93037401Y-89431724D02*
X93052614Y-89372550D01*
X93052614Y-89372550D02*
X93073375Y-89315819D01*
X93073375Y-89315819D02*
X93099374Y-89261843D01*
X93099374Y-89261843D02*
X93130299Y-89210932D01*
X93130299Y-89210932D02*
X93165841Y-89163396D01*
X93165841Y-89163396D02*
X93205689Y-89119546D01*
X93205689Y-89119546D02*
X93249533Y-89079692D01*
X93249533Y-89079692D02*
X93297062Y-89044145D01*
X93297062Y-89044145D02*
X93347966Y-89013215D01*
X93347966Y-89013215D02*
X93401935Y-88987212D01*
X93401935Y-88987212D02*
X93458658Y-88966447D01*
X93458658Y-88966447D02*
X93517824Y-88951231D01*
X93517824Y-88951231D02*
X93579124Y-88941874D01*
X93579124Y-88941874D02*
X93642248Y-88938686D01*
X115372620Y-93429489D02*
X115376215Y-93287317D01*
X115376215Y-93287317D02*
X115386887Y-93147011D01*
X115386887Y-93147011D02*
X115404460Y-93008742D01*
X115404460Y-93008742D02*
X115428762Y-92872685D01*
X115428762Y-92872685D02*
X115459619Y-92739013D01*
X115459619Y-92739013D02*
X115496857Y-92607901D01*
X115496857Y-92607901D02*
X115540301Y-92479522D01*
X115540301Y-92479522D02*
X115589780Y-92354049D01*
X115589780Y-92354049D02*
X115645118Y-92231657D01*
X115645118Y-92231657D02*
X115706143Y-92112519D01*
X115706143Y-92112519D02*
X115772680Y-91996809D01*
X115772680Y-91996809D02*
X115844555Y-91884700D01*
X115844555Y-91884700D02*
X115921596Y-91776367D01*
X115921596Y-91776367D02*
X116003628Y-91671983D01*
X116003628Y-91671983D02*
X116090478Y-91571721D01*
X116090478Y-91571721D02*
X116181972Y-91475756D01*
X116181972Y-91475756D02*
X116277936Y-91384261D01*
X116277936Y-91384261D02*
X116378197Y-91297410D01*
X116378197Y-91297410D02*
X116482581Y-91215376D01*
X116482581Y-91215376D02*
X116590914Y-91138334D01*
X116590914Y-91138334D02*
X116703022Y-91066457D01*
X116703022Y-91066457D02*
X116818733Y-90999918D01*
X116818733Y-90999918D02*
X116937871Y-90938893D01*
X116937871Y-90938893D02*
X117060264Y-90883553D01*
X117060264Y-90883553D02*
X117185737Y-90834073D01*
X117185737Y-90834073D02*
X117314118Y-90790627D01*
X117314118Y-90790627D02*
X117445232Y-90753389D01*
X117445232Y-90753389D02*
X117578905Y-90722531D01*
X117578905Y-90722531D02*
X117714965Y-90698228D01*
X117714965Y-90698228D02*
X117853236Y-90680654D01*
X117853236Y-90680654D02*
X117993546Y-90669982D01*
X117993546Y-90669982D02*
X118135722Y-90666387D01*
X110300000Y-93400000D02*
X110298013Y-93321560D01*
X110298013Y-93321560D02*
X110292118Y-93244153D01*
X110292118Y-93244153D02*
X110282411Y-93167873D01*
X110282411Y-93167873D02*
X110268988Y-93092817D01*
X110268988Y-93092817D02*
X110251945Y-93019079D01*
X110251945Y-93019079D02*
X110231377Y-92946755D01*
X110231377Y-92946755D02*
X110207382Y-92875942D01*
X110207382Y-92875942D02*
X110180056Y-92806734D01*
X110180056Y-92806734D02*
X110149494Y-92739228D01*
X110149494Y-92739228D02*
X110115792Y-92673518D01*
X110115792Y-92673518D02*
X110079048Y-92609701D01*
X110079048Y-92609701D02*
X110039357Y-92547872D01*
X110039357Y-92547872D02*
X109996814Y-92488128D01*
X109996814Y-92488128D02*
X109951517Y-92430562D01*
X109951517Y-92430562D02*
X109903562Y-92375272D01*
X109903562Y-92375272D02*
X109853044Y-92322352D01*
X109853044Y-92322352D02*
X109800060Y-92271899D01*
X109800060Y-92271899D02*
X109744706Y-92224007D01*
X109744706Y-92224007D02*
X109687078Y-92178774D01*
X109687078Y-92178774D02*
X109627272Y-92136293D01*
X109627272Y-92136293D02*
X109565384Y-92096662D01*
X109565384Y-92096662D02*
X109501511Y-92059975D01*
X109501511Y-92059975D02*
X109435749Y-92026328D01*
X109435749Y-92026328D02*
X109368194Y-91995816D01*
X109368194Y-91995816D02*
X109298941Y-91968537D01*
X109298941Y-91968537D02*
X109228088Y-91944584D01*
X109228088Y-91944584D02*
X109155730Y-91924054D01*
X109155730Y-91924054D02*
X109081963Y-91907042D01*
X109081963Y-91907042D02*
X109006884Y-91893644D01*
X109006884Y-91893644D02*
X108930588Y-91883956D01*
X108930588Y-91883956D02*
X108853173Y-91878073D01*
X108853173Y-91878073D02*
X108774734Y-91876091D01*
D11*
X135693292Y-104285043D02*
X135693292Y-104285043D01*
D12*
X78546356Y-63817611D02*
X78546361Y-113812375D01*
X78546356Y-63817611D02*
G75*
G02*
X81546356Y-60817611I3000000J0D01*
G01*
X140546356Y-60817611D02*
X81546356Y-60817611D01*
X140546356Y-60817611D02*
G75*
G02*
X143546356Y-63817611I0J-3000000D01*
G01*
X143546356Y-113817611D02*
X143546356Y-63817611D01*
X81546361Y-116812375D02*
G75*
G02*
X78546361Y-113812375I0J3000000D01*
G01*
X81546361Y-116812375D02*
X140546361Y-116812375D01*
X143546356Y-113817611D02*
G75*
G02*
X140546361Y-116812375I-2999995J5236D01*
G01*
D13*
X85590000Y-65590000D02*
X85590000Y-66920000D01*
X85590000Y-66920000D02*
X86920000Y-66920000D01*
X85590000Y-64320000D02*
X88190000Y-64320000D01*
X88190000Y-64320000D02*
X88190000Y-66920000D01*
X88190000Y-66920000D02*
X136510000Y-66920000D01*
X136510000Y-61720000D02*
X136510000Y-66920000D01*
X85590000Y-61720000D02*
X136510000Y-61720000D01*
X85590000Y-61720000D02*
X85590000Y-64320000D01*
D14*
X83602380Y-63986666D02*
X84316666Y-63986666D01*
X84459523Y-63939047D01*
X84554761Y-63843809D01*
X84602380Y-63700952D01*
X84602380Y-63605714D01*
X83602380Y-64367619D02*
X83602380Y-64986666D01*
X83983333Y-64653333D01*
X83983333Y-64796190D01*
X84030952Y-64891428D01*
X84078571Y-64939047D01*
X84173809Y-64986666D01*
X84411904Y-64986666D01*
X84507142Y-64939047D01*
X84554761Y-64891428D01*
X84602380Y-64796190D01*
X84602380Y-64510476D01*
X84554761Y-64415238D01*
X84507142Y-64367619D01*
M02*
