G04 #@! TF.GenerationSoftware,KiCad,Pcbnew,5.1.9*
G04 #@! TF.CreationDate,2021-02-18T13:11:14+01:00*
G04 #@! TF.ProjectId,raspberrypi_hat,72617370-6265-4727-9279-70695f686174,rev?*
G04 #@! TF.SameCoordinates,Original*
G04 #@! TF.FileFunction,Copper,L1,Top*
G04 #@! TF.FilePolarity,Positive*
%FSLAX46Y46*%
G04 Gerber Fmt 4.6, Leading zero omitted, Abs format (unit mm)*
G04 Created by KiCad (PCBNEW 5.1.9) date 2021-02-18 13:11:14*
%MOMM*%
%LPD*%
G01*
G04 APERTURE LIST*
G04 #@! TA.AperFunction,Profile*
%ADD10C,0.100000*%
G04 #@! TD*
G04 #@! TA.AperFunction,ComponentPad*
%ADD11R,1.600000X1.600000*%
G04 #@! TD*
G04 #@! TA.AperFunction,ComponentPad*
%ADD12C,1.600000*%
G04 #@! TD*
G04 #@! TA.AperFunction,ComponentPad*
%ADD13O,1.600000X1.600000*%
G04 #@! TD*
G04 #@! TA.AperFunction,ComponentPad*
%ADD14C,1.800000*%
G04 #@! TD*
G04 #@! TA.AperFunction,ComponentPad*
%ADD15R,1.800000X1.800000*%
G04 #@! TD*
G04 #@! TA.AperFunction,ComponentPad*
%ADD16O,1.700000X2.000000*%
G04 #@! TD*
G04 #@! TA.AperFunction,ComponentPad*
%ADD17R,1.700000X1.700000*%
G04 #@! TD*
G04 #@! TA.AperFunction,ComponentPad*
%ADD18O,1.700000X1.700000*%
G04 #@! TD*
G04 #@! TA.AperFunction,SMDPad,CuDef*
%ADD19R,1.550000X0.600000*%
G04 #@! TD*
G04 #@! TA.AperFunction,SMDPad,CuDef*
%ADD20R,0.845000X1.000000*%
G04 #@! TD*
G04 #@! TA.AperFunction,SMDPad,CuDef*
%ADD21R,0.900000X0.800000*%
G04 #@! TD*
G04 #@! TA.AperFunction,SMDPad,CuDef*
%ADD22R,1.000000X0.845000*%
G04 #@! TD*
G04 #@! TA.AperFunction,WasherPad*
%ADD23C,3.000000*%
G04 #@! TD*
G04 #@! TA.AperFunction,ComponentPad*
%ADD24R,1.500000X2.300000*%
G04 #@! TD*
G04 #@! TA.AperFunction,ComponentPad*
%ADD25O,1.500000X2.300000*%
G04 #@! TD*
G04 #@! TA.AperFunction,ComponentPad*
%ADD26O,1.700000X1.950000*%
G04 #@! TD*
G04 #@! TA.AperFunction,ComponentPad*
%ADD27O,1.950000X1.700000*%
G04 #@! TD*
G04 #@! TA.AperFunction,ComponentPad*
%ADD28O,4.000000X1.800000*%
G04 #@! TD*
G04 #@! TA.AperFunction,ComponentPad*
%ADD29O,1.800000X4.000000*%
G04 #@! TD*
G04 #@! TA.AperFunction,ComponentPad*
%ADD30R,1.800000X4.400000*%
G04 #@! TD*
G04 #@! TA.AperFunction,SMDPad,CuDef*
%ADD31R,1.060000X0.650000*%
G04 #@! TD*
G04 #@! TA.AperFunction,ViaPad*
%ADD32C,0.600000*%
G04 #@! TD*
G04 #@! TA.AperFunction,Conductor*
%ADD33C,0.200000*%
G04 #@! TD*
G04 #@! TA.AperFunction,Conductor*
%ADD34C,1.000000*%
G04 #@! TD*
G04 #@! TA.AperFunction,Conductor*
%ADD35C,0.600000*%
G04 #@! TD*
G04 #@! TA.AperFunction,Conductor*
%ADD36C,0.100000*%
G04 #@! TD*
G04 APERTURE END LIST*
D10*
X78546356Y-63817611D02*
X78546361Y-113812375D01*
X78546356Y-63817611D02*
G75*
G02*
X81546356Y-60817611I3000000J0D01*
G01*
X140546356Y-60817611D02*
X81546356Y-60817611D01*
X140546356Y-60817611D02*
G75*
G02*
X143546356Y-63817611I0J-3000000D01*
G01*
X143546356Y-113817611D02*
X143546356Y-63817611D01*
X81546361Y-116812375D02*
G75*
G02*
X78546361Y-113812375I0J3000000D01*
G01*
X81546361Y-116812375D02*
X140546361Y-116812375D01*
X143546356Y-113817611D02*
G75*
G02*
X140546361Y-116812375I-2999995J5236D01*
G01*
D11*
X128300000Y-104800000D03*
D12*
X125800000Y-104800000D03*
D11*
X110490000Y-99060000D03*
D13*
X128270000Y-86360000D03*
X113030000Y-99060000D03*
X125730000Y-86360000D03*
X115570000Y-99060000D03*
X123190000Y-86360000D03*
X118110000Y-99060000D03*
X120650000Y-86360000D03*
X120650000Y-99060000D03*
X118110000Y-86360000D03*
X123190000Y-99060000D03*
X115570000Y-86360000D03*
X125730000Y-99060000D03*
X113030000Y-86360000D03*
X128270000Y-99060000D03*
X110490000Y-86360000D03*
D14*
X83820000Y-102870000D03*
D15*
X81280000Y-102870000D03*
G04 #@! TA.AperFunction,SMDPad,CuDef*
G36*
G01*
X79772500Y-81705000D02*
X80247500Y-81705000D01*
G75*
G02*
X80485000Y-81942500I0J-237500D01*
G01*
X80485000Y-82442500D01*
G75*
G02*
X80247500Y-82680000I-237500J0D01*
G01*
X79772500Y-82680000D01*
G75*
G02*
X79535000Y-82442500I0J237500D01*
G01*
X79535000Y-81942500D01*
G75*
G02*
X79772500Y-81705000I237500J0D01*
G01*
G37*
G04 #@! TD.AperFunction*
G04 #@! TA.AperFunction,SMDPad,CuDef*
G36*
G01*
X79772500Y-79880000D02*
X80247500Y-79880000D01*
G75*
G02*
X80485000Y-80117500I0J-237500D01*
G01*
X80485000Y-80617500D01*
G75*
G02*
X80247500Y-80855000I-237500J0D01*
G01*
X79772500Y-80855000D01*
G75*
G02*
X79535000Y-80617500I0J237500D01*
G01*
X79535000Y-80117500D01*
G75*
G02*
X79772500Y-79880000I237500J0D01*
G01*
G37*
G04 #@! TD.AperFunction*
G04 #@! TA.AperFunction,SMDPad,CuDef*
G36*
G01*
X84852500Y-81705000D02*
X85327500Y-81705000D01*
G75*
G02*
X85565000Y-81942500I0J-237500D01*
G01*
X85565000Y-82442500D01*
G75*
G02*
X85327500Y-82680000I-237500J0D01*
G01*
X84852500Y-82680000D01*
G75*
G02*
X84615000Y-82442500I0J237500D01*
G01*
X84615000Y-81942500D01*
G75*
G02*
X84852500Y-81705000I237500J0D01*
G01*
G37*
G04 #@! TD.AperFunction*
G04 #@! TA.AperFunction,SMDPad,CuDef*
G36*
G01*
X84852500Y-79880000D02*
X85327500Y-79880000D01*
G75*
G02*
X85565000Y-80117500I0J-237500D01*
G01*
X85565000Y-80617500D01*
G75*
G02*
X85327500Y-80855000I-237500J0D01*
G01*
X84852500Y-80855000D01*
G75*
G02*
X84615000Y-80617500I0J237500D01*
G01*
X84615000Y-80117500D01*
G75*
G02*
X84852500Y-79880000I237500J0D01*
G01*
G37*
G04 #@! TD.AperFunction*
G04 #@! TA.AperFunction,SMDPad,CuDef*
G36*
G01*
X82312500Y-81705000D02*
X82787500Y-81705000D01*
G75*
G02*
X83025000Y-81942500I0J-237500D01*
G01*
X83025000Y-82442500D01*
G75*
G02*
X82787500Y-82680000I-237500J0D01*
G01*
X82312500Y-82680000D01*
G75*
G02*
X82075000Y-82442500I0J237500D01*
G01*
X82075000Y-81942500D01*
G75*
G02*
X82312500Y-81705000I237500J0D01*
G01*
G37*
G04 #@! TD.AperFunction*
G04 #@! TA.AperFunction,SMDPad,CuDef*
G36*
G01*
X82312500Y-79880000D02*
X82787500Y-79880000D01*
G75*
G02*
X83025000Y-80117500I0J-237500D01*
G01*
X83025000Y-80617500D01*
G75*
G02*
X82787500Y-80855000I-237500J0D01*
G01*
X82312500Y-80855000D01*
G75*
G02*
X82075000Y-80617500I0J237500D01*
G01*
X82075000Y-80117500D01*
G75*
G02*
X82312500Y-79880000I237500J0D01*
G01*
G37*
G04 #@! TD.AperFunction*
D16*
X88940000Y-110490000D03*
G04 #@! TA.AperFunction,ComponentPad*
G36*
G01*
X92290000Y-109740000D02*
X92290000Y-111240000D01*
G75*
G02*
X92040000Y-111490000I-250000J0D01*
G01*
X90840000Y-111490000D01*
G75*
G02*
X90590000Y-111240000I0J250000D01*
G01*
X90590000Y-109740000D01*
G75*
G02*
X90840000Y-109490000I250000J0D01*
G01*
X92040000Y-109490000D01*
G75*
G02*
X92290000Y-109740000I0J-250000D01*
G01*
G37*
G04 #@! TD.AperFunction*
D17*
X86920000Y-65590000D03*
D18*
X86920000Y-63050000D03*
X89460000Y-65590000D03*
X89460000Y-63050000D03*
X92000000Y-65590000D03*
X92000000Y-63050000D03*
X94540000Y-65590000D03*
X94540000Y-63050000D03*
X97080000Y-65590000D03*
X97080000Y-63050000D03*
X99620000Y-65590000D03*
X99620000Y-63050000D03*
X102160000Y-65590000D03*
X102160000Y-63050000D03*
X104700000Y-65590000D03*
X104700000Y-63050000D03*
X107240000Y-65590000D03*
X107240000Y-63050000D03*
X109780000Y-65590000D03*
X109780000Y-63050000D03*
X112320000Y-65590000D03*
X112320000Y-63050000D03*
X114860000Y-65590000D03*
X114860000Y-63050000D03*
X117400000Y-65590000D03*
X117400000Y-63050000D03*
X119940000Y-65590000D03*
X119940000Y-63050000D03*
X122480000Y-65590000D03*
X122480000Y-63050000D03*
X125020000Y-65590000D03*
X125020000Y-63050000D03*
X127560000Y-65590000D03*
X127560000Y-63050000D03*
X130100000Y-65590000D03*
X130100000Y-63050000D03*
X132640000Y-65590000D03*
X132640000Y-63050000D03*
X135180000Y-65590000D03*
X135180000Y-63050000D03*
D19*
X122800000Y-72005000D03*
X122800000Y-70735000D03*
X122800000Y-69465000D03*
X122800000Y-68195000D03*
X117400000Y-68195000D03*
X117400000Y-69465000D03*
X117400000Y-70735000D03*
X117400000Y-72005000D03*
D20*
X115362500Y-69700000D03*
X113437500Y-69700000D03*
D17*
X113700000Y-74800000D03*
D18*
X116240000Y-74800000D03*
D21*
X91694000Y-71120000D03*
X91694000Y-73020000D03*
X93694000Y-72070000D03*
D20*
X113437500Y-71400000D03*
X115362500Y-71400000D03*
D22*
X89200000Y-77562500D03*
X89200000Y-75637500D03*
X86900000Y-75637500D03*
X86900000Y-77562500D03*
D20*
X121062500Y-74000000D03*
X119137500Y-74000000D03*
X113437500Y-68100000D03*
X115362500Y-68100000D03*
D23*
X82040000Y-64310000D03*
X140040000Y-64330000D03*
X82040000Y-113320000D03*
X140030000Y-113310000D03*
D24*
X101600000Y-74930000D03*
D25*
X104140000Y-74930000D03*
X106680000Y-74930000D03*
D15*
X81280000Y-87630000D03*
D14*
X83820000Y-87630000D03*
D15*
X81280000Y-95250000D03*
D14*
X83820000Y-95250000D03*
D26*
X115690000Y-110490000D03*
X118190000Y-110490000D03*
X120690000Y-110490000D03*
G04 #@! TA.AperFunction,ComponentPad*
G36*
G01*
X124040000Y-109765000D02*
X124040000Y-111215000D01*
G75*
G02*
X123790000Y-111465000I-250000J0D01*
G01*
X122590000Y-111465000D01*
G75*
G02*
X122340000Y-111215000I0J250000D01*
G01*
X122340000Y-109765000D01*
G75*
G02*
X122590000Y-109515000I250000J0D01*
G01*
X123790000Y-109515000D01*
G75*
G02*
X124040000Y-109765000I0J-250000D01*
G01*
G37*
G04 #@! TD.AperFunction*
G04 #@! TA.AperFunction,ComponentPad*
G36*
G01*
X136435000Y-70270000D02*
X137885000Y-70270000D01*
G75*
G02*
X138135000Y-70520000I0J-250000D01*
G01*
X138135000Y-71720000D01*
G75*
G02*
X137885000Y-71970000I-250000J0D01*
G01*
X136435000Y-71970000D01*
G75*
G02*
X136185000Y-71720000I0J250000D01*
G01*
X136185000Y-70520000D01*
G75*
G02*
X136435000Y-70270000I250000J0D01*
G01*
G37*
G04 #@! TD.AperFunction*
D27*
X137160000Y-73620000D03*
X137160000Y-76120000D03*
X137160000Y-78620000D03*
G04 #@! TA.AperFunction,ComponentPad*
G36*
G01*
X101180000Y-109740000D02*
X101180000Y-111240000D01*
G75*
G02*
X100930000Y-111490000I-250000J0D01*
G01*
X99730000Y-111490000D01*
G75*
G02*
X99480000Y-111240000I0J250000D01*
G01*
X99480000Y-109740000D01*
G75*
G02*
X99730000Y-109490000I250000J0D01*
G01*
X100930000Y-109490000D01*
G75*
G02*
X101180000Y-109740000I0J-250000D01*
G01*
G37*
G04 #@! TD.AperFunction*
D16*
X97830000Y-110490000D03*
X129700000Y-110500000D03*
G04 #@! TA.AperFunction,ComponentPad*
G36*
G01*
X133050000Y-109750000D02*
X133050000Y-111250000D01*
G75*
G02*
X132800000Y-111500000I-250000J0D01*
G01*
X131600000Y-111500000D01*
G75*
G02*
X131350000Y-111250000I0J250000D01*
G01*
X131350000Y-109750000D01*
G75*
G02*
X131600000Y-109500000I250000J0D01*
G01*
X132800000Y-109500000D01*
G75*
G02*
X133050000Y-109750000I0J-250000D01*
G01*
G37*
G04 #@! TD.AperFunction*
G04 #@! TA.AperFunction,ComponentPad*
G36*
G01*
X110050000Y-109740000D02*
X110050000Y-111240000D01*
G75*
G02*
X109800000Y-111490000I-250000J0D01*
G01*
X108600000Y-111490000D01*
G75*
G02*
X108350000Y-111240000I0J250000D01*
G01*
X108350000Y-109740000D01*
G75*
G02*
X108600000Y-109490000I250000J0D01*
G01*
X109800000Y-109490000D01*
G75*
G02*
X110050000Y-109740000I0J-250000D01*
G01*
G37*
G04 #@! TD.AperFunction*
X106700000Y-110490000D03*
D28*
X136350000Y-97816000D03*
D29*
X139150000Y-102616000D03*
D30*
X133350000Y-102616000D03*
D31*
X87000000Y-72150000D03*
X87000000Y-73100000D03*
X87000000Y-74050000D03*
X89200000Y-74050000D03*
X89200000Y-72150000D03*
X89200000Y-73100000D03*
D32*
X82550000Y-79375000D03*
X85090000Y-79375000D03*
X80010000Y-79375000D03*
D33*
X83820000Y-87630000D02*
X83820000Y-95250000D01*
X83820000Y-95250000D02*
X83820000Y-102870000D01*
X83820000Y-88265000D02*
X83820000Y-79375000D01*
X83820000Y-79375000D02*
X84455000Y-78740000D01*
X84455000Y-78740000D02*
X85090000Y-78740000D01*
X86995000Y-77657500D02*
X86900000Y-77562500D01*
X86995000Y-78740000D02*
X86995000Y-77657500D01*
D34*
X125730000Y-104140000D02*
X125730000Y-99060000D01*
D33*
X139420600Y-101600000D02*
X139420600Y-104419400D01*
D34*
X105410000Y-78740000D02*
X104140000Y-77470000D01*
X104140000Y-77470000D02*
X104140000Y-74930000D01*
X113665000Y-78740000D02*
X105410000Y-78740000D01*
D33*
X132200000Y-78620000D02*
X132080000Y-78740000D01*
X137160000Y-78620000D02*
X132200000Y-78620000D01*
X113700000Y-78705000D02*
X113665000Y-78740000D01*
X113700000Y-74100000D02*
X113700000Y-78705000D01*
X85090000Y-78740000D02*
X86995000Y-78740000D01*
D35*
X89200000Y-77562500D02*
X86900000Y-77562500D01*
D33*
X122800000Y-68195000D02*
X122800000Y-69465000D01*
X122800000Y-70735000D02*
X122800000Y-72005000D01*
X122800000Y-72262500D02*
X121062500Y-74000000D01*
X122800000Y-72005000D02*
X122800000Y-72262500D01*
X122480000Y-63050000D02*
X122486000Y-63050000D01*
X122486000Y-63050000D02*
X123698000Y-64262000D01*
X123698000Y-64262000D02*
X123698000Y-66548000D01*
X122800000Y-67446000D02*
X122800000Y-68195000D01*
X123698000Y-66548000D02*
X122800000Y-67446000D01*
X121062500Y-78462500D02*
X121340000Y-78740000D01*
D34*
X121340000Y-78740000D02*
X113665000Y-78740000D01*
X132080000Y-78740000D02*
X121340000Y-78740000D01*
X110490000Y-99060000D02*
X110490000Y-98310000D01*
X110490000Y-98310000D02*
X111800000Y-97000000D01*
X123670000Y-97000000D02*
X125730000Y-99060000D01*
X111800000Y-97000000D02*
X123670000Y-97000000D01*
D33*
X122800000Y-69465000D02*
X122800000Y-70735000D01*
X121062500Y-74000000D02*
X121062500Y-78462500D01*
D34*
X127737567Y-107315000D02*
X136885000Y-107315000D01*
X125730000Y-105307433D02*
X127737567Y-107315000D01*
X139150000Y-105050000D02*
X139150000Y-102616000D01*
X136885000Y-107315000D02*
X139150000Y-105050000D01*
X125730000Y-104140000D02*
X125730000Y-105307433D01*
X136350000Y-99816000D02*
X139150000Y-102616000D01*
X136350000Y-97816000D02*
X136350000Y-99816000D01*
X133350000Y-80010000D02*
X132080000Y-78740000D01*
X133400000Y-94800000D02*
X133350000Y-80010000D01*
X133400000Y-94866000D02*
X136350000Y-97816000D01*
X133400000Y-94800000D02*
X133400000Y-94866000D01*
D35*
X104140000Y-74930000D02*
X104140000Y-71960000D01*
X104140000Y-71960000D02*
X104080000Y-71900000D01*
X104080000Y-71900000D02*
X100600000Y-71900000D01*
X94937500Y-77562500D02*
X89200000Y-77562500D01*
X100600000Y-71900000D02*
X94937500Y-77562500D01*
D33*
X115695000Y-68295000D02*
X115500000Y-68100000D01*
X115457500Y-68195000D02*
X115362500Y-68100000D01*
X117400000Y-68195000D02*
X115457500Y-68195000D01*
X119940000Y-65590000D02*
X119940000Y-67283400D01*
X119028400Y-68195000D02*
X117400000Y-68195000D01*
X119940000Y-67283400D02*
X119028400Y-68195000D01*
X115635000Y-69565000D02*
X115500000Y-69700000D01*
X115597500Y-69465000D02*
X115362500Y-69700000D01*
X117400000Y-69465000D02*
X115597500Y-69465000D01*
X121218960Y-64328960D02*
X121218960Y-66860420D01*
X118614380Y-69465000D02*
X117400000Y-69465000D01*
X121218960Y-66860420D02*
X118614380Y-69465000D01*
X121218960Y-64328960D02*
X119940000Y-63050000D01*
D35*
X89150000Y-75450000D02*
X89200000Y-75500000D01*
X89032000Y-74168000D02*
X89150000Y-74050000D01*
X89150000Y-75587500D02*
X89200000Y-75637500D01*
X89150000Y-74050000D02*
X89150000Y-75587500D01*
X91694000Y-71120000D02*
X94742000Y-71120000D01*
X94742000Y-71120000D02*
X94742000Y-73992768D01*
X94684768Y-74050000D02*
X89150000Y-74050000D01*
X94742000Y-73992768D02*
X94684768Y-74050000D01*
X86950000Y-72150000D02*
X86950000Y-73100000D01*
X86950000Y-73100000D02*
X86950000Y-74050000D01*
D33*
X86950000Y-74050000D02*
X86900000Y-74100000D01*
D35*
X86900000Y-74100000D02*
X86900000Y-75500000D01*
X89230000Y-73020000D02*
X89150000Y-73100000D01*
X91694000Y-73020000D02*
X89230000Y-73020000D01*
X89150000Y-73100000D02*
X88340000Y-73100000D01*
X88340000Y-73100000D02*
X88119999Y-72879999D01*
X88119999Y-72879999D02*
X88119999Y-67582001D01*
D33*
X117400000Y-72005000D02*
X116695000Y-72005000D01*
X116695000Y-72005000D02*
X116200000Y-72500000D01*
X116200000Y-72500000D02*
X114200000Y-72500000D01*
X114200000Y-72500000D02*
X113300000Y-71600000D01*
X113300000Y-71600000D02*
X113300000Y-71400000D01*
X113300000Y-68100000D02*
X113300000Y-69700000D01*
X113300000Y-69700000D02*
X113300000Y-71400000D01*
X97790000Y-113030000D02*
X100330000Y-110490000D01*
X93345000Y-113030000D02*
X97790000Y-113030000D01*
X91440000Y-110490000D02*
X93345000Y-113030000D01*
X106045000Y-113030000D02*
X109220000Y-110490000D01*
X102235000Y-113030000D02*
X106045000Y-113030000D01*
X100330000Y-111125000D02*
X102235000Y-113030000D01*
X100330000Y-110490000D02*
X100330000Y-111125000D01*
X129540000Y-113030000D02*
X132080000Y-110490000D01*
X111125000Y-113030000D02*
X129540000Y-113030000D01*
X109220000Y-111125000D02*
X111125000Y-113030000D01*
X109220000Y-110490000D02*
X109220000Y-111125000D01*
X107240000Y-65590000D02*
X107240000Y-68020000D01*
X107320000Y-68100000D02*
X113437500Y-68100000D01*
X107240000Y-68020000D02*
X107320000Y-68100000D01*
D35*
X89150000Y-72150000D02*
X89350000Y-72150000D01*
X93614000Y-72150000D02*
X93694000Y-72070000D01*
X89150000Y-72150000D02*
X89150000Y-69854000D01*
X89150000Y-69854000D02*
X89154000Y-69850000D01*
X89154000Y-69850000D02*
X106680000Y-69850000D01*
X106680000Y-69850000D02*
X106680000Y-73660000D01*
X106680000Y-73660000D02*
X106680000Y-74930000D01*
X106680000Y-72136000D02*
X106680000Y-73660000D01*
X89230000Y-72070000D02*
X89150000Y-72150000D01*
X93694000Y-72070000D02*
X89230000Y-72070000D01*
D33*
X118750000Y-74000000D02*
X118750000Y-71050000D01*
X118435000Y-70735000D02*
X117400000Y-70735000D01*
X118750000Y-71050000D02*
X118435000Y-70735000D01*
X117400000Y-70735000D02*
X116765000Y-70735000D01*
X116765000Y-70735000D02*
X116100000Y-71400000D01*
X116100000Y-71400000D02*
X115500000Y-71400000D01*
X115500000Y-71400000D02*
X115800000Y-71400000D01*
X118337500Y-74800000D02*
X119137500Y-74000000D01*
X116240000Y-74800000D02*
X118337500Y-74800000D01*
X115570000Y-110370000D02*
X115690000Y-110490000D01*
D34*
X115570000Y-99060000D02*
X115570000Y-110370000D01*
D33*
X118190000Y-99140000D02*
X118110000Y-99060000D01*
D34*
X118190000Y-110490000D02*
X118190000Y-99140000D01*
D33*
X120650000Y-110450000D02*
X120690000Y-110490000D01*
D34*
X120650000Y-99060000D02*
X120650000Y-110450000D01*
X123190000Y-110490000D02*
X123190000Y-99060000D01*
X128270000Y-99060000D02*
X128270000Y-104140000D01*
X131081780Y-99060000D02*
X133621780Y-101600000D01*
X128270000Y-99060000D02*
X131081780Y-99060000D01*
X101600000Y-76200000D02*
X101600000Y-74930000D01*
X104000000Y-80645649D02*
X101600000Y-76200000D01*
X131064000Y-80772000D02*
X104000000Y-80645649D01*
X131081780Y-99060000D02*
X131064000Y-80772000D01*
D33*
X82550000Y-82192500D02*
X82550000Y-82550000D01*
X81280000Y-83820000D02*
X81280000Y-87630000D01*
X82550000Y-82550000D02*
X81280000Y-83820000D01*
X85090000Y-82192500D02*
X85090000Y-85090000D01*
X85090000Y-85090000D02*
X85090000Y-86360000D01*
X85090000Y-104140000D02*
X85090000Y-85090000D01*
X84455000Y-104775000D02*
X85090000Y-104140000D01*
X83185000Y-104775000D02*
X81280000Y-102870000D01*
X84455000Y-104775000D02*
X83185000Y-104775000D01*
X80010000Y-82192500D02*
X80010000Y-85090000D01*
X81280000Y-90805000D02*
X81280000Y-95250000D01*
X80010000Y-85090000D02*
X80010000Y-89535000D01*
X80010000Y-89535000D02*
X81280000Y-90805000D01*
X82550000Y-79375000D02*
X82550000Y-80367500D01*
X85090000Y-79375000D02*
X85090000Y-80367500D01*
X80010000Y-79375000D02*
X80010000Y-80367500D01*
X135180000Y-63050000D02*
X135440000Y-63050000D01*
X135440000Y-63050000D02*
X136652000Y-64262000D01*
X136652000Y-70612000D02*
X137160000Y-71120000D01*
X136652000Y-64262000D02*
X136652000Y-70612000D01*
X137160000Y-73620000D02*
X134834000Y-73620000D01*
X134834000Y-73620000D02*
X133858000Y-72644000D01*
X133858000Y-64268000D02*
X132640000Y-63050000D01*
X133858000Y-72644000D02*
X133858000Y-64268000D01*
X137160000Y-76120000D02*
X135810000Y-76120000D01*
X135810000Y-76120000D02*
X131318000Y-71628000D01*
X131318000Y-64268000D02*
X130100000Y-63050000D01*
X131318000Y-71628000D02*
X131318000Y-64268000D01*
X90578000Y-65315860D02*
X90565806Y-65254557D01*
X90479116Y-65045271D01*
X90353263Y-64856918D01*
X90193082Y-64696737D01*
X90004729Y-64570884D01*
X89795443Y-64484194D01*
X89573265Y-64440000D01*
X89346735Y-64440000D01*
X89124557Y-64484194D01*
X88915271Y-64570884D01*
X88726918Y-64696737D01*
X88566737Y-64856918D01*
X88440884Y-65045271D01*
X88354194Y-65254557D01*
X88310000Y-65476735D01*
X88310000Y-65703265D01*
X88354194Y-65925443D01*
X88440884Y-66134729D01*
X88566737Y-66323082D01*
X88726918Y-66483263D01*
X88915271Y-66609116D01*
X89124557Y-66695806D01*
X89346735Y-66740000D01*
X89573265Y-66740000D01*
X89795443Y-66695806D01*
X90004729Y-66609116D01*
X90193082Y-66483263D01*
X90353263Y-66323082D01*
X90479116Y-66134729D01*
X90565806Y-65925443D01*
X90578000Y-65864140D01*
X90578000Y-67718000D01*
X85444000Y-67718000D01*
X85444000Y-64740000D01*
X85768549Y-64740000D01*
X85768549Y-66440000D01*
X85774341Y-66498810D01*
X85791496Y-66555360D01*
X85819353Y-66607477D01*
X85856842Y-66653158D01*
X85902523Y-66690647D01*
X85954640Y-66718504D01*
X86011190Y-66735659D01*
X86070000Y-66741451D01*
X87770000Y-66741451D01*
X87828810Y-66735659D01*
X87885360Y-66718504D01*
X87937477Y-66690647D01*
X87983158Y-66653158D01*
X88020647Y-66607477D01*
X88048504Y-66555360D01*
X88065659Y-66498810D01*
X88071451Y-66440000D01*
X88071451Y-64740000D01*
X88065659Y-64681190D01*
X88048504Y-64624640D01*
X88020647Y-64572523D01*
X87983158Y-64526842D01*
X87937477Y-64489353D01*
X87885360Y-64461496D01*
X87828810Y-64444341D01*
X87770000Y-64438549D01*
X86070000Y-64438549D01*
X86011190Y-64444341D01*
X85954640Y-64461496D01*
X85902523Y-64489353D01*
X85856842Y-64526842D01*
X85819353Y-64572523D01*
X85791496Y-64624640D01*
X85774341Y-64681190D01*
X85768549Y-64740000D01*
X85444000Y-64740000D01*
X85444000Y-61568000D01*
X90578000Y-61568000D01*
X90578000Y-65315860D01*
G04 #@! TA.AperFunction,Conductor*
D36*
G36*
X90578000Y-65315860D02*
G01*
X90565806Y-65254557D01*
X90479116Y-65045271D01*
X90353263Y-64856918D01*
X90193082Y-64696737D01*
X90004729Y-64570884D01*
X89795443Y-64484194D01*
X89573265Y-64440000D01*
X89346735Y-64440000D01*
X89124557Y-64484194D01*
X88915271Y-64570884D01*
X88726918Y-64696737D01*
X88566737Y-64856918D01*
X88440884Y-65045271D01*
X88354194Y-65254557D01*
X88310000Y-65476735D01*
X88310000Y-65703265D01*
X88354194Y-65925443D01*
X88440884Y-66134729D01*
X88566737Y-66323082D01*
X88726918Y-66483263D01*
X88915271Y-66609116D01*
X89124557Y-66695806D01*
X89346735Y-66740000D01*
X89573265Y-66740000D01*
X89795443Y-66695806D01*
X90004729Y-66609116D01*
X90193082Y-66483263D01*
X90353263Y-66323082D01*
X90479116Y-66134729D01*
X90565806Y-65925443D01*
X90578000Y-65864140D01*
X90578000Y-67718000D01*
X85444000Y-67718000D01*
X85444000Y-64740000D01*
X85768549Y-64740000D01*
X85768549Y-66440000D01*
X85774341Y-66498810D01*
X85791496Y-66555360D01*
X85819353Y-66607477D01*
X85856842Y-66653158D01*
X85902523Y-66690647D01*
X85954640Y-66718504D01*
X86011190Y-66735659D01*
X86070000Y-66741451D01*
X87770000Y-66741451D01*
X87828810Y-66735659D01*
X87885360Y-66718504D01*
X87937477Y-66690647D01*
X87983158Y-66653158D01*
X88020647Y-66607477D01*
X88048504Y-66555360D01*
X88065659Y-66498810D01*
X88071451Y-66440000D01*
X88071451Y-64740000D01*
X88065659Y-64681190D01*
X88048504Y-64624640D01*
X88020647Y-64572523D01*
X87983158Y-64526842D01*
X87937477Y-64489353D01*
X87885360Y-64461496D01*
X87828810Y-64444341D01*
X87770000Y-64438549D01*
X86070000Y-64438549D01*
X86011190Y-64444341D01*
X85954640Y-64461496D01*
X85902523Y-64489353D01*
X85856842Y-64526842D01*
X85819353Y-64572523D01*
X85791496Y-64624640D01*
X85774341Y-64681190D01*
X85768549Y-64740000D01*
X85444000Y-64740000D01*
X85444000Y-61568000D01*
X90578000Y-61568000D01*
X90578000Y-65315860D01*
G37*
G04 #@! TD.AperFunction*
M02*
